<svg version="1.0" xmlns="http://www.w3.org/2000/svg"
 width="100" height="100" viewBox="0 0 1200 1200"
 preserveAspectRatio="xMidYMid meet">

<g transform="translate(0.000000,1200.000000) scale(0.100000,-0.100000)"
fill="currentColor" stroke="none">
<path d="M8343 10042 c-408 -577 -1130 -913 -2173 -1008 -91 -8 -345 -19 -565
-24 -487 -11 -692 -31 -1033 -101 -550 -113 -1169 -378 -1597 -685 -101 -72
-235 -190 -235 -207 0 -12 629 -1976 637 -1990 2 -4 30 16 61 44 373 342 1075
670 1746 814 352 75 557 94 1231 115 467 14 734 45 1084 126 652 150 1155 442
1457 844 120 160 115 135 58 299 -27 78 -51 141 -54 140 -3 0 -31 -37 -62 -82
-338 -486 -912 -806 -1708 -951 -310 -56 -519 -74 -1040 -87 -228 -6 -430 -11
-449 -12 l-34 -2 -43 140 c-24 77 -44 141 -44 141 0 11 94 16 424 24 681 17
982 51 1401 160 661 170 1124 467 1426 911 l40 59 -42 132 c-23 73 -44 136
-48 141 -4 4 -27 -21 -51 -55 -424 -607 -1145 -943 -2225 -1038 -66 -6 -302
-15 -525 -20 -223 -5 -425 -12 -450 -16 l-46 -6 -43 136 c-24 76 -40 140 -36
144 10 11 171 20 365 21 623 4 1063 56 1510 177 490 132 888 353 1167 647 79
85 168 197 215 272 l24 40 -44 138 c-24 75 -47 137 -51 137 -3 0 -23 -26 -44
-59 -56 -87 -186 -240 -274 -321 -348 -322 -797 -527 -1423 -649 -294 -57
-550 -79 -1055 -91 -225 -5 -429 -13 -452 -16 l-41 -6 -45 138 c-38 114 -43
140 -32 147 8 4 189 12 402 17 669 17 969 50 1375 151 664 166 1145 464 1440
893 l61 88 -44 139 c-24 76 -46 139 -49 139 -3 0 -33 -40 -67 -88z m-3408
-1189 c23 -34 28 -37 66 -34 43 3 45 -2 11 -42 -14 -15 -13 -21 11 -54 15 -20
25 -39 23 -41 -2 -2 -18 4 -35 12 -41 22 -52 20 -78 -11 l-22 -28 -1 43 c0 42
-1 44 -51 67 l-51 23 43 9 c43 8 44 10 47 51 2 23 5 42 7 42 2 0 16 -17 30
-37z m-432 -85 c26 -35 27 -36 67 -26 53 14 60 5 25 -32 -32 -33 -32 -28 13
-97 l14 -23 -42 15 c-23 8 -46 15 -50 15 -4 0 -20 -19 -36 -42 l-29 -42 -5 55
c-5 53 -6 54 -47 69 -24 8 -43 17 -43 21 0 4 20 15 45 26 45 18 45 18 45 68 0
27 4 45 8 40 4 -6 20 -26 35 -47z m-391 -142 c54 19 54 19 24 -20 -14 -19 -26
-38 -26 -41 0 -3 12 -23 27 -42 l28 -36 -28 6 c-73 18 -71 19 -102 -26 l-30
-42 -5 54 c-5 52 -7 55 -40 66 l-35 12 38 13 c37 14 37 15 37 70 l0 55 36 -42
35 -42 41 15z m745 -32 l45 6 -27 -35 -27 -36 24 -32 c41 -54 40 -56 -13 -34
l-51 22 -29 -35 -28 -35 -1 48 0 48 -51 21 c-42 18 -48 23 -33 29 11 4 34 8
52 8 32 1 32 1 32 53 l0 51 31 -43 c30 -42 32 -42 76 -36z m-473 -105 c12 5
34 11 50 15 l28 7 -31 -40 -32 -41 31 -45 c34 -49 29 -53 -28 -29 l-37 15 -32
-38 -33 -38 0 52 c0 51 -1 52 -37 64 -59 19 -61 22 -13 34 l45 11 3 53 3 53
31 -40 c25 -33 35 -39 52 -33z m744 -59 l43 0 -22 -29 c-22 -29 -22 -29 -2
-58 35 -51 35 -53 -9 -33 l-43 20 -27 -30 -27 -29 -3 42 c-3 38 -7 44 -45 62
-48 23 -54 35 -19 35 47 0 56 9 56 59 l0 46 28 -42 c25 -39 30 -43 70 -43z
m-1448 20 l43 22 -25 -45 c-25 -44 -25 -45 -6 -68 42 -54 42 -58 -6 -44 l-43
13 -24 -41 -24 -42 -3 52 -3 52 -42 9 -42 8 43 22 c23 12 42 26 42 30 0 4 -5
25 -10 47 l-9 40 33 -39 33 -38 43 22z m947 -70 c24 -29 28 -30 76 -24 l52 7
-28 -36 c-15 -19 -27 -39 -27 -42 0 -3 11 -21 25 -39 14 -18 25 -35 25 -38 0
-3 -21 2 -46 11 l-46 16 -34 -40 -34 -40 0 52 c0 52 0 52 -40 64 -22 7 -40 16
-40 20 0 4 17 11 38 16 36 8 37 10 40 56 2 26 5 47 8 47 3 0 17 -14 31 -30z
m-673 -36 c56 23 59 21 24 -28 l-31 -45 33 -41 32 -41 -28 7 c-16 4 -39 10
-51 15 -18 6 -26 1 -50 -33 l-28 -42 -3 51 -3 51 -52 13 -52 12 53 23 52 24 0
46 0 47 33 -37 32 -38 39 16z m-688 -105 c19 12 37 21 39 21 2 0 -5 -21 -17
-47 -22 -50 -23 -46 21 -112 14 -23 14 -23 -7 -17 -12 3 -30 8 -40 11 -14 4
-24 -6 -43 -47 l-24 -52 -5 54 c-5 54 -6 55 -45 66 l-40 11 38 23 c36 22 37
23 37 83 l0 62 26 -38 25 -38 35 20z m978 -8 c47 17 48 15 12 -33 l-20 -28 20
-27 c37 -51 37 -51 -13 -40 -49 12 -50 11 -95 -54 -17 -24 -17 -24 -17 32 l-1
56 -46 13 -47 13 47 24 c44 22 46 26 46 66 l1 42 34 -40 34 -40 45 16z m670
-1 c25 -38 28 -40 66 -34 46 8 48 4 19 -35 l-21 -29 26 -35 c14 -18 26 -37 26
-40 0 -3 -20 2 -44 12 l-43 19 -32 -31 -31 -32 0 47 c0 46 -1 47 -45 64 -25 9
-45 20 -45 25 0 4 20 11 45 15 l45 6 0 44 c0 24 2 44 4 44 2 0 15 -18 30 -40z
m-1440 -75 c13 -19 14 -19 50 -2 20 9 39 17 41 17 3 0 -5 -20 -17 -44 l-21
-44 22 -30 c11 -17 21 -32 21 -35 0 -2 -19 -2 -43 0 -42 5 -43 5 -69 -43 l-28
-49 0 56 0 56 -42 10 -43 9 43 22 c42 22 42 23 42 80 1 61 2 61 44 -3z m1060
-55 c46 15 56 7 29 -23 -35 -38 -36 -47 -11 -80 43 -57 43 -59 -11 -38 l-51
19 -30 -34 -30 -35 0 49 0 48 -47 13 -48 14 48 14 47 14 0 51 0 51 33 -38 c32
-37 33 -38 71 -25z m660 -24 c27 -35 32 -38 67 -33 41 5 42 1 10 -36 -16 -19
-16 -18 27 -85 l15 -23 -47 22 -46 23 -30 -34 -29 -35 -1 47 c0 46 -1 48 -47
71 l-46 24 41 7 42 6 0 52 c0 29 4 48 8 43 4 -6 21 -27 36 -49z m-1459 4 l27
-39 39 19 c21 11 41 20 44 20 3 0 -5 -19 -19 -42 l-25 -42 32 -39 31 -40 -29
7 c-17 4 -37 9 -46 12 -11 3 -25 -9 -42 -38 l-26 -43 -1 52 c0 49 -2 53 -27
59 -58 12 -59 16 -15 37 45 22 46 27 26 100 -8 27 1 20 31 -23z m-835 -70 c7
-13 12 -11 32 8 35 32 39 28 21 -22 -17 -44 -16 -45 10 -85 l27 -41 -39 6 -39
6 -8 -43 -8 -44 -8 51 c-8 47 -12 52 -40 58 l-32 6 28 29 c25 26 27 34 21 77
-6 46 -5 48 10 29 9 -11 20 -27 25 -35z m1867 -54 c7 -12 17 -13 52 -5 24 5
46 7 49 4 3 -3 -9 -20 -26 -38 l-32 -33 30 -29 c16 -16 28 -30 26 -32 -1 -2
-23 4 -47 12 -43 15 -44 15 -61 -7 -50 -69 -47 -68 -48 -12 l0 51 -47 19 -48
18 48 14 47 13 0 47 1 47 24 -27 c13 -16 28 -34 32 -42z m-684 -5 c51 20 52
18 10 -38 -26 -33 -23 -54 11 -83 36 -29 15 -35 -55 -14 -11 3 -27 -10 -48
-38 l-31 -42 0 52 0 51 -42 11 c-24 6 -47 13 -53 15 -5 2 14 13 43 26 52 23
52 23 52 68 l1 46 32 -37 32 -36 48 19z m-973 -23 c0 -14 21 -8 52 13 l30 22
-7 -24 c-4 -13 -14 -37 -22 -52 -13 -27 -13 -32 12 -68 l26 -39 -42 2 c-40 3
-41 2 -59 -42 l-19 -45 0 53 c-1 33 -6 54 -13 56 -7 3 -25 7 -41 10 l-27 6 35
31 c31 28 35 36 35 83 l0 51 20 -25 c11 -14 20 -28 20 -32z m1186 -71 c22 -27
22 -27 64 -12 24 8 45 13 47 11 2 -2 -8 -17 -22 -34 -14 -16 -25 -34 -25 -39
0 -4 14 -26 32 -47 l32 -39 -29 6 c-17 4 -39 9 -51 12 -17 5 -27 -3 -52 -42
l-32 -48 0 57 0 57 -47 15 -48 14 42 19 c43 18 43 18 43 73 1 45 3 52 13 39 7
-8 22 -27 33 -42z m-932 -37 c6 0 22 7 34 16 13 9 25 14 27 12 2 -2 -3 -24
-12 -49 -16 -44 -16 -47 5 -76 29 -41 28 -45 -13 -37 -34 6 -35 5 -57 -42
l-23 -49 -3 55 c-3 59 -18 80 -59 80 -32 0 -29 11 12 38 32 20 35 27 35 70 l0
47 21 -32 c12 -18 26 -33 33 -33z m1671 11 c25 -37 28 -38 63 -30 56 13 57 12
27 -27 l-27 -36 31 -43 32 -44 -52 21 -52 22 -29 -34 -28 -34 0 47 c0 46 -1
47 -47 71 -51 26 -50 27 22 38 16 3 21 12 23 46 2 23 5 42 7 42 3 0 16 -17 30
-39z m-1436 -79 c7 -12 14 -11 49 7 47 24 50 20 22 -27 -26 -42 -25 -50 5 -94
l24 -36 -37 9 c-56 13 -56 13 -82 -38 l-25 -48 -3 50 c-4 54 -13 65 -54 65
-38 0 -35 11 10 35 36 19 37 22 40 80 l3 60 20 -24 c11 -13 23 -31 28 -39z
m1044 -33 c53 20 62 14 33 -23 -14 -19 -26 -38 -26 -41 0 -4 14 -26 30 -51 34
-48 32 -51 -28 -30 l-41 15 -30 -37 -30 -37 -1 52 c0 52 0 52 -37 63 -67 18
-70 26 -14 41 l51 13 0 50 0 51 33 -38 c29 -35 34 -38 60 -28z m663 -29 c24
-37 30 -40 71 -40 l44 0 -22 -30 -22 -29 28 -42 c22 -35 24 -41 9 -34 -79 32
-74 32 -105 -5 l-29 -34 0 51 0 50 -47 21 -48 20 30 7 c54 12 55 13 55 60 0
25 2 45 5 45 3 0 17 -18 31 -40z m-1367 -20 l44 22 -27 -46 -27 -46 30 -37
c17 -20 29 -38 28 -39 -1 -1 -22 3 -46 9 -47 13 -47 12 -93 -54 -17 -24 -17
-24 -17 28 l-1 52 -47 7 -47 7 47 24 c47 23 47 23 47 76 l0 52 33 -39 33 -39
43 23z m-914 -41 c6 -19 8 -19 40 5 l33 25 -16 -48 c-15 -48 -15 -50 11 -94
l27 -46 -32 10 c-37 10 -43 6 -56 -41 l-9 -35 -8 48 c-7 42 -11 49 -36 54 -36
7 -36 13 -3 44 23 21 25 30 21 72 -3 38 -2 45 9 36 7 -6 16 -20 19 -30z m1849
-20 l27 -41 51 7 51 7 -22 -31 c-12 -17 -26 -33 -32 -36 -5 -4 1 -20 14 -38
41 -56 41 -58 -9 -39 l-46 17 -34 -40 -34 -40 0 51 c0 50 0 51 -47 74 l-48 24
30 12 c17 7 38 13 48 14 14 0 17 9 17 50 0 28 2 50 4 50 2 0 16 -18 30 -41z
m-707 -49 c7 0 30 7 50 15 19 8 37 15 40 15 2 0 -10 -20 -28 -45 l-32 -44 28
-36 c15 -20 25 -38 23 -40 -2 -3 -20 0 -39 5 -50 15 -52 14 -79 -33 l-25 -42
-5 50 -5 49 -50 15 -50 14 53 23 52 24 0 52 0 53 27 -38 c14 -20 32 -37 40
-37z m-928 -29 c7 -12 14 -10 40 9 39 27 47 22 27 -19 -21 -40 -20 -50 9 -93
l25 -38 -32 7 c-18 3 -37 6 -42 7 -5 0 -16 -19 -25 -44 -15 -43 -16 -44 -19
-15 -6 66 -11 74 -49 81 l-37 7 32 27 c28 23 32 33 32 76 1 46 2 48 16 29 8
-11 19 -26 23 -34z m1255 -70 c25 9 46 15 46 12 0 -2 -12 -24 -26 -49 l-26
-44 31 -37 c17 -20 29 -38 28 -40 -2 -1 -19 2 -38 7 -51 15 -54 14 -85 -32
l-29 -42 -5 59 -5 58 -45 15 -45 16 43 18 c42 19 42 19 42 71 l0 52 34 -40 34
-40 46 16z m-1034 -11 c7 -12 14 -11 48 8 l40 22 -21 -49 -20 -50 26 -40 27
-41 -42 6 c-42 6 -43 5 -60 -33 l-16 -38 -1 42 c-1 60 -9 73 -41 73 -41 0 -45
16 -10 36 27 17 30 23 30 69 1 47 2 49 16 30 8 -11 19 -27 24 -35z m1768 -25
c23 3 42 3 42 0 0 -4 -9 -20 -21 -36 l-20 -29 25 -37 c14 -20 24 -39 22 -41
-2 -2 -18 4 -35 12 -43 22 -56 20 -85 -15 l-26 -31 0 47 c0 46 0 46 -51 67
-54 23 -52 30 14 42 37 7 37 7 37 54 l0 47 28 -43 c26 -42 28 -43 70 -37z
m-1504 -60 c13 -19 14 -19 50 -2 20 9 39 17 42 17 2 0 -5 -18 -16 -40 -25 -48
-25 -58 0 -90 28 -36 25 -40 -23 -34 -41 6 -43 5 -62 -32 l-20 -39 -5 55 c-5
52 -6 55 -38 61 -48 10 -49 16 -8 35 35 17 36 19 36 73 1 60 2 60 44 -4z
m1058 -28 c24 6 44 10 46 8 2 -2 -8 -20 -23 -40 l-28 -35 31 -50 c17 -28 30
-50 28 -50 -2 0 -23 7 -46 15 -56 20 -54 20 -81 -20 l-24 -35 -5 52 -5 51 -47
14 c-27 7 -48 16 -48 18 0 2 21 11 48 18 l47 14 3 49 4 49 29 -35 c28 -34 30
-34 71 -23z m-764 -70 c4 1 24 9 45 18 l38 16 -25 -44 -26 -44 30 -38 c16 -21
30 -39 30 -41 0 -2 -19 3 -41 11 -23 8 -43 15 -45 15 -1 0 -14 -19 -28 -42
l-26 -43 0 51 0 51 -42 13 -43 13 33 13 c30 13 32 17 32 67 l1 52 30 -35 c17
-19 33 -34 37 -33z m1442 -10 c0 -5 20 -6 46 -2 43 6 45 5 35 -13 -5 -10 -17
-24 -25 -32 -14 -11 -13 -17 14 -53 16 -22 28 -42 26 -44 -2 -3 -22 5 -45 16
-22 12 -42 21 -45 21 -3 0 -17 -17 -31 -37 l-25 -38 0 52 c0 52 0 53 -47 76
l-46 24 41 7 42 6 0 48 1 47 29 -35 c17 -19 30 -38 30 -43z m-2313 -15 c10
-15 13 -15 30 -1 39 34 45 33 29 -6 -21 -48 -20 -65 4 -95 27 -35 25 -40 -15
-40 -32 0 -35 -3 -41 -37 -6 -31 -8 -34 -15 -18 -4 11 -8 33 -8 48 -1 17 -8
30 -18 33 -10 3 -24 8 -32 10 -11 3 -7 12 14 34 25 26 27 34 23 77 -5 39 -3
44 6 30 6 -10 16 -26 23 -35z m1130 -61 c1 -2 22 3 45 12 23 9 44 15 46 12 3
-2 -7 -20 -22 -39 -14 -19 -26 -38 -26 -41 0 -4 14 -25 31 -46 34 -43 27 -48
-38 -30 -30 9 -34 7 -62 -31 l-30 -40 -3 48 -3 49 -50 16 -50 17 28 11 c15 6
38 15 52 21 22 8 25 15 25 61 l0 51 27 -34 c15 -18 28 -35 30 -37z m745 -4
c12 -16 20 -17 58 -8 24 5 46 8 48 6 2 -2 -10 -18 -26 -36 l-30 -33 27 -35
c23 -31 24 -34 6 -27 -66 27 -71 26 -104 -17 l-31 -41 0 51 0 50 -47 18 -47
18 47 14 47 14 0 47 1 47 19 -25 c10 -14 25 -33 32 -43z m-1658 -22 c13 -19
15 -19 44 -2 17 9 33 17 35 17 3 0 -3 -22 -15 -49 l-20 -50 21 -29 c28 -40 27
-44 -16 -40 -36 3 -38 1 -55 -42 l-17 -45 0 38 c-1 50 -16 77 -45 77 -36 0
-37 10 -5 37 26 22 29 31 29 86 1 67 1 67 44 2z m1207 -115 c5 0 26 7 46 15
20 8 38 13 40 11 2 -2 -9 -19 -26 -38 l-30 -34 35 -43 c19 -24 34 -45 34 -46
0 -2 -21 3 -47 11 -43 13 -49 13 -58 -1 -5 -9 -20 -31 -32 -48 l-23 -31 0 57
0 56 -47 15 -48 14 42 19 c43 18 43 18 43 72 l0 55 31 -42 c17 -23 35 -42 40
-42z m-972 22 c6 -11 16 -9 46 9 26 16 36 18 32 8 -30 -75 -31 -87 -4 -128 15
-22 21 -39 14 -36 -63 19 -67 18 -89 -32 -12 -27 -22 -41 -24 -33 -1 8 -5 32
-9 52 -5 33 -10 38 -40 44 -19 3 -35 10 -35 15 0 4 16 20 35 35 31 23 35 32
35 73 1 43 2 45 16 26 8 -11 19 -26 23 -33z m244 -86 c12 -18 15 -18 44 -2 47
24 55 20 33 -16 -25 -41 -25 -56 0 -88 26 -34 25 -41 -6 -30 -43 17 -53 12
-78 -37 l-25 -48 -1 57 0 57 -47 7 -46 7 41 24 c41 24 42 27 42 77 1 55 2 54
43 -8z m294 -105 c2 -3 24 5 49 18 l46 22 -27 -46 -27 -46 26 -39 26 -39 -50
6 c-49 6 -49 5 -72 -33 l-23 -39 -5 50 c-5 50 -5 50 -49 59 l-44 10 44 20 c43
21 44 22 47 74 l3 52 27 -32 c14 -18 27 -35 29 -37z m-864 -25 c12 -18 14 -17
45 9 l33 28 -19 -51 -20 -51 24 -35 c13 -19 24 -37 24 -38 0 -2 -15 -2 -34 0
-33 4 -35 2 -42 -33 -8 -43 -24 -29 -24 21 0 28 -4 33 -35 38 -42 8 -43 15 -9
47 23 21 25 29 20 74 -6 53 -4 53 37 -9z m211 -80 c12 -19 13 -19 49 3 43 26
44 24 17 -29 -25 -49 -25 -55 1 -92 l21 -29 -34 6 c-32 6 -34 5 -49 -37 l-16
-43 -8 53 c-6 44 -10 52 -28 52 -44 0 -51 16 -17 40 30 21 32 26 28 77 -3 56
-3 56 36 -1z m240 -91 c14 -20 14 -20 46 -2 39 23 46 18 26 -22 -21 -39 -20
-61 4 -91 28 -36 25 -40 -20 -23 -22 9 -41 14 -43 12 -1 -2 -12 -24 -24 -49
l-22 -45 0 32 c-1 53 -17 83 -45 83 -37 0 -40 16 -7 36 32 19 40 39 41 94 1
33 1 34 16 15 8 -11 21 -29 28 -40z m-297 -235 c4 0 17 10 30 22 27 25 29 12
8 -38 -14 -33 -13 -38 3 -63 38 -54 38 -54 -6 -46 -41 7 -41 6 -48 -29 -9 -48
-24 -46 -24 4 0 27 -5 42 -15 45 -51 16 -50 14 -21 44 25 26 27 33 21 82 l-7
54 26 -37 c15 -21 30 -38 33 -38z"/>
<path d="M2448 7994 c-31 -16 -48 -43 -48 -72 0 -11 87 -289 194 -618 107
-330 544 -1677 971 -2994 606 -1870 781 -2400 800 -2419 48 -48 131 -19 149
52 9 34 -19 123 -288 954 -164 505 -597 1838 -962 2963 -365 1125 -672 2062
-681 2083 -26 60 -81 81 -135 51z"/>
<path d="M9126 7819 c-79 -134 -295 -369 -441 -480 -156 -120 -380 -247 -560
-319 -485 -195 -1097 -300 -1755 -300 -515 0 -949 -59 -1385 -186 -559 -162
-1140 -461 -1453 -744 l-61 -56 45 -142 45 -142 82 71 c181 158 397 295 682
434 418 205 829 340 1240 409 286 49 436 60 1005 76 577 16 905 62 1339 186
213 61 472 173 656 282 232 138 519 411 644 613 l29 45 -44 139 c-24 76 -45
140 -47 141 -2 2 -11 -10 -21 -27z"/>
<path d="M9299 7233 c-12 -21 -49 -73 -82 -116 -284 -376 -746 -656 -1332
-807 -433 -111 -710 -144 -1347 -160 -450 -11 -601 -23 -887 -71 -118 -20
-432 -98 -581 -145 -327 -103 -732 -285 -982 -442 -145 -91 -334 -231 -392
-291 l-39 -40 43 -140 44 -141 27 23 c15 12 60 50 100 85 160 137 472 326 730
443 650 295 1153 409 1889 429 602 16 810 31 1105 81 152 25 461 100 585 141
311 103 597 253 812 427 107 86 277 268 361 385 l71 98 -43 132 c-24 72 -47
135 -51 139 -4 5 -18 -9 -31 -30z"/>
<path d="M9507 6698 c-2 -7 -40 -60 -82 -118 -358 -482 -925 -783 -1740 -924
-282 -49 -459 -63 -965 -76 -575 -15 -785 -39 -1172 -136 -365 -92 -628 -187
-934 -338 -334 -164 -513 -280 -733 -473 l-44 -39 42 -129 c23 -72 44 -136 46
-143 3 -8 35 14 86 58 181 156 362 273 644 416 408 206 872 362 1278 428 259
43 420 57 772 66 568 16 816 34 1075 80 822 145 1369 437 1737 927 l91 122
-45 143 c-25 79 -46 144 -48 146 -1 2 -5 -3 -8 -10z"/>
</g>
</svg>
