<svg width="100pt" height="100pt" version="1.1" viewBox="0 0 700 700" xmlns="http://www.w3.org/2000/svg" xmlns:xlink="http://www.w3.org/1999/xlink">
 <defs>
  <symbol id="g" overflow="visible">
   <path d="m28.422-1.7031c-1.4688 0.76172-3 1.3359-4.5938 1.7188-1.5859 0.38281-3.2344 0.57812-4.9531 0.57812-5.1562 0-9.2422-1.4375-12.25-4.3125-3.0117-2.875-4.5156-6.7812-4.5156-11.719s1.5039-8.8438 4.5156-11.719c3.0078-2.8828 7.0938-4.3281 12.25-4.3281 1.7188 0 3.3672 0.19531 4.9531 0.57812 1.5938 0.38672 3.125 0.96094 4.5938 1.7188v6.4062c-1.4805-1.0078-2.9375-1.75-4.375-2.2188s-2.9492-0.70312-4.5312-0.70312c-2.8438 0-5.0859 0.91406-6.7188 2.7344-1.625 1.8242-2.4375 4.3359-2.4375 7.5312 0 3.1992 0.8125 5.7109 2.4375 7.5312 1.6328 1.8242 3.875 2.7344 6.7188 2.7344 1.582 0 3.0938-0.23438 4.5312-0.70312 1.4375-0.47656 2.8945-1.2188 4.375-2.2188z"/>
  </symbol>
  <symbol id="i" overflow="visible">
   <path d="m20.797-16.875c-0.64844-0.3125-1.293-0.53516-1.9375-0.67188-0.64844-0.14453-1.293-0.21875-1.9375-0.21875-1.9062 0-3.375 0.60938-4.4062 1.8281-1.0234 1.2188-1.5312 2.9688-1.5312 5.25v10.688h-7.4219v-23.203h7.4219v3.8125c0.94531-1.5195 2.0352-2.6289 3.2656-3.3281 1.2383-0.69531 2.7227-1.0469 4.4531-1.0469 0.25 0 0.51953 0.011719 0.8125 0.03125 0.28906 0.023437 0.71094 0.070313 1.2656 0.14062z"/>
  </symbol>
  <symbol id="b" overflow="visible">
   <path d="m26.719-11.656v2.1094h-17.328c0.17578 1.7422 0.80078 3.0469 1.875 3.9219 1.082 0.86719 2.5859 1.2969 4.5156 1.2969 1.5625 0 3.1602-0.22656 4.7969-0.6875 1.6328-0.46875 3.3164-1.1719 5.0469-2.1094v5.7188c-1.75 0.65625-3.5078 1.1523-5.2656 1.4844-1.75 0.34375-3.5078 0.51562-5.2656 0.51562-4.1992 0-7.4609-1.0625-9.7812-3.1875-2.3242-2.1328-3.4844-5.1289-3.4844-8.9844 0-3.7812 1.1406-6.7539 3.4219-8.9219 2.2812-2.1758 5.4258-3.2656 9.4375-3.2656 3.6445 0 6.5625 1.1016 8.75 3.2969 2.1875 2.1992 3.2812 5.1367 3.2812 8.8125zm-7.625-2.4688c0-1.4062-0.41406-2.5391-1.2344-3.4062-0.8125-0.86328-1.8867-1.2969-3.2188-1.2969-1.4375 0-2.6055 0.40625-3.5 1.2188-0.89844 0.80469-1.4531 1.9648-1.6719 3.4844z"/>
  </symbol>
  <symbol id="f" overflow="visible">
   <path d="m13.969-10.438c-1.5547 0-2.7188 0.26562-3.5 0.79688-0.78125 0.52344-1.1719 1.293-1.1719 2.3125 0 0.9375 0.3125 1.6719 0.9375 2.2031 0.63281 0.53125 1.5078 0.79688 2.625 0.79688 1.3945 0 2.5664-0.5 3.5156-1.5 0.95703-1 1.4375-2.2539 1.4375-3.7656v-0.84375zm11.328-2.7969v13.234h-7.4844v-3.4375c-0.99219 1.4062-2.1094 2.4336-3.3594 3.0781-1.2422 0.63281-2.75 0.95312-4.5312 0.95312-2.4062 0-4.3594-0.69531-5.8594-2.0938-1.4922-1.4062-2.2344-3.2227-2.2344-5.4531 0-2.7266 0.92969-4.7266 2.7969-6 1.875-1.2695 4.8125-1.9062 8.8125-1.9062h4.375v-0.57812c0-1.1641-0.46484-2.0195-1.3906-2.5625-0.92969-0.55078-2.3711-0.82812-4.3281-0.82812-1.5859 0-3.0625 0.16406-4.4375 0.48438-1.3672 0.3125-2.6328 0.78906-3.7969 1.4219v-5.6562c1.582-0.38281 3.1758-0.67578 4.7812-0.875 1.6016-0.20703 3.2031-0.3125 4.7969-0.3125 4.1875 0 7.207 0.82812 9.0625 2.4844 1.8633 1.6484 2.7969 4.3281 2.7969 8.0469z"/>
  </symbol>
  <symbol id="a" overflow="visible">
   <path d="m11.656-29.781v6.5781h7.6562v5.3125h-7.6562v9.8281c0 1.0859 0.21094 1.8203 0.64062 2.2031 0.4375 0.375 1.2891 0.5625 2.5625 0.5625h3.7969v5.2969h-6.3594c-2.9297 0-5-0.60938-6.2188-1.8281-1.2188-1.2266-1.8281-3.3047-1.8281-6.2344v-9.8281h-3.6875v-5.3125h3.6875v-6.5781z"/>
  </symbol>
  <symbol id="e" overflow="visible">
   <path d="m19.344-19.797v-12.438h7.4531v32.234h-7.4531v-3.3594c-1.0234 1.3672-2.1484 2.3672-3.375 3-1.2305 0.63281-2.6523 0.95312-4.2656 0.95312-2.8555 0-5.2031-1.1328-7.0469-3.4062-1.8359-2.2695-2.75-5.1914-2.75-8.7656 0-3.5703 0.91406-6.4922 2.75-8.7656 1.8438-2.2812 4.1914-3.4219 7.0469-3.4219 1.6016 0 3.0195 0.32422 4.25 0.96875 1.2383 0.64844 2.3672 1.6484 3.3906 3zm-4.8906 15.016c1.5938 0 2.8047-0.57812 3.6406-1.7344 0.83203-1.1641 1.25-2.8516 1.25-5.0625 0-2.207-0.41797-3.8906-1.25-5.0469-0.83594-1.1641-2.0469-1.75-3.6406-1.75-1.5742 0-2.7773 0.58594-3.6094 1.75-0.83594 1.1562-1.25 2.8398-1.25 5.0469 0 2.2109 0.41406 3.8984 1.25 5.0625 0.83203 1.1562 2.0352 1.7344 3.6094 1.7344z"/>
  </symbol>
  <symbol id="h" overflow="visible">
   <path d="m15.906-4.7812c1.5938 0 2.8047-0.57812 3.6406-1.7344 0.83203-1.1641 1.25-2.8516 1.25-5.0625 0-2.207-0.41797-3.8906-1.25-5.0469-0.83594-1.1641-2.0469-1.75-3.6406-1.75-1.5859 0-2.8047 0.58594-3.6562 1.75-0.84375 1.168-1.2656 2.8516-1.2656 5.0469 0 2.1992 0.42188 3.8828 1.2656 5.0469 0.85156 1.168 2.0703 1.75 3.6562 1.75zm-4.9219-15.016c1.0195-1.3516 2.1484-2.3516 3.3906-3 1.2383-0.64453 2.6641-0.96875 4.2812-0.96875 2.8633 0 5.2109 1.1406 7.0469 3.4219 1.832 2.2734 2.75 5.1953 2.75 8.7656 0 3.5742-0.91797 6.4961-2.75 8.7656-1.8359 2.2734-4.1836 3.4062-7.0469 3.4062-1.6172 0-3.043-0.32031-4.2812-0.95312-1.2422-0.64453-2.3711-1.6445-3.3906-3v3.3594h-7.4219v-32.234h7.4219z"/>
  </symbol>
  <symbol id="d" overflow="visible">
   <path d="m0.51562-23.203h7.4219l6.2344 15.75 5.2969-15.75h7.4219l-9.7656 25.406c-0.98047 2.5703-2.1211 4.375-3.4219 5.4062-1.3047 1.0312-3.0273 1.5469-5.1719 1.5469h-4.2812v-4.875h2.3125c1.2578 0 2.1758-0.19922 2.75-0.59375 0.57031-0.39844 1.0156-1.1172 1.3281-2.1562l0.21875-0.64062z"/>
  </symbol>
  <symbol id="c" overflow="visible">
   <path d="m26.891-14.125v14.125h-7.4688v-10.812c0-2-0.046875-3.3789-0.14062-4.1406-0.085938-0.75781-0.23438-1.3203-0.45312-1.6875-0.29297-0.47656-0.6875-0.85156-1.1875-1.125-0.49219-0.26953-1.0547-0.40625-1.6875-0.40625-1.5547 0-2.7734 0.60156-3.6562 1.7969-0.875 1.1992-1.3125 2.8555-1.3125 4.9688v11.406h-7.4219v-23.203h7.4219v3.4062c1.1133-1.3516 2.2969-2.3516 3.5469-3 1.2578-0.64453 2.6484-0.96875 4.1719-0.96875 2.6758 0 4.707 0.82422 6.0938 2.4688 1.3945 1.6484 2.0938 4.0391 2.0938 7.1719z"/>
  </symbol>
  <symbol id="r" overflow="visible">
   <path d="m11.875-24.891v18.859h2.8594c3.25 0 5.7344-0.80469 7.4531-2.4219 1.7266-1.6133 2.5938-3.9609 2.5938-7.0469 0-3.0625-0.85938-5.3906-2.5781-6.9844-1.7109-1.6016-4.1992-2.4062-7.4688-2.4062zm-7.9844-6.0312h8.4062c4.6953 0 8.1953 0.33594 10.5 1 2.3008 0.66797 4.2695 1.8047 5.9062 3.4062 1.457 1.3984 2.5352 3.0078 3.2344 4.8281 0.70703 1.8242 1.0625 3.8867 1.0625 6.1875 0 2.3359-0.35547 4.418-1.0625 6.25-0.69922 1.8359-1.7773 3.4492-3.2344 4.8438-1.6562 1.5938-3.6484 2.7305-5.9688 3.4062-2.3125 0.66797-5.793 1-10.438 1h-8.4062z"/>
  </symbol>
  <symbol id="q" overflow="visible">
   <path d="m21.688-22.469v5.625c-1.5859-0.65625-3.1172-1.1484-4.5938-1.4844-1.4805-0.33203-2.875-0.5-4.1875-0.5-1.4062 0-2.4531 0.17969-3.1406 0.53125-0.6875 0.35547-1.0312 0.89844-1.0312 1.625 0 0.59375 0.25781 1.0547 0.78125 1.375 0.51953 0.3125 1.4453 0.54297 2.7812 0.6875l1.3125 0.1875c3.8008 0.49219 6.3516 1.2891 7.6562 2.3906 1.3125 1.1055 1.9688 2.8398 1.9688 5.2031 0 2.4688-0.91406 4.3242-2.7344 5.5625-1.8242 1.2422-4.543 1.8594-8.1562 1.8594-1.5312 0-3.1172-0.12109-4.75-0.35938-1.6367-0.23828-3.3203-0.59766-5.0469-1.0781v-5.6406c1.4766 0.71875 2.9922 1.2617 4.5469 1.625 1.5508 0.35547 3.1289 0.53125 4.7344 0.53125 1.4453 0 2.5352-0.19531 3.2656-0.59375 0.73828-0.40625 1.1094-1.0039 1.1094-1.7969 0-0.65625-0.25781-1.1445-0.76562-1.4688-0.5-0.32031-1.5078-0.57812-3.0156-0.76562l-1.2969-0.15625c-3.3047-0.41406-5.6172-1.1797-6.9375-2.2969-1.3242-1.125-1.9844-2.8281-1.9844-5.1094 0-2.457 0.83594-4.2812 2.5156-5.4688 1.6875-1.1875 4.2695-1.7812 7.75-1.7812 1.3633 0 2.7969 0.10547 4.2969 0.3125 1.5078 0.21094 3.1484 0.53906 4.9219 0.98438z"/>
  </symbol>
  <symbol id="p" overflow="visible">
   <path d="m3.5625-23.203h7.4219v23.203h-7.4219zm0-9.0312h7.4219v6.0469h-7.4219z"/>
  </symbol>
  <symbol id="o" overflow="visible">
   <path d="m19.344-3.9375c-1.0234 1.3555-2.1484 2.3516-3.375 2.9844-1.2305 0.63672-2.6523 0.95312-4.2656 0.95312-2.8359 0-5.1797-1.1133-7.0312-3.3438-1.8438-2.2266-2.7656-5.0703-2.7656-8.5312 0-3.457 0.92188-6.2969 2.7656-8.5156 1.8516-2.2188 4.1953-3.3281 7.0312-3.3281 1.6133 0 3.0352 0.32031 4.2656 0.95312 1.2266 0.63672 2.3516 1.6367 3.375 3v-3.4375h7.4531v20.859c0 3.7266-1.1797 6.5781-3.5312 8.5469-2.3555 1.9688-5.7656 2.9531-10.234 2.9531-1.4492 0-2.8516-0.10938-4.2031-0.32812-1.3555-0.21875-2.7148-0.55859-4.0781-1.0156v-5.7812c1.2891 0.75 2.5547 1.3047 3.7969 1.6719 1.25 0.36328 2.5 0.54688 3.75 0.54688 2.4375 0 4.2188-0.53125 5.3438-1.5938 1.1328-1.0625 1.7031-2.7266 1.7031-5zm-4.8906-14.438c-1.5312 0-2.7266 0.57031-3.5781 1.7031-0.85547 1.1367-1.2812 2.7344-1.2812 4.7969 0 2.1367 0.41016 3.75 1.2344 4.8438 0.83203 1.0938 2.0391 1.6406 3.625 1.6406 1.5508 0 2.7539-0.5625 3.6094-1.6875 0.85156-1.1328 1.2812-2.7344 1.2812-4.7969s-0.42969-3.6602-1.2812-4.7969c-0.85547-1.1328-2.0586-1.7031-3.6094-1.7031z"/>
  </symbol>
  <symbol id="n" overflow="visible">
   <path d="m18.828-32.234v4.875h-4.0938c-1.0547 0-1.7891 0.19531-2.2031 0.57812-0.41797 0.375-0.625 1.0312-0.625 1.9688v1.6094h6.3438v5.3125h-6.3438v17.891h-7.4062v-17.891h-3.6875v-5.3125h3.6875v-1.6094c0-2.5312 0.70312-4.3984 2.1094-5.6094 1.4062-1.207 3.5859-1.8125 6.5469-1.8125z"/>
  </symbol>
  <symbol id="m" overflow="visible">
   <path d="m26.891-14.125v14.125h-7.4688v-10.766c0-2.0312-0.046875-3.4258-0.14062-4.1875-0.085938-0.75781-0.23438-1.3203-0.45312-1.6875-0.29297-0.47656-0.6875-0.85156-1.1875-1.125-0.49219-0.26953-1.0547-0.40625-1.6875-0.40625-1.5547 0-2.7734 0.60156-3.6562 1.7969-0.875 1.1992-1.3125 2.8555-1.3125 4.9688v11.406h-7.4219v-32.234h7.4219v12.438c1.1133-1.3516 2.2969-2.3516 3.5469-3 1.2578-0.64453 2.6484-0.96875 4.1719-0.96875 2.6758 0 4.707 0.82422 6.0938 2.4688 1.3945 1.6484 2.0938 4.0391 2.0938 7.1719z"/>
  </symbol>
  <symbol id="l" overflow="visible">
   <path d="m3.8906-30.922h8.9062l11.25 21.203v-21.203h7.5625v30.922h-8.9062l-11.25-21.219v21.219h-7.5625z"/>
  </symbol>
  <symbol id="k" overflow="visible">
   <path d="m3.8906-30.922h13.234c3.9375 0 6.957 0.875 9.0625 2.625 2.1016 1.7422 3.1562 4.2266 3.1562 7.4531 0 3.25-1.0547 5.75-3.1562 7.5-2.1055 1.7422-5.125 2.6094-9.0625 2.6094h-5.25v10.734h-7.9844zm7.9844 5.7812v8.625h4.4062c1.5391 0 2.7344-0.375 3.5781-1.125s1.2656-1.8164 1.2656-3.2031c0-1.375-0.42188-2.4297-1.2656-3.1719-0.84375-0.75-2.0391-1.125-3.5781-1.125z"/>
  </symbol>
  <symbol id="j" overflow="visible">
   <path d="m3.5625-23.203h7.4219v22.781c0 3.1133-0.75 5.4883-2.25 7.125-1.4922 1.6328-3.6523 2.4531-6.4844 2.4531h-3.6562v-4.875h1.2812c1.4062 0 2.3672-0.32031 2.8906-0.95312 0.53125-0.63672 0.79688-1.8867 0.79688-3.75zm0-9.0312h7.4219v6.0469h-7.4219z"/>
  </symbol>
 </defs>
 <g>
  <path d="m548.46 409.9v-328.96c0-18.156-14.762-32.922-32.922-32.922h-48.957v-14.086c0-12.898-10.438-23.332-23.332-23.332h-152.47c-12.898 0-23.332 10.438-23.332 23.332v14.168l-48.961 0.003906c-18.156 0-32.922 14.762-32.922 32.922v226.12c0 3.4805 2.8867 6.3633 6.3633 6.3633 3.4805 0 6.3633-2.8867 6.3633-6.3633v-226.21c0-11.113 9.0781-20.195 20.195-20.195h48.957v14.168c0 12.898 10.438 23.332 23.332 23.332l152.56 0.003906c12.898 0 23.332-10.438 23.332-23.332l0.003907-14.086h48.957c11.113 0 20.195 9.0781 20.195 20.195v326.41c-2.375-0.25391-4.75-0.33984-7.1289-0.33984-39.285 0-71.188 31.902-71.188 71.188 0 11.879 2.9688 23.164 8.1445 33.008l-130.16-0.003906c-3.4805 0-6.3633 2.8867-6.3633 6.3633 0 3.4805 2.8867 6.3633 6.3633 6.3633h138.56c13.066 15.527 32.668 25.453 54.473 25.453 39.285 0 71.188-31.902 71.188-71.188 0.082031-32.41-21.637-59.73-51.25-68.387zm-94.523-334.98c0 5.8555-4.75 10.605-10.605 10.605h-152.55c-5.8555 0-10.605-4.75-10.605-10.605l-0.003906-40.984c0-5.8555 4.75-10.605 10.605-10.605h152.56c5.8555 0 10.605 4.75 10.605 10.605zm74.668 461.75c-32.242 0-58.461-26.219-58.461-58.461 0-32.242 26.219-58.461 58.461-58.461 32.242 0 58.461 26.219 58.461 58.461 0 32.242-26.219 58.461-58.461 58.461z"/>
  <path d="m323.36 479.39c0-6.6172-2.4609-12.727-6.5352-17.395 1.9531-1.1016 3.7344-2.5469 5.4297-4.1562 5.0078-5.0078 7.7227-11.711 7.7227-18.75 0-9.7578-5.2617-18.242-13.152-22.824 4.1562-4.8359 6.4492-10.945 6.4492-17.395 0-14.594-11.879-26.473-26.473-26.473h-46.668c9.5859-29.188 7.1289-58.207 4.582-73.734-1.6953-10.438-10.52-17.902-21.043-17.902-5.6836 0-11.031 2.207-15.102 6.1953-3.9023 3.9023-6.1094 9.0781-6.2773 14.934-5.4297 31.141-22.23 48.957-22.484 49.211l-31.141 33.176c-2.7148-3.0547-6.6172-5.0078-11.031-5.0078h-32.496c-8.2305 0-14.848 6.7031-14.848 14.848l-0.003907 140.43c0 8.2305 6.7031 14.848 14.848 14.848h32.668c6.4492 0 11.879-4.1562 13.914-9.8438 5.1758 4.0742 11.539 6.5352 18.582 6.5352h109.62c7.043 0 13.746-2.7148 18.75-7.8047 5.0078-5.0078 7.7227-11.711 7.7227-18.75 0-6.6172-2.375-12.641-6.3633-17.223 2.0352-1.1875 3.9023-2.6289 5.6016-4.2422 5.0039-5.0117 7.7227-11.629 7.7227-18.672zm-175.64 57.273h-32.582c-1.1875 0-2.1211-0.93359-2.1211-2.1211v-140.34c0-1.1875 0.93359-2.1211 2.1211-2.1211h32.668c1.1875 0 2.1211 0.93359 2.1211 2.1211v2.1211 0.085937 119.3 0.085937l-0.003907 18.75c0 1.1875-1.0156 2.1211-2.2031 2.1211zm149.16-71.105c7.5508 0 13.746 6.1953 13.746 13.746 0 3.6484-1.4414 7.1289-3.9883 9.7578-2.6289 2.6289-6.0234 3.9883-9.7578 3.9883h-6.8711c-3.4805 0-6.3633 2.8867-6.3633 6.3633 0 3.4805 2.8867 6.3633 6.3633 6.3633 7.5508 0 13.746 6.1953 13.746 13.746 0 3.6484-1.4414 7.1289-3.9883 9.7578-2.6289 2.6289-6.0234 3.9883-9.7578 3.9883h-109.71c-9.7578 0-17.648-7.8906-17.648-17.562v-116.84l36.484-38.945c0.84766-0.84766 19.855-20.871 25.879-56.34 0.085938-0.33984 0.085938-1.1875 0.085938-1.5273 0-2.2891 0.93359-4.4961 2.4609-6.0234 1.6133-1.6133 3.8164-2.5469 6.1094-2.5469 4.2422 0 7.8047 3.0547 8.4844 7.2969 2.5469 15.781 5.0898 46.496-7.043 75.602-0.84766 1.9531-0.59375 4.2422 0.59375 6.0234s3.1406 2.8008 5.2617 2.8008h55.832c7.5508 0 13.746 6.1953 13.746 13.746 0 3.6484-1.4414 7.1289-3.9883 9.7578-2.6289 2.6289-6.0234 3.9883-9.7578 3.9883-3.4805 0-6.3633 2.8867-6.3633 6.3633 0 3.4805 2.8867 6.3633 6.3633 6.3633h6.6172c7.5508 0 13.746 6.1953 13.746 13.746 0 3.6484-1.4414 7.1289-3.9883 9.7578-2.6289 2.6289-6.0234 3.9883-9.7578 3.9883h-6.6172c-3.4805 0-6.3633 2.8867-6.3633 6.3633-0.003906 3.4766 2.8789 6.2773 6.4453 6.2773z"/>
  <path d="m309.7 252.93c14.34 15.359 34.703 25.031 57.273 25.031 22.656 0 42.934-9.6719 57.273-25.031 0.085937-0.085938 0.16797-0.25391 0.33984-0.33984 12.898-14 20.871-32.582 20.871-53.113 0-43.273-35.211-78.484-78.484-78.484s-78.484 35.211-78.484 78.484c0 20.535 7.9766 39.113 20.871 53.113 0.17188 0.16797 0.25781 0.25391 0.33984 0.33984zm12.305-5.6836c8.9102-16.461 26.133-26.98 45.055-26.98 18.922 0 36.145 10.52 45.055 26.98-11.793 11.113-27.574 17.988-45.055 17.988-17.48 0-33.262-6.875-45.055-17.988zm25.113-59.648c0-10.945 8.9102-19.938 19.938-19.938 10.945 0 19.938 8.9102 19.938 19.938 0 11.031-8.9102 19.938-19.938 19.938-11.027 0-19.938-8.9102-19.938-19.938zm19.941-53.879c36.23 0 65.758 29.527 65.758 65.758 0 14-4.4141 26.898-11.879 37.586-7.6367-11.879-18.922-20.703-31.902-25.453 6.5352-5.9375 10.691-14.426 10.691-24.012 0-17.988-14.68-32.668-32.668-32.668-17.988 0-32.668 14.68-32.668 32.668 0 9.5039 4.1562 17.988 10.691 24.012-13.066 4.75-24.352 13.574-31.902 25.453-7.4648-10.691-11.879-23.586-11.879-37.586 0-36.23 29.441-65.758 65.758-65.758z"/>
  <path d="m552.7 452.92-36.992 36.992-11.199-11.199c-2.4609-2.4609-6.5352-2.4609-8.9922 0-2.4609 2.4609-2.4609 6.5352 0 8.9922l15.691 15.785c1.1875 1.1875 2.8008 1.8672 4.4961 1.8672 1.6953 0 3.3086-0.67969 4.4961-1.8672l41.492-41.492c2.4609-2.4609 2.4609-6.5352 0-8.9922-2.457-2.4609-6.5312-2.5469-8.9922-0.085937z"/>
  <path d="m277.2 307.07c0 3.4805 2.8867 6.3633 6.3633 6.3633h175.46c3.4805 0 6.3633-2.8867 6.3633-6.3633 0-3.4805-2.8867-6.3633-6.3633-6.3633h-175.46c-3.4766 0-6.3633 2.8828-6.3633 6.3633z"/>
  <path d="m283.56 344.99h175.46c3.4805 0 6.3633-2.8867 6.3633-6.3633 0-3.4805-2.8867-6.3633-6.3633-6.3633h-175.46c-3.4805 0-6.3633 2.8867-6.3633 6.3633 0 3.4805 2.8867 6.3633 6.3633 6.3633z"/>
  <path d="m459.03 363.83h-99.105c-3.4805 0-6.3633 2.8867-6.3633 6.3633 0 3.4805 2.8867 6.3633 6.3633 6.3633h99.102c3.4805 0 6.3633-2.8867 6.3633-6.3633 0.003906-3.4805-2.8828-6.3633-6.3594-6.3633z"/>
  <path d="m459.03 395.48h-99.105c-3.4805 0-6.3633 2.8867-6.3633 6.3633 0 3.4805 2.8867 6.3633 6.3633 6.3633h99.102c3.4805 0 6.3633-2.8867 6.3633-6.3633 0.003906-3.4805-2.8828-6.3633-6.3594-6.3633z"/>
  <path d="m420 48.109h-105.89c-3.4805 0-6.3633 2.8867-6.3633 6.3633 0 3.4805 2.8867 6.3633 6.3633 6.3633h105.8c3.4805 0 6.3633-2.8867 6.3633-6.3633 0-3.4805-2.7969-6.3633-6.2773-6.3633z"/>

 </g>
</svg>
