<svg version="1.0" xmlns="http://www.w3.org/2000/svg"
 width="100" height="100" viewBox="0 0 1200 1200"
 preserveAspectRatio="xMidYMid meet">

<g transform="translate(0.000000,1200.000000) scale(0.100000,-0.100000)"
fill="currentColor" stroke="none">
<path d="M5890 10044 c-120 -32 -219 -118 -370 -320 -111 -148 -189 -231 -226
-240 -58 -15 -85 -4 -413 165 -222 115 -360 138 -477 78 -136 -69 -193 -164
-279 -463 -54 -189 -87 -273 -121 -305 -34 -32 -126 -36 -305 -15 -217 25
-290 28 -364 16 -175 -28 -283 -124 -321 -285 -18 -77 -15 -271 7 -395 6 -36
12 -115 13 -176 1 -99 -1 -114 -19 -134 -30 -35 -126 -74 -301 -125 -323 -95
-434 -166 -486 -313 -24 -69 -21 -186 8 -272 18 -52 36 -91 167 -342 65 -125
91 -200 83 -233 -10 -38 -50 -79 -205 -210 -181 -152 -279 -254 -317 -331 -26
-53 -29 -69 -29 -154 0 -88 3 -100 34 -160 40 -78 151 -195 271 -288 133 -103
207 -170 230 -208 32 -51 21 -101 -57 -252 -185 -354 -203 -401 -203 -519 0
-88 31 -165 94 -231 67 -71 187 -129 387 -187 269 -77 322 -102 338 -162 15
-53 14 -88 -10 -295 -33 -288 -18 -417 62 -527 39 -55 123 -108 201 -126 80
-19 242 -19 383 0 128 17 298 20 326 5 31 -17 64 -96 129 -306 34 -110 77
-231 96 -270 42 -88 111 -167 178 -202 45 -24 62 -27 151 -27 125 0 167 13
356 111 342 177 365 184 431 129 19 -16 86 -91 148 -165 143 -172 191 -222
264 -276 112 -84 200 -107 307 -79 117 29 218 108 332 260 124 165 201 255
238 281 55 38 105 30 238 -38 58 -30 161 -82 227 -116 205 -105 340 -126 456
-69 120 59 188 161 258 387 105 338 119 371 170 397 34 17 165 16 296 -3 156
-22 344 -23 415 -1 75 22 145 71 190 131 79 105 93 229 59 526 -25 218 -23
290 11 326 28 30 105 61 324 129 214 67 302 109 372 178 118 115 133 273 46
471 -15 34 -62 126 -105 206 -78 146 -118 243 -118 287 0 33 69 104 220 228
153 125 231 202 280 277 48 73 63 130 58 215 -8 146 -96 262 -356 471 -145
116 -202 177 -202 217 0 43 41 141 125 296 123 229 155 315 155 426 0 93 -31
165 -101 236 -75 74 -173 121 -382 182 -187 54 -277 89 -311 120 -39 36 -42
93 -16 334 32 298 20 410 -53 518 -95 138 -264 177 -592 138 -141 -17 -298
-19 -326 -5 -30 17 -64 94 -123 286 -107 346 -163 437 -304 502 -48 22 -63 24
-145 19 -131 -6 -184 -27 -511 -202 -146 -77 -197 -87 -249 -50 -15 11 -90 95
-166 186 -207 246 -285 312 -407 344 -70 18 -93 18 -164 -1z m173 -316 c29
-29 100 -111 158 -183 223 -273 334 -345 505 -325 91 11 162 37 302 112 289
153 353 179 393 158 31 -17 72 -115 129 -312 59 -202 119 -335 180 -397 91
-93 247 -131 455 -111 375 36 419 36 456 -1 16 -16 19 -33 19 -116 0 -54 -7
-161 -15 -238 -31 -302 -12 -420 87 -530 68 -75 186 -133 398 -195 96 -28 209
-68 250 -88 l75 -37 0 -50 c-1 -52 -46 -154 -150 -334 -55 -96 -103 -216 -118
-293 -21 -115 14 -231 104 -338 47 -57 78 -84 287 -250 109 -87 172 -158 172
-195 0 -34 -67 -103 -239 -244 -183 -150 -249 -220 -294 -311 -29 -58 -32 -74
-32 -150 1 -104 23 -176 101 -323 110 -207 167 -330 171 -371 5 -37 2 -45 -21
-64 -35 -27 -124 -60 -329 -122 -92 -27 -199 -66 -238 -85 -211 -107 -268
-267 -224 -635 8 -69 15 -171 15 -226 0 -134 -9 -147 -106 -152 -38 -2 -142 3
-230 12 -204 20 -333 20 -409 1 -182 -48 -268 -163 -359 -480 -45 -157 -90
-274 -117 -309 -39 -50 -99 -32 -335 100 -84 47 -187 100 -231 117 -70 29 -88
32 -183 32 -97 0 -110 -2 -165 -30 -80 -40 -187 -144 -306 -295 -105 -135
-182 -214 -226 -231 -41 -15 -90 25 -211 171 -226 274 -301 341 -427 379 -53
17 -74 18 -128 11 -116 -17 -186 -47 -370 -158 -122 -73 -250 -132 -288 -132
-55 0 -81 52 -164 325 -69 232 -111 322 -179 390 -87 86 -180 117 -349 116
-60 0 -147 -6 -195 -12 -48 -7 -141 -13 -207 -13 -197 -2 -198 -1 -164 361 18
191 20 253 12 313 -33 236 -141 327 -523 439 -187 55 -274 92 -297 127 -24 37
8 122 108 295 51 87 117 221 135 272 26 72 36 164 24 225 -24 133 -98 225
-330 412 -160 129 -240 210 -240 244 0 44 52 98 260 268 152 124 234 213 272
295 28 59 33 78 32 148 0 108 -15 149 -151 421 -99 197 -117 239 -117 280 -1
48 -1 49 49 76 47 26 151 61 360 123 248 73 363 174 401 354 18 85 17 174 -1
336 -8 72 -15 178 -15 238 0 176 -10 173 475 127 146 -14 265 0 351 41 126 59
200 181 279 454 58 200 99 301 132 322 24 16 29 15 94 -7 38 -13 120 -52 182
-87 242 -139 331 -173 456 -175 173 -2 275 74 513 383 93 120 160 179 205 179
28 0 44 -9 86 -52z"/>
<path d="M5903 8166 l-28 -24 -3 -246 -3 -247 30 -29 c48 -48 113 -35 145 28
17 35 30 447 15 490 -19 55 -106 70 -156 28z"/>
<path d="M4984 7987 c-22 -19 -27 -32 -27 -68 0 -38 15 -69 114 -233 63 -104
126 -198 141 -209 59 -44 146 14 134 90 -6 41 -218 395 -253 422 -34 28 -76
26 -109 -2z"/>
<path d="M6819 7992 c-9 -9 -67 -100 -129 -202 -128 -210 -140 -246 -97 -295
20 -24 33 -30 66 -30 23 0 47 7 56 16 9 8 67 100 130 204 131 215 139 243 86
296 -34 33 -86 39 -112 11z"/>
<path d="M4137 7420 c-49 -39 -54 -114 -11 -151 26 -22 329 -198 381 -221 42
-18 43 -18 82 1 50 26 69 72 49 121 -11 28 -45 51 -218 151 -122 71 -215 119
-231 119 -14 0 -38 -9 -52 -20z"/>
<path d="M7525 7324 c-110 -64 -208 -126 -217 -137 -27 -34 -23 -89 8 -121 26
-25 44 -30 92 -26 13 1 109 52 214 113 201 117 218 133 218 202 0 36 -50 85
-87 85 -18 0 -102 -43 -228 -116z"/>
<path d="M5849 7025 c-222 -56 -398 -217 -477 -437 -23 -65 -26 -88 -26 -213
-1 -128 1 -146 26 -213 145 -399 579 -573 949 -381 314 163 445 552 295 874
-79 168 -206 283 -388 351 -62 23 -92 27 -198 30 -85 2 -143 -1 -181 -11z"/>
<path d="M4280 6627 c-238 -81 -396 -327 -361 -562 35 -235 190 -402 416 -450
88 -18 122 -18 210 0 243 51 415 262 415 510 0 149 -45 260 -152 371 -62 65
-122 103 -214 134 -82 29 -226 27 -314 -3z"/>
<path d="M7498 6640 c-233 -40 -406 -217 -440 -446 -54 -374 322 -686 679
-563 157 54 273 170 329 328 33 93 33 239 0 332 -42 119 -125 221 -230 283
-94 55 -239 83 -338 66z"/>
<path d="M5246 5444 c-147 -35 -297 -154 -368 -290 -62 -118 -68 -159 -68
-506 l0 -308 1200 0 1200 0 0 298 c0 337 -7 391 -67 512 -69 142 -216 257
-375 295 -91 21 -1433 21 -1522 -1z"/>
<path d="M3882 5405 c-179 -33 -323 -162 -367 -330 -11 -45 -15 -116 -15 -302
l0 -243 563 2 562 3 5 250 c5 227 8 256 29 315 34 98 85 183 153 255 l60 65
-458 -1 c-334 -1 -479 -4 -532 -14z"/>
<path d="M7196 5368 c61 -67 89 -107 127 -183 62 -123 69 -164 74 -428 l5
-237 562 2 561 3 0 240 c0 220 -2 246 -23 311 -43 141 -145 251 -280 306 -57
23 -61 23 -561 26 l-504 3 39 -43z"/>
</g>
</svg>
