<svg width="100pt" height="100pt" version="1.1" viewBox="0 0 700 700" xmlns="http://www.w3.org/2000/svg" xmlns:xlink="http://www.w3.org/1999/xlink">
 <defs>
  <symbol id="m" overflow="visible">
   <path d="m29.312-1.75c-1.5117 0.78125-3.0898 1.3711-4.7344 1.7656-1.6367 0.40625-3.3398 0.60938-5.1094 0.60938-5.3125 0-9.5273-1.4844-12.641-4.4531-3.1055-2.9688-4.6562-7-4.6562-12.094s1.5508-9.125 4.6562-12.094c3.1133-2.9688 7.3281-4.4531 12.641-4.4531 1.7695 0 3.4727 0.19922 5.1094 0.59375 1.6445 0.39844 3.2227 0.99219 4.7344 1.7812v6.5938c-1.5312-1.0391-3.0391-1.8008-4.5156-2.2812-1.4805-0.48828-3.0391-0.73438-4.6719-0.73438-2.9375 0-5.2461 0.94531-6.9219 2.8281-1.6797 1.875-2.5156 4.4648-2.5156 7.7656 0 3.293 0.83594 5.8828 2.5156 7.7656 1.6758 1.875 3.9844 2.8125 6.9219 2.8125 1.6328 0 3.1914-0.23828 4.6719-0.71875 1.4766-0.48828 2.9844-1.2539 4.5156-2.2969z"/>
  </symbol>
  <symbol id="h" overflow="visible">
   <path d="m21.453-17.406c-0.67969-0.3125-1.3516-0.53906-2.0156-0.6875-0.65625-0.15625-1.3203-0.23438-1.9844-0.23438-1.9688 0-3.4844 0.63281-4.5469 1.8906-1.0547 1.2617-1.5781 3.0703-1.5781 5.4219v11.016h-7.6562v-23.922h7.6562v3.9219c0.97656-1.5625 2.1016-2.7031 3.375-3.4219 1.2812-0.71875 2.8125-1.0781 4.5938-1.0781 0.25 0 0.52344 0.011719 0.82812 0.03125 0.30078 0.023438 0.73438 0.070312 1.2969 0.14062z"/>
  </symbol>
  <symbol id="c" overflow="visible">
   <path d="m27.562-12.031v2.1875h-17.891c0.1875 1.793 0.83203 3.1367 1.9375 4.0312 1.1133 0.89844 2.6719 1.3438 4.6719 1.3438 1.6016 0 3.25-0.23438 4.9375-0.70312 1.6875-0.47656 3.4219-1.2031 5.2031-2.1719v5.8906c-1.8047 0.6875-3.6094 1.2031-5.4219 1.5469-1.8125 0.35156-3.6211 0.53125-5.4219 0.53125-4.3359 0-7.7031-1.0977-10.109-3.2969-2.3984-2.207-3.5938-5.2969-3.5938-9.2656 0-3.9062 1.1758-6.9727 3.5312-9.2031 2.3633-2.2383 5.6094-3.3594 9.7344-3.3594 3.7578 0 6.7695 1.1367 9.0312 3.4062 2.2578 2.2617 3.3906 5.2812 3.3906 9.0625zm-7.8594-2.5312c0-1.457-0.42969-2.6289-1.2812-3.5156-0.84375-0.89453-1.9492-1.3438-3.3125-1.3438-1.4922 0-2.6992 0.41797-3.625 1.25-0.91797 0.83594-1.4922 2.0391-1.7188 3.6094z"/>
  </symbol>
  <symbol id="b" overflow="visible">
   <path d="m14.391-10.766c-1.5938 0-2.793 0.27344-3.5938 0.8125-0.80469 0.54297-1.2031 1.3398-1.2031 2.3906 0 0.96875 0.32031 1.7305 0.96875 2.2812 0.64453 0.54297 1.5469 0.8125 2.7031 0.8125 1.4375 0 2.6445-0.51562 3.625-1.5469 0.98828-1.0312 1.4844-2.3203 1.4844-3.875v-0.875zm11.688-2.8906v13.656h-7.7031v-3.5469c-1.0312 1.4492-2.1875 2.5078-3.4688 3.1719s-2.8398 1-4.6719 1c-2.4805 0-4.4961-0.72266-6.0469-2.1719-1.543-1.4453-2.3125-3.3203-2.3125-5.625 0-2.8125 0.96094-4.8672 2.8906-6.1719 1.9375-1.3125 4.9688-1.9688 9.0938-1.9688h4.5156v-0.60938c0-1.207-0.48047-2.0938-1.4375-2.6562-0.94922-0.5625-2.4375-0.84375-4.4688-0.84375-1.6367 0-3.1562 0.16797-4.5625 0.5-1.4062 0.32422-2.7188 0.8125-3.9375 1.4688v-5.8281c1.6445-0.40625 3.2891-0.70703 4.9375-0.90625 1.6562-0.20703 3.3047-0.3125 4.9531-0.3125 4.3203 0 7.4375 0.85547 9.3438 2.5625 1.9141 1.6992 2.875 4.4609 2.875 8.2812z"/>
  </symbol>
  <symbol id="g" overflow="visible">
   <path d="m12.031-30.719v6.7969h7.875v5.4688h-7.875v10.141c0 1.1172 0.21875 1.8711 0.65625 2.2656 0.4375 0.38672 1.3125 0.57812 2.625 0.57812h3.9375v5.4688h-6.5625c-3.0234 0-5.1641-0.62891-6.4219-1.8906-1.2617-1.2578-1.8906-3.3984-1.8906-6.4219v-10.141h-3.7969v-5.4688h3.7969v-6.7969z"/>
  </symbol>
  <symbol id="f" overflow="visible">
   <path d="m19.953-20.422v-12.812h7.6875v33.234h-7.6875v-3.4531c-1.0547 1.4062-2.2148 2.4375-3.4844 3.0938-1.2734 0.65625-2.7422 0.98438-4.4062 0.98438-2.9492 0-5.3711-1.1719-7.2656-3.5156-1.8867-2.3438-2.8281-5.3594-2.8281-9.0469s0.94141-6.7031 2.8281-9.0469c1.8945-2.3438 4.3164-3.5156 7.2656-3.5156 1.6562 0 3.1172 0.33594 4.3906 1 1.2812 0.65625 2.4453 1.6836 3.5 3.0781zm-5.0469 15.484c1.6445 0 2.8945-0.59766 3.75-1.7969 0.86328-1.1953 1.2969-2.9297 1.2969-5.2031 0-2.2812-0.43359-4.0195-1.2969-5.2188-0.85547-1.1953-2.1055-1.7969-3.75-1.7969-1.625 0-2.8711 0.60156-3.7344 1.7969-0.85547 1.1992-1.2812 2.9375-1.2812 5.2188 0 2.2734 0.42578 4.0078 1.2812 5.2031 0.86328 1.1992 2.1094 1.7969 3.7344 1.7969z"/>
  </symbol>
  <symbol id="e" overflow="visible">
   <path d="m16.406-4.9375c1.6328 0 2.8828-0.59766 3.75-1.7969 0.86328-1.1953 1.2969-2.9297 1.2969-5.2031 0-2.2812-0.43359-4.0195-1.2969-5.2188-0.86719-1.1953-2.1172-1.7969-3.75-1.7969-1.6367 0-2.8906 0.60547-3.7656 1.8125-0.875 1.1992-1.3125 2.9336-1.3125 5.2031 0 2.2617 0.4375 3.9961 1.3125 5.2031 0.875 1.1992 2.1289 1.7969 3.7656 1.7969zm-5.0781-15.484c1.0508-1.3945 2.2188-2.4219 3.5-3.0781 1.2812-0.66406 2.7539-1 4.4219-1 2.9453 0 5.3672 1.1719 7.2656 3.5156 1.8945 2.3438 2.8438 5.3594 2.8438 9.0469s-0.94922 6.7031-2.8438 9.0469c-1.8984 2.3438-4.3203 3.5156-7.2656 3.5156-1.668 0-3.1406-0.33594-4.4219-1s-2.4492-1.6914-3.5-3.0781v3.4531h-7.6562v-33.234h7.6562z"/>
  </symbol>
  <symbol id="a" overflow="visible">
   <path d="m0.53125-23.922h7.6562l6.4219 16.234 5.4688-16.234h7.6562l-10.062 26.188c-1.0117 2.6641-2.1953 4.5234-3.5469 5.5781-1.3438 1.0625-3.1211 1.5938-5.3281 1.5938h-4.4219v-5.0156h2.3906c1.3008 0 2.2422-0.21094 2.8281-0.625 0.59375-0.40625 1.0547-1.1484 1.3906-2.2188l0.20312-0.65625z"/>
  </symbol>
  <symbol id="d" overflow="visible">
   <path d="m4.0156-31.891h22.203v6.2188h-13.984v5.9375h13.141v6.2188h-13.141v7.2969h14.453v6.2188h-22.672z"/>
  </symbol>
  <symbol id="l" overflow="visible">
   <path d="m3.4219-9.3125v-14.609h7.6875v2.3906c0 1.293-0.011719 2.918-0.03125 4.875-0.011719 1.9609-0.015625 3.2656-0.015625 3.9219 0 1.9297 0.046875 3.3125 0.14062 4.1562 0.10156 0.84375 0.28125 1.4609 0.53125 1.8438 0.3125 0.5 0.71875 0.88672 1.2188 1.1562 0.50781 0.27344 1.0938 0.40625 1.75 0.40625 1.5938 0 2.8438-0.60938 3.75-1.8281 0.91406-1.2266 1.375-2.9297 1.375-5.1094v-11.812h7.6406v23.922h-7.6406v-3.4531c-1.1562 1.3867-2.3828 2.4141-3.6719 3.0781-1.2812 0.66406-2.6992 1-4.25 1-2.7734 0-4.8828-0.84766-6.3281-2.5469-1.4375-1.6953-2.1562-4.1602-2.1562-7.3906z"/>
  </symbol>
  <symbol id="k" overflow="visible">
   <path d="m23-23.172v6.2344c-1.0312-0.71875-2.0742-1.2422-3.125-1.5781-1.043-0.34375-2.125-0.51562-3.25-0.51562-2.1367 0-3.8047 0.625-5 1.875-1.1875 1.2422-1.7812 2.9805-1.7812 5.2188 0 2.2305 0.59375 3.9688 1.7812 5.2188 1.1953 1.25 2.8633 1.875 5 1.875 1.1953 0 2.332-0.17578 3.4062-0.53125 1.0703-0.36328 2.0625-0.89453 2.9688-1.5938v6.2656c-1.1875 0.4375-2.4023 0.76562-3.6406 0.98438-1.2305 0.22656-2.4648 0.34375-3.7031 0.34375-4.3125 0-7.6875-1.1094-10.125-3.3281s-3.6562-5.2969-3.6562-9.2344c0-3.9453 1.2188-7.0234 3.6562-9.2344 2.4375-2.2188 5.8125-3.3281 10.125-3.3281 1.25 0 2.4844 0.10938 3.7031 0.32812s2.4297 0.55469 3.6406 1z"/>
  </symbol>
  <symbol id="j" overflow="visible">
   <path d="m3.6719-33.234h7.6562v33.234h-7.6562z"/>
  </symbol>
  <symbol id="i" overflow="visible">
   <path d="m11.328-3.4531v12.547h-7.6562v-33.016h7.6562v3.5c1.0508-1.3945 2.2188-2.4219 3.5-3.0781 1.2812-0.66406 2.7539-1 4.4219-1 2.9453 0 5.3672 1.1719 7.2656 3.5156 1.8945 2.3438 2.8438 5.3594 2.8438 9.0469s-0.94922 6.7031-2.8438 9.0469c-1.8984 2.3438-4.3203 3.5156-7.2656 3.5156-1.668 0-3.1406-0.33594-4.4219-1s-2.4492-1.6914-3.5-3.0781zm5.0781-15.5c-1.6367 0-2.8906 0.60547-3.7656 1.8125-0.875 1.1992-1.3125 2.9336-1.3125 5.2031 0 2.2617 0.4375 3.9961 1.3125 5.2031 0.875 1.1992 2.1289 1.7969 3.7656 1.7969 1.6328 0 2.8828-0.59766 3.75-1.7969 0.86328-1.1953 1.2969-2.9297 1.2969-5.2031 0-2.2812-0.43359-4.0195-1.2969-5.2188-0.86719-1.1953-2.1172-1.7969-3.75-1.7969z"/>
  </symbol>
 </defs>
 <g>
  <path d="m236.25 349.17c0-16.102-11.234-29.559-26.25-33.152v-18.516h-17.5v18.523c-15.016 3.5977-26.25 17.047-26.25 33.152 0 14.734 9.3906 27.766 23.363 32.418l17.727 5.9141c6.8242 2.2734 11.402 8.6367 11.402 15.828 0.007812 9.1914-7.4727 16.664-16.668 16.664h-1.6445c-9.1992 0-16.68-7.4727-16.68-16.668v-9.582h-17.5v9.582c0 16.102 11.234 29.559 26.25 33.152v18.516h17.5v-18.523c15.016-3.5977 26.25-17.047 26.25-33.152 0-14.734-9.3906-27.766-23.363-32.418l-17.727-5.9141c-6.832-2.2695-11.41-8.6328-11.41-15.824 0-9.1953 7.4805-16.668 16.676-16.668h1.6445c9.1992 0 16.68 7.4727 16.68 16.668v0.83203z"/>
  <path d="m595 306.25h-299.99c-0.91797-1.0938-1.75-2.2383-2.7031-3.2969l-38.012-42.234c9.8867-3.7656 16.957-13.277 16.957-24.469 0-10.578-6.3164-19.652-15.348-23.809l14.133-49.445c0.80469-2.8438 1.2148-5.7773 1.2148-8.7266 0-17.516-14.254-31.77-31.77-31.77h-23.949c-12.363 0-22.977 7.168-28.227 17.5h-22.539c-18.492 0-33.516 15.023-33.516 33.504 0 8.9414 3.4844 17.359 9.8164 23.688l13.141 13.141c-12.902 1.6367-22.957 12.566-22.957 25.918 0 11.191 7.0703 20.703 16.957 24.465l-38.012 42.234c-20.281 22.523-31.445 51.629-31.445 82.051 0 67.551 54.949 122.5 122.5 122.5 18.805 0 36.559-4.3828 52.5-11.988v29.488c0 14.473 11.777 26.25 26.25 26.25h315c14.473 0 26.25-11.777 26.25-26.25v-192.5c0-14.473-11.777-26.25-26.25-26.25zm-446.25-132.75c0-8.8281 7.1758-16.004 16.004-16.004h18.996v17.5h17.5v-20.73c0-7.8633 6.4062-14.27 14.27-14.27h23.949c7.875 0 14.281 6.4062 14.281 14.27 0 1.3203-0.18359 2.6523-0.55078 3.9219l-14.797 51.809h-59.781l-25.184-25.184c-3.0234-3.0273-4.6875-7.043-4.6875-11.312zm8.75 53.996h87.5c4.8203 0 8.75 3.9297 8.75 8.75s-3.9297 8.75-8.75 8.75h-87.5c-4.8203 0-8.75-3.9297-8.75-8.75s3.9297-8.75 8.75-8.75zm-61.25 157.39c0-25.988 9.5742-50.926 26.957-70.234l46.938-52.16h62.203l46.945 52.16c17.383 19.309 26.957 44.258 26.957 70.34 0 57.898-47.102 105-105 105s-105-47.102-105-105.11zm507.5 140.11c0 4.8281-3.9297 8.75-8.75 8.75h-315c-4.8203 0-8.75-3.9219-8.75-8.75v-39.621c6.293-4.4023 12.152-9.3555 17.5-14.824v10.695h122.5v-17.5h-116.31c12.539-14.902 21.57-32.812 25.898-52.5h282.91zm-280.39-148.75h280.39v17.5h-280.45c0.21094-2.9297 0.44531-5.8633 0.44531-8.8555 0-2.8945-0.19141-5.7734-0.39453-8.6445zm-2.5352-17.5c-2.6875-12.301-7.2344-24.09-13.527-35h287.71c4.8203 0 8.75 3.9219 8.75 8.75v26.25z"/>
  <path d="m516.25 516.25c6.1875 0 12.199-1.7227 17.527-4.8555 5.1602 3.0078 11.078 4.8555 17.473 4.8555 19.301 0 35-15.699 35-35s-15.699-35-35-35c-6.3945 0-12.312 1.8477-17.473 4.8555-5.3281-3.1328-11.34-4.8555-17.527-4.8555-19.301 0-35 15.699-35 35s15.699 35 35 35zm52.5-35c0 9.6523-7.8477 17.5-17.5 17.5s-17.5-7.8477-17.5-17.5 7.8477-17.5 17.5-17.5 17.5 7.8477 17.5 17.5zm-52.5-17.5c1.6641 0 3.1328 0.28125 4.5078 0.66406-2.7852 5.0156-4.5078 10.703-4.5078 16.836s1.7227 11.82 4.5078 16.836c-1.375 0.38281-2.8438 0.66406-4.5078 0.66406-9.6523 0-17.5-7.8477-17.5-17.5s7.8477-17.5 17.5-17.5z"/>
  <path d="m323.75 498.75h17.5v17.5h-17.5z"/>
  <path d="m393.75 498.75h17.5v17.5h-17.5z"/>
  <path d="m288.75 498.75h17.5v17.5h-17.5z"/>
  <path d="m358.75 498.75h17.5v17.5h-17.5z"/>
  <path d="m542.5 288.75c43.418 0 78.75-35.332 78.75-78.75s-35.332-78.75-78.75-78.75-78.75 35.332-78.75 78.75 35.332 78.75 78.75 78.75zm0-140c33.773 0 61.25 27.477 61.25 61.25s-27.477 61.25-61.25 61.25-61.25-27.477-61.25-61.25 27.477-61.25 61.25-61.25z"/>
  <path d="m385 166.25c43.418 0 78.75-35.332 78.75-78.75s-35.332-78.75-78.75-78.75-78.75 35.332-78.75 78.75 35.332 78.75 78.75 78.75zm0-140c33.773 0 61.25 27.477 61.25 61.25s-27.477 61.25-61.25 61.25-61.25-27.477-61.25-61.25 27.477-61.25 61.25-61.25z"/>
  <path d="m522.44 242.44 20.062-20.066 20.062 20.066 12.375-12.375-20.066-20.062 20.066-20.062-12.375-12.375-20.062 20.066-20.062-20.066-12.375 12.375 20.066 20.062-20.066 20.062z"/>
  <path d="m426.19 67.438-12.375-12.375-46.312 46.316-11.312-11.316-12.375 12.375 23.688 23.684z"/>
  <path d="m393.75 183.75h-17.5v35h-87.5v17.5h105z"/>
  <path d="m288.75 253.75h166.25v17.5h-166.25z"/>
 </g>
</svg>
