<svg version="1.0" xmlns="http://www.w3.org/2000/svg"
 width="100" height="100" viewBox="0 0 1200 1200"
 preserveAspectRatio="xMidYMid meet">

<g transform="translate(0.000000,1200.000000) scale(0.100000,-0.100000)"
fill="currentColor" stroke="none">
<path d="M5720 10398 c-953 -79 -1866 -590 -2515 -1408 -379 -478 -638 -987
-831 -1637 -2 -10 -50 -13 -193 -13 -211 0 -295 -12 -413 -58 -177 -68 -332
-211 -416 -384 -92 -188 -87 -125 -87 -1098 0 -854 0 -855 22 -935 80 -285
294 -498 578 -577 75 -20 105 -22 510 -26 461 -4 488 -2 524 45 21 26 21 28
21 1490 0 1592 3 1505 -55 1531 -14 7 -68 12 -120 12 l-94 0 59 174 c295 863
809 1569 1485 2043 1106 776 2504 776 3610 0 676 -474 1190 -1180 1485 -2043
l59 -174 -95 0 c-106 0 -143 -12 -162 -55 -9 -20 -12 -376 -12 -1490 l0 -1465
28 -30 c18 -21 41 -33 69 -38 l42 -7 -57 -135 c-268 -627 -682 -1179 -1187
-1580 l-88 -71 -30 56 c-39 72 -159 185 -238 225 -81 41 -196 70 -279 70 -83
0 -198 -29 -279 -70 -34 -17 -95 -62 -135 -101 -247 -234 -247 -614 0 -848
154 -147 358 -202 556 -152 110 28 189 72 272 152 88 83 149 190 172 301 8 40
16 73 17 74 1 1 56 42 122 91 600 451 1087 1098 1386 1843 l59 145 272 6 c235
6 284 9 353 28 283 76 498 290 578 576 22 80 22 81 22 935 0 973 5 910 -87
1098 -84 173 -239 316 -416 384 -118 46 -202 58 -413 58 -143 0 -191 3 -193
13 -112 374 -248 711 -406 997 -762 1385 -2096 2166 -3500 2048z m-3070 -4598
l0 -1270 -297 0 c-164 0 -329 5 -368 10 -83 12 -188 60 -261 118 -62 49 -134
154 -166 242 l-23 65 -3 801 c-3 885 -3 886 59 1013 40 81 143 186 225 229
107 56 145 60 507 61 l327 1 0 -1270z m7409 1255 c142 -34 287 -148 350 -276
62 -127 62 -128 59 -1013 l-3 -801 -26 -72 c-69 -187 -235 -325 -424 -353 -38
-5 -204 -10 -367 -10 l-298 0 0 1270 0 1270 323 0 c252 0 336 -4 386 -15z"/>
<path d="M5590 8859 c-58 -26 -96 -63 -125 -119 -20 -39 -27 -86 -49 -300 -22
-220 -29 -261 -51 -306 -51 -105 -167 -181 -292 -191 -110 -8 -152 13 -382
196 -205 164 -252 191 -324 191 -104 0 -122 -13 -394 -284 -198 -197 -257
-262 -275 -301 -29 -65 -29 -144 -1 -205 12 -25 90 -128 174 -230 83 -102 161
-205 173 -230 28 -63 27 -175 -3 -252 -39 -101 -117 -178 -205 -203 -28 -8
-154 -26 -281 -40 -126 -14 -250 -33 -274 -42 -58 -21 -104 -63 -132 -121 -24
-47 -24 -48 -24 -422 l0 -375 30 -54 c31 -57 84 -103 140 -121 18 -6 146 -24
284 -39 278 -32 312 -42 384 -114 21 -21 53 -69 70 -105 28 -58 32 -78 32
-147 0 -110 -21 -149 -210 -378 -170 -207 -194 -253 -180 -340 15 -85 47 -126
302 -378 276 -274 292 -285 400 -277 32 2 74 12 93 21 19 9 121 87 225 172
220 180 258 200 371 193 127 -8 247 -85 299 -192 21 -43 29 -92 55 -314 33
-291 40 -315 110 -375 72 -61 114 -67 476 -67 356 0 389 4 466 63 74 56 88 98
115 345 29 264 43 329 83 388 105 152 337 194 479 87 20 -15 108 -86 196 -159
88 -72 176 -139 195 -150 48 -26 160 -25 215 0 58 28 515 483 551 550 37 66
40 159 7 221 -11 22 -95 134 -186 249 -148 186 -167 215 -183 272 -41 151 40
331 180 399 46 22 89 30 315 55 288 33 311 40 373 108 62 68 63 79 63 472 0
352 0 355 -24 408 -26 57 -75 106 -130 129 -19 8 -150 28 -290 44 -290 33
-327 45 -401 125 -67 73 -95 143 -95 239 0 112 23 154 200 370 82 99 157 200
168 225 27 61 27 144 -1 201 -15 30 -104 126 -279 300 -275 273 -286 282 -383
283 -79 2 -129 -27 -322 -186 -219 -179 -262 -203 -369 -203 -67 0 -85 5 -152
38 -81 40 -132 89 -167 162 -15 31 -28 107 -50 299 -32 285 -43 322 -108 376
-70 57 -91 60 -481 60 -336 0 -358 -2 -401 -21z m728 -224 c2 -1 14 -103 28
-226 14 -123 32 -249 40 -278 55 -194 222 -354 421 -406 71 -19 212 -19 280
-1 94 25 156 62 357 213 l199 150 146 -151 c285 -294 295 -305 284 -318 -6 -7
-74 -92 -152 -188 -78 -96 -155 -202 -172 -235 -136 -277 -12 -631 268 -767
78 -37 96 -41 324 -74 133 -19 252 -34 265 -34 l24 0 -2 -312 -3 -313 -230
-31 c-276 -37 -283 -39 -362 -75 -306 -137 -432 -514 -270 -803 13 -23 86
-122 163 -221 77 -99 144 -186 148 -192 7 -12 -52 -71 -374 -380 l-75 -72
-171 143 c-198 164 -244 196 -334 227 -84 29 -236 32 -325 5 -188 -56 -332
-185 -395 -354 -17 -44 -90 -498 -90 -556 0 -12 -632 1 -640 14 -3 5 -16 104
-29 221 -25 231 -38 293 -78 375 -63 130 -204 252 -340 294 -88 28 -205 36
-285 21 -104 -21 -190 -71 -398 -232 l-194 -152 -218 224 c-119 123 -217 229
-217 234 -1 6 59 83 133 172 211 256 236 304 244 472 6 126 -6 188 -60 300
-67 141 -199 253 -348 295 -30 8 -158 29 -285 46 -126 17 -232 33 -234 36 -7
6 0 542 8 594 l6 44 235 27 c129 15 253 33 275 39 175 52 336 218 391 405 25
87 24 222 -4 310 -27 91 -68 155 -227 359 -71 92 -130 173 -130 180 0 12 426
427 445 434 5 2 87 -60 182 -138 193 -158 244 -191 338 -221 90 -28 230 -28
325 1 182 56 328 195 391 372 7 22 27 137 44 256 16 119 32 232 36 251 l5 33
317 -7 c174 -4 318 -9 320 -10z"/>
<path d="M5875 7079 c-494 -63 -878 -443 -944 -934 -20 -143 6 -357 59 -503
88 -237 274 -454 492 -572 280 -151 611 -172 903 -60 410 159 685 553 686 984
0 237 -56 427 -185 620 -61 91 -201 231 -289 290 -140 92 -313 155 -487 176
-96 11 -136 11 -235 -1z m320 -249 c204 -57 384 -183 494 -343 47 -69 106
-200 127 -282 12 -49 17 -109 18 -200 0 -155 -14 -213 -85 -360 -106 -221
-311 -387 -554 -451 -101 -26 -302 -24 -406 4 -290 78 -517 306 -601 599 -18
65 -22 103 -22 223 0 136 2 151 32 240 100 300 356 526 657 580 63 11 287 5
340 -10z"/>
</g>
</svg>
