<svg version="1.0" xmlns="http://www.w3.org/2000/svg"
 width="100" height="100" viewBox="0 0 1200 1200"
 preserveAspectRatio="xMidYMid meet">

<g transform="translate(0.000000,1200.000000) scale(0.100000,-0.100000)"
fill="currentColor" stroke="none">
<path d="M4523 10195 c-226 -35 -279 -52 -334 -107 -58 -58 -83 -169 -56 -244
12 -32 488 -728 908 -1325 l18 -26 -287 -58 c-158 -32 -451 -94 -652 -137
-201 -44 -372 -80 -381 -81 -9 -1 -73 64 -150 153 -104 120 -145 160 -183 179
l-49 25 -346 -52 c-382 -58 -400 -64 -437 -140 -32 -68 -25 -100 89 -374 59
-141 107 -261 107 -266 0 -4 -24 -14 -52 -21 -93 -24 -359 -112 -493 -163
-522 -201 -917 -499 -1098 -828 -99 -180 -132 -314 -124 -510 6 -171 29 -258
107 -416 109 -219 214 -349 418 -519 377 -315 756 -508 1372 -697 l75 -23 5
-1100 5 -1100 23 -43 c63 -118 165 -181 308 -190 81 -5 84 -6 84 -29 0 -92 75
-255 154 -336 303 -307 795 -198 942 209 13 35 24 79 25 97 0 26 2 28 8 12 5
-11 14 -42 20 -70 28 -122 130 -264 242 -336 163 -104 383 -116 557 -29 75 38
175 129 223 203 41 63 74 153 85 230 l6 47 974 0 974 0 4 -23 c22 -111 32
-147 63 -210 107 -215 364 -342 599 -298 233 44 422 234 457 460 l11 71 383 0
383 0 4 -22 c22 -113 32 -148 64 -211 47 -94 152 -200 243 -244 229 -112 493
-66 669 118 79 82 150 241 150 334 0 29 5 34 61 60 71 32 129 98 148 166 9 32
11 161 9 479 -3 427 -3 436 -25 476 -29 55 -103 119 -160 138 -27 9 -80 16
-124 16 l-78 0 -3 372 -3 373 -27 57 c-35 75 -103 141 -176 169 -54 21 -75 23
-359 27 l-302 4 -3 212 -3 212 -33 66 c-37 75 -83 120 -158 155 l-51 23 -3079
-2 c-2965 -3 -3080 -4 -3113 -21 -50 -28 -120 -96 -142 -139 -11 -21 -26 -38
-35 -38 -36 0 -362 138 -529 224 -254 131 -408 232 -592 389 -167 142 -263
261 -343 428 -152 317 -44 592 332 842 246 164 463 249 935 367 l232 58 72
-69 c99 -95 217 -154 352 -177 90 -15 111 -15 329 1 245 19 901 81 1273 121
121 12 222 22 224 20 2 -2 -103 -344 -233 -761 -131 -421 -236 -775 -236 -795
0 -77 46 -161 116 -209 76 -52 122 -53 382 -13 125 19 241 39 258 44 17 6 44
25 61 43 21 22 1338 1731 1469 1905 1 2 186 30 411 62 866 125 980 148 1092
219 106 68 210 209 247 336 22 78 22 210 0 294 -19 69 -80 199 -129 271 -154
229 -404 392 -684 446 -169 33 -286 25 -748 -54 l-409 -70 -791 546 c-434 300
-878 606 -985 680 -107 74 -213 143 -235 153 -53 24 -81 23 -332 -16z m1580
-1264 c205 -142 264 -188 250 -193 -42 -16 -925 -169 -933 -162 -34 37 -871
1257 -865 1262 3 4 48 14 98 22 l92 15 545 -379 c300 -208 666 -462 813 -565z
m1927 -331 c202 -68 386 -234 453 -408 51 -129 -11 -271 -138 -317 -49 -18
-352 -65 -951 -150 -436 -61 -460 -66 -499 -92 -27 -20 -271 -329 -747 -948
-389 -506 -720 -935 -735 -952 -25 -29 -38 -34 -122 -48 -51 -9 -95 -14 -98
-11 -3 2 109 366 247 808 208 665 251 810 247 846 -7 61 -49 119 -105 145
l-47 20 -435 -47 c-769 -83 -1441 -146 -1562 -146 -115 0 -221 64 -275 167
-37 69 -297 702 -292 708 4 4 217 41 270 47 22 3 43 -17 147 -138 130 -152
189 -196 282 -209 49 -7 61 -4 759 145 856 182 1667 336 2701 511 564 95 589
99 710 95 95 -3 141 -9 190 -26z m1280 -3728 c53 -26 61 -63 58 -266 l-3 -171
-837 -3 -838 -2 0 -1030 0 -1030 -120 0 -120 0 0 1228 c0 1147 2 1228 18 1248
9 12 26 26 37 32 14 8 278 11 895 12 813 0 877 -1 910 -18z m-2094 -29 c-3
-21 -6 -586 -6 -1255 l0 -1218 -1969 0 -1970 0 -28 24 -28 24 -3 1041 c-1 573
0 1041 4 1041 3 0 81 -16 173 -35 312 -64 625 -112 916 -139 374 -36 480 -40
970 -40 524 0 563 3 585 44 16 30 12 76 -9 101 -18 23 -24 24 -242 31 -651 22
-1161 77 -1672 179 -250 50 -686 166 -710 189 -5 4 4 17 19 29 l27 21 1975 0
1975 0 -7 -37z m2989 -669 c11 -15 23 -36 27 -48 3 -11 6 -171 7 -353 l1 -333
-1155 0 -1155 0 0 380 0 380 1128 0 1127 0 20 -26z m-1435 -1389 l0 -415 -420
0 -420 0 0 415 0 415 420 0 420 0 0 -415z m1848 403 c9 -9 12 -111 12 -399 0
-339 -2 -390 -16 -403 -14 -14 -100 -16 -803 -16 -599 0 -790 3 -799 12 -9 9
-12 115 -12 415 l0 403 803 0 c611 0 806 -3 815 -12z"/>
</g>
</svg>
