<svg version="1.0" xmlns="http://www.w3.org/2000/svg"
 width="100" height="100" viewBox="0 0 1200 1200"
 preserveAspectRatio="xMidYMid meet">

<g transform="translate(0.000000,1200.000000) scale(0.100000,-0.100000)"
fill="currentColor" stroke="none">
<path d="M4095 10450 c-1001 -395 -1855 -733 -1898 -750 -59 -24 -83 -40 -98
-64 -26 -42 -24 -95 4 -137 21 -32 70 -52 827 -350 l805 -317 3 -669 2 -668
-51 -70 c-200 -275 -354 -616 -433 -960 -37 -164 -56 -310 -66 -505 -5 -96
-10 -1333 -10 -2749 l0 -2574 108 6 c701 41 1340 481 1833 1263 147 233 350
671 437 944 170 534 272 1149 272 1647 l0 113 125 0 125 0 0 -135 c0 -405 -55
-871 -146 -1245 -158 -643 -446 -1247 -818 -1711 -319 -397 -585 -624 -950
-809 -177 -90 -262 -126 -446 -192 l-135 -48 1330 4 c1457 3 1384 0 1675 64
352 78 687 233 986 456 137 102 380 338 491 476 218 272 401 611 512 950 45
138 98 364 123 525 22 138 22 162 25 1351 l4 1211 42 5 c33 4 120 54 407 233
201 125 380 242 398 261 24 26 32 43 32 71 0 21 -37 159 -81 307 -80 263 -82
269 -65 295 10 14 29 51 44 81 35 73 43 211 17 291 -36 112 -122 211 -221 255
l-54 24 2 961 3 961 270 107 c243 96 272 109 292 140 40 59 23 145 -35 175
-15 7 -873 347 -1908 755 -1431 564 -1890 741 -1920 740 -26 -1 -630 -234
-1859 -719z m3571 -207 c932 -367 1694 -670 1694 -673 0 -5 -334 -138 -1165
-466 -7 -3 -15 26 -22 71 -14 95 -50 170 -121 246 -146 158 -402 282 -782 379
-425 107 -1029 162 -1542 140 -724 -31 -1282 -151 -1645 -352 -107 -59 -244
-179 -286 -251 -32 -55 -57 -139 -57 -195 0 -31 -4 -43 -12 -39 -603 236
-1168 462 -1168 467 0 8 3370 1337 3394 1339 10 0 781 -299 1712 -666z m-1101
-577 c484 -55 868 -153 1115 -283 106 -55 179 -111 216 -165 l29 -41 3 -334
c1 -183 1 -333 -2 -333 -3 0 -60 22 -128 49 -477 190 -1116 291 -1838 291
-728 0 -1405 -109 -1865 -301 -52 -21 -97 -39 -100 -39 -3 0 -5 146 -5 325 0
301 1 329 19 363 72 140 383 287 806 380 220 49 425 78 745 106 25 2 230 2
455 1 296 -2 449 -7 550 -19z m2435 -1425 l0 -908 -63 -31 c-230 -114 -304
-418 -150 -620 l26 -34 -44 -249 c-24 -136 -45 -246 -47 -244 -3 2 -13 61 -23
131 -61 418 -208 804 -436 1143 l-83 123 2 640 3 640 400 158 c220 88 403 159
408 159 4 1 7 -408 7 -908z m-2640 349 c601 -37 1106 -145 1463 -313 l107 -50
0 -144 0 -143 -52 31 c-314 185 -759 301 -1388 361 -205 19 -931 16 -1129 -5
-379 -41 -652 -95 -911 -179 -145 -47 -354 -139 -427 -188 l-33 -22 0 144 0
145 108 50 c356 168 851 275 1437 312 191 12 636 12 825 1z m930 -1177 c295
-58 569 -285 683 -563 59 -144 71 -208 72 -370 0 -203 -31 -309 -137 -471
-219 -332 -690 -599 -1248 -708 -238 -47 -342 -56 -645 -56 -303 0 -408 10
-645 56 -380 74 -735 229 -981 427 -199 160 -329 349 -380 551 -19 74 -21 103
-16 245 6 181 17 235 78 364 116 250 342 438 614 512 59 16 119 23 230 27 136
4 159 2 246 -20 178 -46 297 -115 437 -251 164 -160 266 -347 308 -564 8 -41
14 -91 14 -113 l0 -39 -115 0 c-129 0 -118 -8 -129 92 -10 89 -64 215 -139
328 -44 65 -184 199 -250 239 -161 95 -309 121 -485 85 -176 -36 -338 -138
-448 -284 -87 -114 -141 -302 -131 -455 11 -179 69 -296 222 -451 202 -203
487 -349 860 -439 472 -114 961 -112 1442 6 336 82 623 226 819 412 172 162
246 316 246 507 0 132 -16 210 -66 315 -55 116 -128 201 -236 274 -207 139
-466 169 -674 77 -244 -108 -456 -392 -483 -647 l-6 -59 -119 0 -120 0 6 38
c3 20 8 64 11 97 21 192 154 439 320 594 242 225 527 308 845 244z m1910 -333
c59 -30 90 -82 90 -151 0 -201 -278 -233 -330 -39 -16 58 3 116 51 162 54 52
123 62 189 28z m-4077 -100 c195 -73 323 -244 335 -449 9 -153 -38 -280 -141
-385 -246 -251 -660 -187 -816 125 -51 102 -68 197 -52 299 31 202 180 368
382 425 75 21 215 14 292 -15z m2088 12 c180 -47 330 -206 368 -390 55 -266
-115 -534 -380 -597 -361 -85 -693 236 -618 597 38 184 199 349 382 394 73 17
171 16 248 -4z m2069 -649 c29 -98 55 -183 57 -189 3 -8 -282 -194 -393 -257
-9 -5 -8 12 1 61 7 37 32 176 55 309 l43 242 81 4 c45 1 86 4 92 5 6 1 34 -78
64 -175z m-2998 -83 c65 -18 86 -76 52 -143 -9 -18 -64 -113 -123 -211 -107
-182 -137 -216 -189 -216 -43 0 -83 31 -126 98 -108 167 -206 338 -212 369 -8
44 18 83 67 100 43 15 478 17 531 3z"/>
<path d="M4832 6744 c-59 -30 -107 -80 -135 -143 -25 -57 -20 -166 11 -227 37
-72 111 -125 201 -145 94 -20 214 32 270 118 99 148 38 337 -132 411 -51 22
-157 15 -215 -14z"/>
<path d="M6970 6749 c-182 -82 -217 -323 -67 -456 137 -119 347 -73 428 95 30
62 30 160 -1 225 -28 58 -104 129 -158 145 -61 18 -150 15 -202 -9z"/>
</g>
</svg>
