<svg version="1.0" xmlns="http://www.w3.org/2000/svg"
 width="100" height="100" viewBox="0 0 1200 1200"
 preserveAspectRatio="xMidYMid meet">

<g transform="translate(0.000000,1200.000000) scale(0.100000,-0.100000)"
fill="currentColor" stroke="none">
<path d="M6380 9572 c-37 -5 -93 -25 -605 -212 -826 -302 -2086 -761 -2200
-801 -192 -69 -266 -129 -334 -269 -35 -72 -36 -79 -35 -185 l0 -110 253 -690
c139 -379 570 -1563 958 -2630 387 -1067 718 -1967 733 -2001 33 -69 121 -159
190 -194 104 -53 236 -68 335 -38 52 16 222 78 1470 533 418 153 814 297 880
320 271 97 506 185 545 205 93 48 177 151 211 261 22 72 25 182 5 254 -7 28
-93 268 -191 535 -97 267 -525 1442 -950 2611 -425 1170 -783 2146 -795 2169
-49 96 -168 195 -271 224 -54 16 -152 24 -199 18z m-867 -721 c12 -30 16 -55
11 -60 -11 -10 -454 -171 -470 -171 -13 0 -50 113 -38 118 198 75 461 170 468
168 5 -1 18 -26 29 -55z m1091 -164 c62 -174 439 -1218 1327 -3676 176 -486
318 -886 315 -888 -12 -12 -2762 -1000 -2768 -995 -3 4 -85 225 -181 492 -96
267 -360 996 -585 1620 -226 624 -532 1472 -681 1884 -149 412 -269 752 -266
754 4 4 2756 1001 2765 1001 3 1 36 -86 74 -192z m-1883 -32 c60 -32 86 -113
55 -174 -19 -36 -51 -57 -101 -65 -50 -9 -101 21 -128 74 -55 107 65 221 174
165z m2761 -5214 c11 -29 16 -56 12 -60 -5 -5 -110 -44 -234 -89 -124 -44
-337 -122 -473 -171 -137 -50 -250 -91 -252 -91 -9 0 -45 114 -38 120 4 4 103
41 218 82 116 42 327 119 470 172 143 52 264 94 269 92 5 -1 17 -26 28 -55z"/>
<path d="M5710 6877 c-59 -17 -115 -59 -145 -112 -30 -51 -22 -10 -186 -915
-99 -552 -101 -573 -55 -653 46 -78 150 -130 240 -120 22 2 336 111 698 242
490 177 669 246 696 268 99 80 122 259 44 347 -10 10 -84 75 -167 144 -82 70
-244 205 -360 302 -115 97 -286 241 -380 319 -93 79 -189 152 -212 162 -56 26
-118 31 -173 16z m170 -289 c30 -21 42 -46 132 -293 105 -289 110 -315 67
-361 -43 -45 -120 -38 -151 14 -29 49 -198 529 -198 562 0 41 14 66 48 84 38
21 64 19 102 -6z m313 -804 c134 -64 84 -264 -66 -264 -74 0 -143 80 -132 153
15 101 108 154 198 111z"/>
<path d="M8467 7824 c-16 -31 -27 -57 -25 -59 2 -1 32 -19 68 -40 158 -91 309
-231 403 -372 213 -320 256 -731 113 -1078 l-24 -60 50 -22 c28 -13 56 -23 63
-23 14 0 78 183 100 285 8 39 18 129 21 200 13 273 -62 538 -218 776 -64 95
-205 246 -291 308 -58 42 -217 141 -227 141 -3 0 -18 -25 -33 -56z"/>
<path d="M8251 7360 c-17 -28 -31 -54 -31 -58 0 -4 24 -20 53 -36 81 -45 195
-167 244 -261 76 -147 93 -339 44 -495 -11 -36 -21 -70 -21 -75 0 -11 107 -52
113 -44 12 15 48 136 58 193 16 96 6 254 -21 341 -63 199 -187 355 -369 463
l-39 23 -31 -51z"/>
<path d="M2860 5785 c-77 -180 -115 -455 -89 -652 52 -401 293 -763 639 -961
51 -29 93 -51 95 -50 17 26 55 99 55 106 0 6 -24 22 -52 37 -137 71 -291 204
-393 340 -56 74 -135 234 -169 340 -78 242 -70 511 22 762 l30 81 -48 21 c-27
12 -54 21 -60 21 -6 0 -19 -20 -30 -45z"/>
<path d="M3322 5543 c-94 -292 -21 -594 194 -807 48 -47 91 -79 166 -125 l37
-22 30 48 c17 26 31 53 31 58 0 6 -24 23 -53 39 -28 16 -86 64 -128 106 -184
186 -238 456 -140 703 9 23 8 29 -7 34 -9 3 -32 12 -51 19 -18 8 -39 14 -45
14 -7 0 -22 -30 -34 -67z"/>
</g>
</svg>
