<svg version="1.0" xmlns="http://www.w3.org/2000/svg"
 width="100" height="100" viewBox="0 0 1200 1200"
 preserveAspectRatio="xMidYMid meet">

<g transform="translate(0.000000,1200.000000) scale(0.100000,-0.100000)"
fill="currentColor" stroke="none">
<path d="M5578 10121 c-116 -38 -203 -113 -256 -221 l-27 -55 -3 -286 -3 -286
-77 -17 c-217 -50 -532 -176 -761 -304 l-114 -63 -182 180 c-156 155 -191 185
-250 213 -126 59 -287 48 -407 -28 -53 -34 -552 -518 -590 -572 -87 -127 -90
-302 -8 -447 17 -28 99 -120 190 -210 88 -88 160 -163 160 -167 0 -4 -18 -37
-40 -73 -127 -208 -276 -565 -340 -812 l-11 -43 -237 0 c-130 0 -257 -5 -281
-11 -121 -27 -232 -117 -285 -228 l-31 -66 -3 -413 c-2 -347 0 -422 12 -465
39 -131 128 -231 248 -280 48 -19 77 -22 322 -27 l269 -5 33 -126 c60 -227
173 -504 292 -709 l60 -105 -183 -185 c-204 -205 -239 -258 -251 -377 -9 -81
17 -194 59 -261 18 -28 153 -175 300 -326 240 -246 276 -279 335 -308 62 -30
75 -32 172 -33 98 0 109 2 176 33 63 30 93 56 285 248 l214 214 -95 95 c-52
52 -99 95 -105 95 -6 0 -98 -88 -205 -195 -273 -273 -260 -272 -480 -48 -319
324 -357 367 -368 406 -19 70 -7 87 219 312 115 116 220 228 231 249 30 58 20
95 -57 221 -173 283 -285 558 -354 870 -35 153 -45 176 -94 202 -28 16 -69 18
-357 21 -318 3 -325 4 -349 25 -49 45 -51 62 -51 438 0 400 0 403 74 439 40
19 61 20 342 20 384 0 367 -8 417 201 74 304 212 628 377 883 33 51 63 106 66
123 13 66 -8 95 -231 316 -227 225 -238 241 -221 314 4 19 81 101 229 246 122
120 244 236 270 257 51 41 99 57 144 45 18 -4 108 -86 248 -225 121 -120 230
-223 242 -229 48 -24 95 -13 194 45 335 199 636 320 944 379 42 8 91 24 110
35 63 39 65 52 65 405 0 344 1 353 57 391 26 18 51 19 405 19 l378 0 32 -33
33 -32 5 -333 c4 -296 7 -336 23 -360 26 -40 56 -56 149 -78 319 -76 592 -189
887 -366 125 -76 168 -91 218 -78 18 4 102 79 233 209 113 112 216 210 230
220 14 9 45 16 72 16 59 0 57 2 353 -306 224 -232 247 -265 231 -331 -5 -18
-86 -107 -237 -259 -280 -281 -273 -263 -159 -454 177 -299 288 -574 355 -880
31 -143 54 -183 113 -200 22 -6 163 -10 345 -10 346 0 352 -1 387 -70 19 -37
20 -58 20 -390 0 -389 -2 -403 -62 -440 -31 -19 -50 -20 -331 -20 -393 0 -389
2 -437 -192 -80 -320 -199 -603 -366 -870 -126 -201 -132 -182 146 -463 228
-230 240 -247 225 -315 -5 -21 -75 -96 -261 -277 -141 -137 -267 -253 -282
-260 -15 -7 -47 -12 -71 -13 l-45 0 -211 210 c-116 116 -215 210 -220 210 -6
0 -53 -43 -105 -95 l-95 -95 224 -224 c244 -244 278 -269 395 -287 88 -14 175
2 264 48 62 33 112 77 347 306 244 238 278 276 307 335 31 63 33 74 33 172 0
98 -2 110 -33 176 -29 61 -55 92 -203 240 -93 93 -169 173 -169 177 0 5 29 59
64 121 119 207 223 454 290 683 l34 118 253 6 c227 4 260 7 306 26 127 51 194
111 247 222 l31 66 3 399 c2 254 -1 417 -8 448 -38 177 -177 304 -361 328 -40
5 -169 10 -286 10 l-212 0 -11 43 c-75 293 -170 533 -307 780 l-66 119 180
181 c99 100 189 198 200 217 72 121 67 307 -9 432 -13 20 -144 160 -291 312
-230 236 -277 280 -330 306 -124 61 -245 61 -374 0 -55 -25 -94 -58 -237 -200
l-171 -169 -50 31 c-185 116 -510 257 -747 326 l-133 38 -5 275 c-5 256 -7
278 -29 332 -32 81 -115 168 -199 209 l-67 33 -415 2 c-381 2 -420 1 -472 -16z"/>
<path d="M5629 8295 c-308 -50 -537 -129 -777 -265 -637 -362 -1032 -984
-1093 -1720 -45 -549 125 -1096 481 -1545 35 -44 157 -172 270 -285 258 -256
335 -366 420 -605 27 -77 84 -297 77 -300 -1 0 -19 -13 -39 -28 -139 -102
-200 -267 -183 -490 14 -192 97 -323 251 -401 29 -14 57 -26 63 -26 14 0 14 1
-5 -51 -21 -57 -30 -264 -15 -344 32 -175 163 -315 336 -360 88 -22 1082 -22
1170 0 173 45 304 185 336 360 15 80 6 287 -15 344 -19 52 -19 51 -5 51 6 0
34 12 63 26 154 78 237 209 251 401 17 223 -44 388 -183 490 -20 15 -38 28
-39 28 -7 3 50 223 77 300 85 239 162 349 420 605 113 113 235 241 270 285
414 522 573 1172 444 1813 -160 793 -746 1425 -1531 1652 -218 63 -360 82
-643 86 -232 3 -268 1 -401 -21z m711 -280 c366 -62 674 -197 940 -412 42 -34
121 -108 175 -165 267 -278 434 -629 489 -1026 21 -147 21 -426 1 -552 -52
-319 -177 -613 -373 -876 -37 -49 -157 -179 -268 -289 -111 -110 -224 -229
-252 -265 -158 -207 -271 -464 -322 -732 l-11 -58 -135 0 -134 0 0 745 0 745
178 0 c187 0 240 9 327 52 103 52 205 165 240 266 9 26 19 83 22 127 10 157
-31 270 -137 376 -106 105 -219 148 -385 148 -166 0 -279 -43 -385 -148 -107
-106 -138 -190 -147 -398 l-6 -143 -152 0 -152 0 -6 143 c-9 208 -40 292 -147
398 -105 103 -219 148 -380 148 -273 1 -478 -162 -521 -412 -34 -202 76 -413
261 -504 94 -46 135 -52 328 -53 l172 0 0 -747 0 -748 -137 3 c-76 2 -139 4
-140 6 -1 1 -11 45 -22 98 -37 183 -116 382 -222 555 -73 120 -165 228 -319
375 -230 220 -349 367 -463 578 -89 163 -168 403 -202 610 -20 126 -20 405 1
552 86 623 450 1130 1020 1419 171 87 420 162 619 188 44 6 94 13 110 15 71
10 444 -3 535 -19z m-885 -2228 c21 -12 53 -42 70 -65 29 -43 30 -47 33 -178
l4 -134 -159 0 c-137 0 -164 3 -203 21 -84 38 -120 93 -120 184 0 64 14 96 62
142 46 45 70 52 178 52 81 1 101 -3 135 -22z m1376 3 c81 -42 125 -146 99
-233 -16 -54 -83 -121 -135 -136 -22 -6 -109 -11 -193 -11 l-154 0 4 134 c3
131 4 135 33 178 50 70 92 88 208 88 79 0 106 -4 138 -20z m-671 -1405 l0
-745 -155 0 -155 0 0 745 0 745 155 0 155 0 0 -745z m697 -1061 c62 -46 73
-76 73 -204 0 -113 -1 -118 -29 -157 -55 -76 -13 -73 -901 -73 -888 0 -846 -3
-901 73 -28 39 -29 44 -29 154 0 121 8 149 52 190 12 12 34 26 48 32 16 6 313
9 842 8 811 -2 817 -2 845 -23z m-342 -725 c46 -13 82 -39 107 -77 15 -22 18
-49 18 -148 0 -118 -1 -121 -30 -161 -51 -70 -36 -68 -610 -68 -574 0 -559 -2
-610 68 -29 40 -30 43 -30 161 0 99 3 126 18 148 24 37 62 65 103 76 49 15
983 15 1034 1z"/>
</g>
</svg>
