<svg version="1.0" xmlns="http://www.w3.org/2000/svg"
 width="100" height="100" viewBox="0 0 1200 1200"
 preserveAspectRatio="xMidYMid meet">

<g transform="translate(0.000000,1200.000000) scale(0.100000,-0.100000)"
fill="currentColor" stroke="none">
<path d="M8330 9863 c-171 -27 -331 -93 -465 -189 -78 -56 -212 -193 -264
-270 -62 -93 -120 -223 -148 -337 -33 -132 -37 -349 -9 -467 48 -198 135 -369
248 -487 l40 -41 -63 -84 c-35 -45 -152 -199 -261 -341 -109 -142 -198 -262
-198 -265 0 -6 109 -90 137 -106 7 -3 59 58 134 157 286 379 374 492 383 499
6 4 36 -7 66 -24 182 -104 341 -147 541 -148 354 0 678 171 870 460 132 200
179 354 181 595 1 194 -28 324 -107 479 -184 361 -542 579 -942 575 -65 -1
-129 -4 -143 -6z m232 -419 c25 -8 64 -31 87 -51 146 -124 120 -355 -50 -448
-101 -54 -239 -34 -321 48 -105 106 -104 292 4 395 69 65 185 89 280 56z m164
-606 c109 -29 172 -64 237 -132 84 -87 145 -252 112 -303 -24 -36 -122 -110
-195 -147 -154 -78 -262 -101 -443 -93 -218 9 -392 76 -543 209 -39 35 -43 67
-20 156 62 231 278 348 626 338 102 -3 157 -10 226 -28z"/>
<path d="M4987 9569 c-285 -39 -536 -219 -666 -476 -69 -139 -86 -214 -85
-383 1 -127 4 -156 28 -233 115 -379 444 -630 826 -630 393 0 733 258 842 640
30 104 32 322 4 426 -57 214 -186 399 -361 515 -170 115 -394 168 -588 141z"/>
<path d="M6245 7389 c-256 -45 -435 -122 -621 -265 -241 -186 -411 -453 -477
-749 -41 -188 -47 -297 -22 -462 45 -302 173 -553 389 -767 189 -186 401 -296
680 -354 124 -25 393 -22 511 7 273 66 458 164 630 336 251 250 395 598 395
954 0 357 -133 683 -377 924 -211 208 -428 320 -723 372 -92 16 -304 18 -385
4z m247 -533 c85 -19 114 -34 186 -101 41 -37 68 -74 88 -117 26 -56 29 -74
29 -163 0 -89 -3 -106 -28 -157 -41 -83 -104 -149 -183 -189 -64 -32 -74 -34
-168 -34 -88 0 -108 3 -158 27 -76 35 -148 104 -189 181 -33 60 -34 66 -34
172 0 101 2 115 28 168 54 109 155 187 277 213 72 16 74 16 152 0z m137 -796
c148 -18 246 -64 336 -156 74 -75 135 -215 135 -310 0 -37 -5 -45 -47 -81
-128 -107 -234 -165 -383 -210 -75 -22 -103 -25 -235 -25 -166 0 -258 17 -398
71 -88 33 -224 121 -278 178 -36 38 -37 38 -29 98 28 216 201 394 412 426 35
5 88 13 118 18 67 12 242 7 369 -9z"/>
<path d="M2955 7184 c-124 -12 -274 -54 -380 -107 -180 -89 -359 -262 -455
-439 -188 -349 -171 -755 44 -1083 136 -206 350 -372 561 -433 121 -35 186
-44 320 -45 104 -1 148 3 220 22 239 61 393 147 545 308 138 145 233 329 264
515 l7 38 417 2 417 3 0 95 0 95 -410 5 -410 5 -2 25 c-22 223 -97 428 -213
585 -133 179 -361 328 -590 383 -83 20 -256 33 -335 26z m177 -414 c133 -50
207 -196 169 -336 -28 -103 -148 -194 -256 -194 -131 0 -244 90 -275 220 -23
96 25 216 110 275 83 57 163 69 252 35z m99 -584 c182 -14 341 -146 393 -325
9 -30 16 -72 16 -93 0 -34 -6 -42 -65 -91 -70 -58 -192 -124 -295 -158 -81
-28 -307 -38 -415 -19 -160 28 -326 112 -423 213 l-33 34 10 63 c25 155 147
297 294 341 18 6 77 19 132 29 98 19 196 21 386 6z"/>
<path d="M9025 6934 c-63 -11 -153 -37 -217 -64 -240 -102 -430 -325 -499
-585 -17 -62 -21 -109 -21 -210 0 -101 4 -148 21 -210 107 -402 474 -673 881
-652 127 7 208 27 318 78 254 117 431 340 489 614 11 50 14 109 10 205 -3 119
-8 146 -37 232 -78 234 -238 413 -462 517 -45 22 -110 47 -143 56 -60 16 -280
28 -340 19z"/>
<path d="M7273 4862 c-34 -26 -62 -51 -63 -55 0 -7 45 -70 195 -272 96 -129
309 -420 347 -474 l38 -55 -73 -70 c-208 -201 -318 -461 -318 -751 0 -353 164
-663 467 -881 93 -66 192 -111 322 -145 102 -26 135 -30 257 -31 155 0 255 19
410 82 554 221 807 902 538 1445 -99 199 -287 391 -479 488 -278 141 -634 140
-912 -2 -41 -21 -41 -21 -59 -2 -10 11 -144 189 -298 395 -154 206 -287 375
-295 375 -8 0 -43 -21 -77 -47z m1289 -1038 c91 -31 168 -127 184 -230 8 -55
-17 -141 -59 -195 -17 -23 -57 -56 -87 -73 -101 -57 -235 -38 -319 45 -84 83
-108 232 -54 330 61 113 208 167 335 123z m153 -594 c179 -36 336 -201 352
-373 l6 -64 -64 -52 c-118 -95 -277 -164 -423 -182 -95 -13 -254 -4 -346 18
-121 29 -275 111 -358 190 -46 43 -46 46 -20 153 43 175 198 296 411 320 87
10 372 4 442 -10z"/>
<path d="M4755 4414 c-160 -34 -306 -116 -430 -239 -128 -128 -206 -273 -241
-445 -22 -109 -15 -292 15 -395 85 -293 321 -525 617 -607 111 -30 324 -31
437 0 297 81 538 322 619 619 30 112 30 325 -1 437 -88 325 -350 568 -679 632
-93 18 -246 17 -337 -2z"/>
</g>
</svg>
