<svg version="1.0" xmlns="http://www.w3.org/2000/svg"
 width="100" height="100" viewBox="0 0 1200 1200"
 preserveAspectRatio="xMidYMid meet">

<g transform="translate(0.000000,1200.000000) scale(0.100000,-0.100000)"
fill="currentColor" stroke="none">
<path d="M3345 9858 c-23 -18 -992 -1086 -1162 -1281 -30 -34 -55 -74 -58 -91
-3 -17 -4 -1441 -3 -3164 l3 -3134 37 -34 38 -34 3800 0 3800 0 38 34 37 34 3
3134 c1 1723 0 3147 -3 3164 -3 17 -28 57 -58 91 -170 195 -1139 1263 -1162
1281 l-28 22 -2627 0 -2627 0 -28 -22z m1975 -251 c0 -7 -45 -237 -100 -512
-55 -275 -100 -501 -100 -502 0 -2 -581 -3 -1290 -3 l-1290 0 462 514 463 515
928 0 c746 1 927 -1 927 -12z m1191 -482 c54 -269 107 -519 118 -555 19 -59
21 -90 21 -318 l0 -253 -38 31 c-47 38 -96 47 -142 27 -19 -8 -74 -49 -123
-91 l-87 -77 -94 85 c-155 139 -187 138 -328 -7 l-98 -101 -98 96 c-55 54
-110 100 -125 103 -42 11 -88 -2 -131 -37 l-39 -31 6 264 c6 257 7 268 42 419
19 85 69 326 111 535 41 209 77 386 79 393 4 10 92 12 416 10 l412 -3 98 -490z
m2487 -21 l462 -514 -1290 0 c-709 0 -1290 1 -1290 3 0 1 -45 227 -100 502
-55 275 -100 505 -100 512 0 11 181 13 928 12 l927 0 463 -515z m-3906 -1118
c3 -330 4 -346 24 -373 30 -42 87 -67 132 -58 29 5 58 28 134 103 l98 96 89
-87 c155 -153 188 -153 337 -1 l102 103 78 -70 c95 -86 130 -109 166 -109 52
0 61 5 241 158 16 14 26 7 120 -85 80 -80 110 -103 139 -108 45 -9 102 16 132
58 20 27 21 43 24 373 l3 344 1355 0 1354 0 0 -2975 0 -2975 -1355 0 -1355 0
0 316 c0 201 -4 331 -11 360 -20 78 -95 114 -175 84 -15 -6 -69 -51 -119 -100
-50 -50 -94 -90 -97 -90 -4 0 -46 34 -95 75 -140 119 -172 118 -315 -6 l-92
-80 -96 96 c-52 53 -104 101 -114 107 -10 6 -41 8 -68 6 -48 -5 -54 -10 -147
-102 l-98 -98 -90 91 c-49 49 -102 95 -117 101 -80 30 -155 -6 -175 -84 -7
-29 -11 -159 -11 -360 l0 -316 -1355 0 -1355 0 0 2975 0 2975 1354 0 1355 0 3
-344z m743 -5246 c142 -138 174 -143 290 -42 137 118 133 116 153 101 9 -8 46
-39 82 -69 92 -80 110 -90 153 -90 44 0 70 12 110 48 l27 26 0 -167 0 -167
-650 0 -650 0 0 166 0 166 40 -36 c34 -31 47 -36 89 -36 57 0 91 22 191 124
35 36 67 66 69 66 3 0 46 -40 96 -90z"/>
<path d="M6102 7030 c-18 -4 -42 -16 -53 -26 -52 -47 -49 47 -49 -1716 0
-1575 1 -1645 18 -1678 10 -19 34 -43 53 -52 32 -17 129 -18 1609 -18 1480 0
1577 1 1609 18 19 9 44 30 55 45 l21 28 0 1657 c0 1586 -1 1658 -18 1684 -10
15 -30 35 -45 45 -26 17 -97 18 -1597 20 -863 0 -1585 -2 -1603 -7z m2998
-1745 l0 -1485 -1420 0 -1420 0 0 1485 0 1485 1420 0 1420 0 0 -1485z"/>
<path d="M6520 6390 l0 -130 1165 0 1165 0 0 130 0 130 -1165 0 -1165 0 0
-130z"/>
<path d="M6520 5870 l0 -130 710 0 710 0 0 130 0 130 -710 0 -710 0 0 -130z"/>
<path d="M8200 5870 l0 -130 325 0 325 0 0 130 0 130 -325 0 -325 0 0 -130z"/>
<path d="M6520 4515 l0 -455 130 0 130 0 0 455 0 455 -130 0 -130 0 0 -455z"/>
<path d="M7030 4515 l0 -455 130 0 130 0 0 455 0 455 -130 0 -130 0 0 -455z"/>
<path d="M7550 4515 l0 -455 130 0 130 0 0 455 0 455 -130 0 -130 0 0 -455z"/>
<path d="M8070 4515 l0 -455 130 0 130 0 0 455 0 455 -130 0 -130 0 0 -455z"/>
<path d="M8590 4515 l0 -455 130 0 130 0 0 455 0 455 -130 0 -130 0 0 -455z"/>
</g>
</svg>
