<svg width="100pt" height="100pt" version="1.1" viewBox="0 0 700 700" xmlns="http://www.w3.org/2000/svg">
 <g>
  <path d="m101.11 441.78c12.148-0.25391 23.957 4.0156 33.137 11.977 13.953 11.27 31.375 17.371 49.309 17.27 18.203 0.28125 35.93-5.8281 50.09-17.27 9.1602-7.9883 20.98-12.258 33.133-11.977 12.105-0.28906 23.879 3.9883 32.977 11.977 14.305 11.18 31.938 17.25 50.09 17.25s35.785-6.0703 50.09-17.25c9.3047-7.7422 21.027-11.98 33.133-11.98 12.105 0 23.828 4.2383 33.133 11.98 14.305 11.18 31.938 17.25 50.09 17.25 18.152 0 35.785-6.0703 50.09-17.25 9-7.8438 20.57-12.105 32.512-11.977 4.8906-0.50391 9.2148-3.4102 11.527-7.7539 2.3125-4.3398 2.3125-9.5508 0-13.891-2.3125-4.3438-6.6367-7.25-11.527-7.7539-18.184-0.16797-35.871 5.9297-50.09 17.266-6.8906 5.9453-15.289 9.875-24.266 11.355-0.18359-16.945-5.3008-33.473-14.719-47.559-9.418-14.09-22.738-25.129-38.328-31.773 9.6445-33.289 25.977-76.844 46.668-98 29.555 15.555 22.711 53.668 21.777 58.332-0.8125 3.957 0.046875 8.0703 2.375 11.371 2.3281 3.3008 5.9141 5.4883 9.9141 6.0508h3.2656c3.3008-0.15234 6.4648-1.3477 9.0352-3.418 2.5742-2.0703 4.4219-4.9023 5.2773-8.0938 5.4727-24.547 0.57422-50.266-13.535-71.09 12.672 5.2305 23.504 14.109 31.113 25.512 2.6719 4.1953 7.3125 6.7227 12.289 6.6914 2.8047-0.050782 5.5469-0.85547 7.9336-2.3359 3.2578-2.1016 5.5508-5.4141 6.3672-9.207s0.09375-7.7539-2.0117-11.016c-13.535-21.062-35.137-35.629-59.734-40.285 12.625-5.3086 26.547-6.7188 39.977-4.0469 5.1133 1.1133 10.43-0.58984 13.949-4.4609 3.5195-3.8711 4.707-9.3281 3.1133-14.312-1.5938-4.9805-5.7266-8.7383-10.84-9.8477-23.09-4.9961-47.215-1.0508-67.512 11.043-8.6055-21.953-25.309-39.773-46.664-49.777-3.5312-1.8164-7.6445-2.1172-11.398-0.83984-3.7578 1.2773-6.832 4.0273-8.5234 7.6172-1.6875 3.5898-1.8477 7.7109-0.4375 11.422 1.4102 3.707 4.2656 6.6836 7.9141 8.2461 15.371 7.2344 27.117 20.441 32.512 36.555-23.59-11.094-51.109-9.9883-73.734 2.957-4.5312 2.7773-7.2344 7.7617-7.0898 13.074 0.14062 5.3125 3.1055 10.145 7.7773 12.676 4.6719 2.5352 10.34 2.3828 14.867-0.39453 7.5117-4.375 16.043-6.6758 24.734-6.6758 8.6875 0 17.223 2.3008 24.734 6.6758-25.199 28-42.312 75.91-51.332 108.89l-0.003906-0.003907c-1.8633-0.15234-3.7344-0.15234-5.5977 0-23.078 0.042969-45.195 9.2383-61.496 25.57-16.305 16.332-25.461 38.465-25.461 61.543h-1.7109c-12.137 0.30859-23.934-4.0312-32.977-12.133-14.305-11.18-31.938-17.25-50.09-17.25s-35.785 6.0703-50.09 17.25c-9.1055 8.0977-20.949 12.434-33.133 12.133-12.133 0.27734-23.918-4.0586-32.977-12.133-14.055-11.348-31.562-17.551-49.625-17.578-4.8906 0.50391-9.2148 3.4102-11.527 7.7539-2.3125 4.3398-2.3125 9.5508 0 13.891 2.3125 4.3438 6.6367 7.25 11.527 7.7539zm335.69-57.555h1.8711c9.3164-0.03125 18.5 2.2109 26.754 6.5312 17.699 9.1797 29.449 26.801 31.113 46.668-4.4375-2.1016-8.6133-4.7109-12.445-7.7773-14.305-11.176-31.938-17.246-50.09-17.246s-35.785 6.0703-50.09 17.246l-1.5547 1.2461c2.3789-12.719 8.9922-24.254 18.77-32.727 9.7734-8.4766 22.129-13.391 35.055-13.941z"/>
  <path d="m598.89 485.8c-18.203-0.28516-35.93 5.8242-50.09 17.266-9.3047 7.7422-21.027 11.984-33.133 11.984s-23.828-4.2422-33.133-11.984c-14.305-11.176-31.938-17.246-50.09-17.246-18.152 0-35.785 6.0703-50.09 17.246-9.2812 7.7305-20.977 11.965-33.055 11.965s-23.777-4.2344-33.055-11.965c-14.305-11.176-31.938-17.246-50.09-17.246s-35.785 6.0703-50.09 17.246c-9.1602 7.9883-20.98 12.262-33.133 11.977-12.102 0.26172-23.863-4.0117-32.977-11.977-13.875-11.09-31.086-17.176-48.848-17.266-5.2227 0-10.051 2.7852-12.66 7.3086-2.6133 4.5273-2.6133 10.102 0 14.625 2.6094 4.5234 7.4375 7.3086 12.66 7.3086 12.141-0.20703 23.934 4.0547 33.137 11.98 13.93 11.324 31.355 17.48 49.309 17.422 18.223 0.23828 35.949-5.9258 50.09-17.422 9.3047-7.7461 21.027-11.984 33.133-11.984 12.105 0 23.828 4.2383 33.133 11.984 14.223 11.293 31.852 17.441 50.012 17.441s35.789-6.1484 50.012-17.441c9.3047-7.7461 21.027-11.984 33.133-11.984 12.105 0 23.828 4.2383 33.133 11.984 14.258 11.277 31.91 17.414 50.09 17.414 18.18 0 35.828-6.1367 50.09-17.414 9.0391-7.7812 20.582-12.035 32.512-11.98 5.2227 0 10.051-2.7852 12.66-7.3086 2.6133-4.5234 2.6133-10.098 0-14.625-2.6094-4.5234-7.4375-7.3086-12.66-7.3086z"/>
  <path d="m127.71 176.4c3.2109 9.0781 9.1484 16.941 17 22.512 7.8555 5.5703 17.238 8.5742 26.867 8.6016h57.867l-14.312 79.488c-0.78125 4.2578 0.35938 8.6445 3.125 11.977 2.7617 3.332 6.8594 5.2695 11.188 5.2891h48.535-0.003907c4.7773 0.03125 9.2578-2.2969 11.98-6.2227l62.223-90.223h23.18-0.003906c16.84 0 32.398-8.9805 40.82-23.566 8.418-14.582 8.418-32.547 0-47.133-8.4219-14.582-23.98-23.566-40.82-23.566h-22.246l-65.332-91.934c-2.9375-4.1484-7.8398-6.4531-12.91-6.0664l-48.535 0.93359c-4.3281 0.17578-8.3867 2.1484-11.199 5.4453-2.5938 3.4141-3.6641 7.75-2.9531 11.977l15.555 79.332-13.379 0.003906c-5.5039-0.16797-10.645-2.793-14-7.1562l-28.934-39.047c-8.8633-11.918-22.793-18.996-37.645-19.133h-32.668c-4.8398 0.050782-9.3828 2.3516-12.289 6.2227-2.6211 4.0078-3.2539 9-1.7109 13.535zm142.96 98.777-23.488 0.003907 12.133-67.355h58.023zm-2.957-230.07 49.156 68.602h-59.422l-13.223-68.133zm-134.09 32.668c5.4961-0.0625 10.715 2.4023 14.156 6.6875l28.934 39.047c8.7461 11.969 22.664 19.074 37.488 19.133h162.25c6.3359 0 12.188 3.3789 15.355 8.8672 3.168 5.4844 3.168 12.246 0 17.734-3.168 5.4844-9.0195 8.8633-15.355 8.8633h-126.78c-1.4453-0.23047-2.9141-0.23047-4.3555 0h-72.801c-3.5898-0.023437-7.0898-1.1367-10.035-3.1914-2.9453-2.0547-5.1953-4.957-6.4531-8.3164l-33.602-88.824z"/>
 </g>
</svg>
