<svg version="1.0" xmlns="http://www.w3.org/2000/svg"
 width="100" height="100" viewBox="0 0 1200 1200"
 preserveAspectRatio="xMidYMid meet">

<g transform="translate(0.000000,1200.000000) scale(0.100000,-0.100000)"
fill="currentColor" stroke="none">
<path d="M4250 10491 l-325 -118 -48 33 c-229 158 -515 164 -747 16 -133 -86
-238 -235 -280 -398 -5 -23 -18 -45 -28 -49 -9 -3 -153 -56 -320 -116 -167
-60 -316 -116 -332 -124 -30 -16 -52 -49 -63 -96 -4 -17 8 -68 38 -154 25 -71
45 -132 45 -136 0 -4 -134 -55 -297 -114 -164 -59 -325 -121 -358 -138 -86
-45 -211 -172 -258 -264 -55 -105 -68 -155 -73 -278 -5 -89 -2 -124 14 -180
10 -38 254 -720 541 -1515 288 -795 698 -1931 913 -2525 214 -594 400 -1103
413 -1132 79 -175 239 -307 433 -358 70 -18 209 -20 284 -4 29 6 620 216 1313
467 693 250 1267 457 1275 459 8 2 60 -25 115 -61 l100 -65 40 -208 40 -207
60 -12 c33 -6 126 -24 206 -39 l146 -28 114 -173 c63 -96 119 -174 126 -174 7
0 101 18 209 41 l197 40 41 -29 c141 -99 296 -202 304 -202 6 0 86 52 179 116
112 77 175 114 188 111 385 -80 396 -81 405 -67 5 8 56 88 114 176 l106 162
189 36 c104 20 196 36 205 36 18 0 15 -12 61 229 19 102 38 188 42 192 5 3 83
57 176 118 92 61 167 114 167 117 0 3 -18 96 -41 205 l-41 200 118 174 118
175 -118 174 -118 173 41 201 c23 111 41 204 41 207 0 3 -79 57 -175 120 -96
63 -175 116 -175 118 0 13 -79 409 -82 411 -1 1 -84 17 -183 35 -99 18 -190
35 -203 38 -17 4 -55 54 -137 179 -63 96 -118 174 -122 174 -4 0 -98 -18 -208
-41 l-201 -42 -169 117 c-92 64 -172 116 -177 116 -4 0 -72 -44 -151 -98 -78
-55 -154 -107 -169 -116 -27 -17 -32 -17 -118 0 -79 16 -91 21 -99 44 -20 56
-631 1746 -954 2640 -190 525 -357 986 -371 1024 -91 241 -280 392 -537 428
-128 18 -199 2 -546 -123 -167 -60 -307 -109 -312 -109 -5 0 -26 48 -47 108
-20 59 -44 120 -51 135 -19 38 -70 67 -118 66 -25 0 -161 -44 -365 -118z m376
-409 c45 -125 79 -230 76 -233 -8 -8 -2116 -769 -2128 -769 -8 0 -178 460
-172 465 2 2 143 53 313 114 364 132 362 130 376 241 15 125 87 247 179 305
19 12 63 32 97 45 53 19 76 22 148 18 104 -7 180 -41 265 -118 32 -29 68 -52
88 -56 26 -5 95 17 350 109 174 63 319 113 322 110 2 -2 41 -106 86 -231z
m1161 156 c69 -35 140 -103 173 -167 10 -20 90 -236 178 -481 88 -245 382
-1057 652 -1805 270 -748 492 -1367 492 -1375 1 -8 -40 -79 -91 -157 -81 -125
-97 -143 -124 -148 -18 -3 -111 -20 -207 -38 l-175 -33 -40 -207 -40 -208
-176 -115 -176 -114 15 -70 c10 -43 12 -74 6 -79 -5 -5 -263 -101 -573 -213
-608 -219 -613 -222 -627 -297 -13 -68 55 -151 125 -151 11 0 265 88 563 196
299 108 552 199 562 202 13 4 -18 -50 -97 -166 -64 -94 -117 -176 -117 -182 0
-7 52 -88 115 -181 l114 -169 -28 -136 c-16 -74 -32 -138 -34 -141 -3 -3 -565
-207 -1249 -454 -881 -319 -1262 -452 -1307 -458 -163 -20 -321 63 -394 209
-15 30 -172 455 -348 945 -421 1170 -863 2392 -1221 3380 -260 717 -291 808
-295 876 -11 160 68 303 206 374 38 19 612 228 616 223 1 -2 17 -46 35 -98 18
-52 42 -114 53 -137 22 -48 70 -83 113 -83 16 0 576 198 1244 440 1348 487
1270 453 1270 545 0 27 -17 90 -44 165 -29 81 -40 123 -32 126 6 2 130 47 276
99 343 125 349 126 443 120 61 -3 91 -11 144 -37z m2529 -4263 c464 -80 857
-395 1034 -829 79 -193 105 -348 97 -570 -8 -209 -40 -346 -127 -532 -117
-253 -345 -490 -600 -623 -118 -61 -275 -115 -406 -137 -146 -25 -413 -15
-549 20 -466 119 -822 450 -974 903 -88 266 -88 578 1 846 154 464 538 809
1013 911 99 22 113 23 276 25 92 0 179 -5 235 -14z"/>
<path d="M5060 8752 c-52 -16 -1133 -407 -1167 -422 -73 -32 -103 -112 -68
-181 19 -36 70 -69 107 -69 15 0 296 97 625 216 648 233 644 231 659 311 15
81 -79 169 -156 145z"/>
<path d="M5730 8533 c-8 -3 -395 -142 -860 -310 -781 -281 -848 -307 -879
-340 -31 -33 -33 -39 -29 -89 7 -86 74 -137 150 -116 61 18 1697 611 1728 627
16 8 36 29 45 45 42 82 -7 178 -95 186 -25 2 -52 1 -60 -3z"/>
<path d="M2798 8336 c-262 -95 -483 -178 -492 -185 -8 -7 -22 -32 -32 -56 -20
-52 -36 2 178 -590 171 -473 177 -485 260 -485 58 0 968 327 1004 361 13 12
29 40 34 60 10 35 3 60 -90 317 -55 154 -100 286 -100 293 0 8 42 70 92 139
83 112 92 130 96 176 4 48 2 55 -30 89 -29 32 -42 38 -84 42 -44 5 -54 2 -82
-22 -18 -15 -46 -47 -63 -71 -16 -24 -33 -44 -37 -44 -4 0 -19 26 -33 58 -27
61 -68 93 -121 92 -12 -1 -238 -79 -500 -174z m438 -163 c28 -67 24 -77 -76
-218 -52 -74 -99 -134 -104 -134 -5 -1 -39 24 -75 53 -37 30 -80 60 -96 66
-91 34 -191 -56 -165 -148 13 -48 11 -46 115 -133 180 -151 193 -159 241 -159
24 0 54 6 66 13 11 6 67 75 124 151 62 83 106 133 108 125 3 -8 23 -63 45
-124 22 -60 38 -111 36 -113 -11 -11 -651 -238 -656 -233 -14 12 -240 656
-232 659 68 27 632 231 641 231 7 1 20 -16 28 -36z"/>
<path d="M5610 7203 c-8 -3 -265 -95 -570 -205 -305 -110 -573 -208 -595 -219
-72 -34 -97 -118 -55 -187 22 -36 54 -52 105 -52 49 0 1210 422 1241 451 13
12 29 40 35 60 10 32 9 43 -9 81 -12 23 -30 49 -41 55 -24 15 -90 25 -111 16z"/>
<path d="M5446 6685 c-550 -199 -878 -323 -893 -337 -80 -75 -23 -218 87 -218
58 0 1746 613 1782 647 52 49 46 152 -10 192 -63 45 -35 53 -966 -284z"/>
<path d="M3355 6789 c-269 -97 -479 -179 -492 -191 -29 -27 -47 -82 -38 -116
9 -36 312 -875 335 -929 20 -47 69 -83 111 -83 14 0 239 77 500 171 507 183
522 190 538 261 8 36 4 49 -162 510 l-35 97 80 108 c109 147 118 162 118 206
0 76 -50 127 -125 127 -52 0 -86 -21 -130 -84 -22 -30 -43 -55 -46 -56 -4 0
-15 23 -26 52 -24 63 -56 89 -114 94 -37 3 -117 -22 -514 -167z m448 -186 l19
-52 -93 -127 c-52 -71 -99 -134 -104 -141 -8 -11 -28 -1 -94 52 -95 75 -119
84 -175 64 -53 -18 -86 -67 -86 -126 0 -54 25 -83 194 -217 188 -150 211 -146
360 58 55 75 102 133 105 130 3 -2 24 -57 47 -120 37 -102 40 -116 25 -123
-31 -16 -642 -234 -645 -230 -9 10 -236 652 -232 656 10 10 632 232 645 230 8
-1 23 -25 34 -54z"/>
<path d="M5578 5446 c-323 -117 -595 -219 -603 -226 -42 -35 -58 -120 -31
-168 18 -34 66 -62 106 -62 48 0 1217 424 1247 452 83 78 23 219 -91 217 -27
0 -238 -72 -628 -213z"/>
<path d="M4392 5413 c-40 -8 -931 -332 -956 -348 -28 -18 -56 -72 -56 -106 0
-24 308 -886 341 -954 26 -54 63 -79 114 -78 59 2 971 335 1003 366 50 51 44
84 -67 391 l-101 279 89 121 c48 67 93 131 100 143 30 57 -3 143 -64 169 -72
30 -122 9 -185 -78 l-44 -61 -13 34 c-37 98 -87 135 -161 122z m-33 -349 c11
-31 18 -61 14 -67 -4 -7 -50 -70 -102 -142 -52 -71 -95 -131 -96 -132 0 -1
-37 27 -80 62 -44 35 -92 67 -108 71 -82 18 -157 -41 -157 -122 0 -25 5 -54
10 -64 14 -27 275 -239 313 -255 37 -15 82 -9 117 15 14 10 66 75 115 144 50
69 94 124 99 123 11 -3 95 -236 87 -241 -14 -9 -653 -237 -656 -234 -5 6 -235
648 -235 656 0 6 629 240 651 241 3 1 16 -24 28 -55z"/>
<path d="M8424 4904 c-219 -235 -429 -458 -465 -497 -61 -66 -66 -70 -86 -56
-11 8 -136 118 -277 244 -141 127 -261 230 -266 230 -5 0 -63 -61 -130 -135
l-120 -135 28 -25 c26 -23 527 -467 719 -637 45 -40 84 -73 87 -73 6 0 1176
1248 1176 1254 0 5 -110 111 -216 209 l-51 47 -399 -426z"/>
<path d="M6151 3098 c-170 -266 -404 -629 -519 -808 -115 -179 -209 -326 -208
-327 0 0 208 41 461 92 253 51 463 90 466 87 3 -4 60 -197 125 -429 65 -233
121 -423 124 -423 8 0 841 1392 836 1397 -2 3 -29 0 -59 -7 -101 -20 -127 1
-268 222 l-87 135 -192 37 c-105 20 -202 44 -215 52 -36 24 -51 67 -85 244
-32 170 -43 210 -59 210 -5 0 -149 -217 -320 -482z"/>
<path d="M9692 3568 c-5 -7 -26 -96 -45 -197 -37 -186 -49 -219 -91 -246 -13
-9 -109 -32 -213 -52 l-190 -36 -99 -155 c-54 -85 -111 -165 -126 -177 -36
-30 -78 -39 -125 -26 -21 6 -46 11 -55 11 -12 0 103 -200 404 -701 279 -465
423 -697 428 -688 4 8 60 198 124 424 64 225 120 413 124 416 4 4 213 -35 465
-86 251 -51 457 -90 457 -88 0 9 -1035 1613 -1041 1613 -4 0 -11 -6 -17 -12z"/>
</g>
</svg>
