<?xml version="1.0" encoding="UTF-8"?>
<svg width="100pt" height="100pt" version="1.1" viewBox="0 0 100 100" xmlns="http://www.w3.org/2000/svg">
 <g>
  <path d="m51.684 35.699v-1c1.9336-0.68359 3.332-2.5156 3.332-4.6992 0-2.75-2.25-5-5-5-0.91797 0-1.668-0.75-1.668-1.668s0.75-1.668 1.668-1.668c0.60156 0 1.1484 0.31641 1.4492 0.83203 0.46484 0.80078 1.4844 1.0664 2.2852 0.60156s1.0664-1.4844 0.60156-2.2852c-0.60156-1.0352-1.5664-1.7852-2.668-2.168v-1.0156c0-0.91797-0.75-1.668-1.668-1.668s-1.668 0.75-1.668 1.668v1c-1.9336 0.68359-3.332 2.5156-3.332 4.6992 0 2.75 2.25 5 5 5 0.91797 0 1.668 0.75 1.668 1.668 0 0.91797-0.75 1.668-1.668 1.668-0.60156 0-1.1484-0.31641-1.4492-0.83203-0.46484-0.80078-1.4844-1.0664-2.2852-0.60156-0.80078 0.46484-1.0664 1.4844-0.60156 2.2852 0.60156 1.0352 1.5664 1.7656 2.668 2.168v1.0156c0 0.91797 0.75 1.668 1.668 1.668s1.668-0.75 1.668-1.668z"/>
  <path d="m81.648 76.352c0-1.668-1.3516-3.0156-3.0156-3.0156l-17.301-0.003907c-0.48438 0-0.93359 0.13281-1.332 0.33203-0.39844-0.19922-0.85156-0.33203-1.332-0.33203h-6.9844v-8.8008c2.4648-0.14844 7-0.86719 10.117-3.9844 4.3828-4.3828 4.0352-11.566 4.0156-11.883-0.050781-0.85156-0.71484-1.5352-1.5664-1.5664-0.31641-0.015625-7.5-0.36719-11.883 4.0156-0.25 0.25-0.46484 0.5-0.68359 0.76562v-8.6328c8.418-0.83203 15-7.9492 15-16.582 0-9.1836-7.4844-16.668-16.668-16.668s-16.668 7.4844-16.668 16.668c0 8.6328 6.582 15.75 15 16.582v8.6328c-0.21484-0.26562-0.44922-0.51562-0.68359-0.76562-4.3828-4.3828-11.566-4.0352-11.883-4.0156-0.85156 0.050782-1.5352 0.71484-1.5664 1.5664-0.015625 0.30078-0.36719 7.5 4.0156 11.883 3.1328 3.1328 7.6484 3.832 10.117 3.9844l0.003906 8.8008h-7c-1.668 0-3.0156 1.3516-3.0156 3.0156l-0.003907 3.6523h-16.98c-1.668 0-3.0156 1.3516-3.0156 3.0156v3.9844c0 1.668 1.3516 3.0156 3.0156 3.0156h17.316c0.48438 0 0.93359-0.13281 1.332-0.33203 0.39844 0.19922 0.85156 0.33203 1.332 0.33203h17.316c0.48437 0 0.93359-0.13281 1.332-0.33203 0.39844 0.19922 0.85156 0.33203 1.332 0.33203h17.316c1.668 0 3.0156-1.3516 3.0156-3.0156v-3.9844c0-0.48438-0.13281-0.93359-0.33203-1.3516 0.19922-0.39844 0.33203-0.85156 0.33203-1.3516zm-26.934-22.867c2.25-2.25 5.6992-2.8516 7.7148-3-0.14844 2.0156-0.76563 5.4648-3 7.7148-2.25 2.25-5.6992 2.8516-7.7148 3 0.15234-2.0156 0.76953-5.4844 3-7.7148zm-18.031-26.816c0-7.3516 5.9844-13.332 13.332-13.332 7.3516 0 13.332 5.9844 13.332 13.332 0 7.3516-5.9844 13.332-13.332 13.332s-13.332-5.9844-13.332-13.332zm3.8984 31.516c-2.25-2.25-2.8516-5.6992-3-7.7148 2.0156 0.14844 5.4648 0.76562 7.7148 3s2.8516 5.6992 3 7.7148c-2.0117-0.14844-5.4648-0.75-7.7148-3zm37.734 21.816h-16.648v-3.332h16.648zm-36.633 3.332h16.648v3.332h-16.648zm-0.015625-6.6641h16.648v3.332h-16.648zm-19.984 6.6641h16.648v3.332h-16.648zm56.633 3.3359h-16.648v-3.332h16.648z"/>
 </g>
</svg>
