<?xml version="1.0" encoding="UTF-8"?>
<svg width="100pt" height="100pt" version="1.1" viewBox="0 0 100 100" xmlns="http://www.w3.org/2000/svg">
 <g>
  <path d="m58.125 54.531c2.5781 1.875 5.0781 2.8125 7.5 2.8125h0.78125c2.2656-0.15625 3.8281-1.1719 6.1719-2.5781 1.3281-0.78125 2.9688-1.7969 5.1562-2.9688 1.9531-1.0156 3.9844-1.9531 6.0156-2.8125l1.4062-0.54688-0.9375-1.25c-4.1406-5.3125-11.016-7.5781-17.188-5.7031-8.0469 2.5-10.312 10.781-10.391 11.094l-0.078125 0.23438-0.70312 0.70312c0.3125-4.0625 0.46875-8.125 0.46875-12.188 7.7344-0.625 13.828-7.0312 13.828-14.922 0-8.2812-6.7188-15-15-15s-15 6.7188-15 15c0 7.8906 6.0938 14.297 13.828 14.922-0.078125 4.6875-0.23438 9.375-0.625 14.062-0.078125 0.625-0.078125 1.25-0.15625 1.7969-0.15625 2.1875-0.39062 4.1406-0.54688 5.9375-1.0938-2.5781-2.5-5-4.1406-7.1875-0.078125-2.5781-0.9375-10.781-7.7344-15.781-7.1094-5.2344-17.344-4.7656-24.922 1.1719l-1.4844 1.1719 1.6406 0.85938c2.5781 1.25 5 2.8906 7.1875 4.6875 2.2656 1.9531 3.5938 3.5156 4.7656 4.9219 1.1719 1.4844 2.1875 2.7344 3.9062 3.8281 2.1875 1.4844 4.9219 2.1875 8.2031 2.1875 2.1094 0 4.4531-0.3125 7.0312-1.0156 2.3438 3.2031 3.9844 6.875 4.9219 10.703-0.3125 2.0312-0.625 3.9844-1.0156 6.0938-1.7969-0.39062-3.9062-0.39062-6.1719 0.46875-3.2812 1.1719-5.2344 3.6719-6.1719 5.1562-1.875-0.23438-5.1562-0.23438-8.2031 1.875-2.1875 1.4844-3.3594 3.4375-3.9844 4.8438l-0.78125 1.6406h53.359l-0.39062-1.4844c-0.39062-1.5625-1.1719-2.8906-2.2656-3.9844-2.1875-2.1875-4.9219-2.5781-6.3281-2.6562-0.78125-1.1719-2.4219-3.125-5.2344-4.0625-3.5938-1.25-6.7188-0.078125-8.125 0.70312-0.70312-0.46875-1.875-1.25-3.3594-1.7969 1.1719-5.9375 1.6406-10.547 2.2656-17.578 0.54688-1.0156 1.3281-2.1875 2.5-3.3594zm10.469-6.9531c-2.1094 0.078125-5.1562 0.625-8.2812 2.4219 1.25-2.2656 3.5938-5.0781 7.5-6.3281 4.7656-1.4844 10.078 0 13.672 3.6719-1.6406 0.70312-3.2031 1.4844-4.7656 2.2656-2.2656 1.1719-3.9844 2.2656-5.3125 3.0469-2.1875 1.4062-3.4375 2.1094-5.1562 2.2656-1.9531 0.15625-4.0625-0.54688-6.25-2.0312 0.23438-0.15625 0.39062-0.3125 0.625-0.46875 3.0469-2.0312 6.0938-2.5 8.125-2.6562zm-23.047 8.2812c-5.2344 1.1719-9.375 0.78125-12.266-1.1719-1.3281-0.9375-2.2656-1.9531-3.3594-3.3594-1.1719-1.4062-2.5781-3.2031-5.0781-5.2344-1.875-1.5625-3.8281-2.8906-5.9375-4.1406 6.5625-4.2188 14.766-4.2969 20.547-0.078125 4.2188 3.125 5.7812 7.5781 6.4062 10.781-4.6094-4.6094-9.7656-6.9531-13.516-8.0469l-0.70312 2.2656c3.8281 1.25 9.2969 3.75 13.906 8.9844zm10.312 23.594 0.625 0.54688 0.70312-0.46875c0.54688-0.3125 3.4375-2.0312 6.875-0.85938 2.5 0.85938 3.8281 2.8125 4.2969 3.5938l0.39062 0.625h0.70312c0.78125 0 3.3594 0 5.3125 1.9531 0.46875 0.46875 0.85938 1.0156 1.0938 1.4844h-46.328c0.54688-0.78125 1.25-1.5625 2.2656-2.1875 2.9688-2.0312 6.3281-1.5625 7.2656-1.3281l0.85938 0.15625 0.39062-0.78125c0.54688-1.0938 2.1875-3.6719 5.3125-4.7656 5.3906-2.0312 10.156 1.9531 10.234 2.0312zm-13.281-53.125c0-6.9531 5.7031-12.656 12.656-12.656s12.656 5.7031 12.656 12.656-5.7031 12.656-12.656 12.656-12.656-5.7031-12.656-12.656z"/>
  <path d="m56.094 33.672v-1.9531c1.7188-0.39062 2.8906-1.7969 2.8906-3.4375 0-1.7188-0.9375-2.8125-3.125-3.75-1.5625-0.625-2.0312-1.0156-2.0312-1.7188 0-0.54688 0.39062-1.1719 1.5625-1.1719 1.0938 0 1.7969 0.39062 2.1094 0.54688l0.39062 0.23438 0.70312-1.9531-0.23438-0.15625c-0.625-0.39062-1.4062-0.625-2.1875-0.70312v-1.7969h-1.9531v1.9531c-1.7188 0.39062-2.8125 1.6406-2.8125 3.2812 0 1.9531 1.5625 2.8906 3.2812 3.5156 1.3281 0.54688 1.875 1.0938 1.875 1.7969 0 0.85938-0.70312 1.4062-1.7969 1.4062-0.85938 0-1.7188-0.23438-2.4219-0.70312l-0.39062-0.3125-0.70312 1.9531 0.23438 0.15625c0.625 0.46875 1.6406 0.78125 2.6562 0.85938v1.875h1.9531z"/>
 </g>
</svg>
