<?xml version="1.0" encoding="UTF-8"?>
<svg width="100pt" height="100pt" version="1.1" viewBox="0 0 100 100" xmlns="http://www.w3.org/2000/svg">
 <g>
  <path d="m19.383 44.109c8.1211 0 14.73-6.6055 14.73-14.73 0-8.1211-6.6055-14.727-14.73-14.727-8.1211 0-14.727 6.6055-14.727 14.727 0 8.125 6.6055 14.73 14.727 14.73zm0-27.488c7.0352 0 12.762 5.7227 12.762 12.762 0 7.0352-5.7227 12.762-12.762 12.762-7.0352 0-12.762-5.7227-12.762-12.762 0-7.0391 5.7266-12.762 12.762-12.762z"/>
  <path d="m18.508 30.363h1.7578c1.1367 0 2.0586 0.92578 2.0586 2.0586 0 1.1367-0.92578 2.0586-2.0586 2.0586h-4.8008c-0.54297 0-0.98438 0.44141-0.98438 0.98438 0 0.54297 0.44141 0.98438 0.98438 0.98438h2.9375v2.4375c0 0.54297 0.44141 0.98438 0.98438 0.98438s0.98438-0.44141 0.98438-0.98438v-2.4414c2.1719-0.058593 3.9219-1.8359 3.9219-4.0234 0-2.2227-1.8086-4.0273-4.0273-4.0273h-1.7578c-1.1367 0-2.0586-0.92188-2.0586-2.0586 0-1.1367 0.92578-2.0586 2.0586-2.0586h4.8008c0.54297 0 0.98438-0.44141 0.98438-0.98438s-0.44141-0.98438-0.98438-0.98438h-2.9375v-2.4336c0-0.54297-0.44141-0.98438-0.98438-0.98438s-0.98438 0.44141-0.98438 0.98438v2.4414c-2.1719 0.058594-3.9219 1.8398-3.9219 4.0234-0.003907 2.2188 1.8047 4.0234 4.0273 4.0234z"/>
  <path d="m31.105 45.094h-23.441c-1.6562 0-3.0078 1.3477-3.0078 3.0078 0 0.77734 0.30078 1.4883 0.78906 2.0234-0.48828 0.53516-0.78906 1.2422-0.78906 2.0195 0 0.77734 0.30078 1.4883 0.78906 2.0234-0.48828 0.53516-0.78906 1.2422-0.78906 2.0195s0.30078 1.4883 0.78906 2.0234c-0.48828 0.53516-0.78906 1.2422-0.78906 2.0195 0 0.77734 0.30078 1.4883 0.78906 2.0234-0.48828 0.53516-0.78906 1.2422-0.78906 2.0195 0 0.77734 0.30078 1.4883 0.78906 2.0195-0.48828 0.53516-0.78906 1.2422-0.78906 2.0234 0 0.77734 0.30078 1.4883 0.78906 2.0195-0.48828 0.53516-0.78906 1.2422-0.78906 2.0234 0 0.77734 0.30078 1.4883 0.78906 2.0195-0.48828 0.53516-0.78906 1.2422-0.78906 2.0234 0 0.77734 0.30078 1.4883 0.78906 2.0195-0.48828 0.53516-0.78906 1.2422-0.78906 2.0234 0 0.77734 0.30078 1.4883 0.78906 2.0195-0.48828 0.53516-0.78906 1.2422-0.78906 2.0234 0 0.77734 0.30078 1.4883 0.78906 2.0195-0.48828 0.53516-0.78906 1.2422-0.78906 2.0234 0 1.6562 1.3477 3.0078 3.0039 3.0078h23.441c1.6562 0 3.0078-1.3477 3.0078-3.0078 0-0.77734-0.30078-1.4883-0.78906-2.0234 0.48828-0.53516 0.78906-1.2422 0.78906-2.0195 0-0.77734-0.30078-1.4883-0.78906-2.0234 0.48828-0.53516 0.78906-1.2422 0.78906-2.0195 0-0.77734-0.30078-1.4883-0.78906-2.0234 0.48828-0.53516 0.78906-1.2422 0.78906-2.0195s-0.30078-1.4883-0.78906-2.0234c0.48828-0.53516 0.78906-1.2422 0.78906-2.0195s-0.30078-1.4883-0.78906-2.0234c0.48828-0.53516 0.78906-1.2422 0.78906-2.0195s-0.30078-1.4883-0.78906-2.0234c0.48828-0.53516 0.78906-1.2422 0.78906-2.0195 0-0.77734-0.30078-1.4883-0.78906-2.0195 0.48828-0.53516 0.78906-1.2422 0.78906-2.0234 0-0.77734-0.30078-1.4883-0.78906-2.0195 0.48828-0.53516 0.78906-1.2422 0.78906-2.0234 0-0.77734-0.30078-1.4883-0.78906-2.0195 0.48828-0.53516 0.78906-1.2422 0.78906-2.0234 0-0.77734-0.30078-1.4883-0.78906-2.0195 0.48828-0.53516 0.78906-1.2422 0.78906-2.0234 0.003906-1.6602-1.3477-3.0078-3.0039-3.0078zm0 12.133h-23.441c-0.57031 0-1.0391-0.46875-1.0391-1.0391s0.46484-1.0352 1.0391-1.0352h23.441c0.57422 0 1.0391 0.46484 1.0391 1.0352 0 0.57422-0.46875 1.0391-1.0391 1.0391zm1.0391 3.0039c0 0.57031-0.46484 1.0391-1.0391 1.0391h-23.441c-0.57031 0-1.0391-0.46484-1.0391-1.0391 0-0.57031 0.46484-1.0352 1.0391-1.0352h23.441c0.57031 0 1.0391 0.46484 1.0391 1.0352zm-1.0391 21.258h-23.441c-0.57031 0-1.0391-0.46484-1.0391-1.0352s0.46484-1.0391 1.0391-1.0391h23.441c0.57422 0 1.0391 0.46875 1.0391 1.0391s-0.46875 1.0352-1.0391 1.0352zm1.0391 3.0078c0 0.57031-0.46484 1.0352-1.0391 1.0352h-23.441c-0.57031 0-1.0391-0.46484-1.0391-1.0352 0-0.57031 0.46484-1.0391 1.0391-1.0391h23.441c0.57031 0 1.0391 0.46875 1.0391 1.0391zm-1.0391-7.0508h-23.441c-0.57031 0-1.0391-0.46484-1.0391-1.0391 0-0.57031 0.46484-1.0352 1.0391-1.0352h23.441c0.57422 0 1.0391 0.46484 1.0391 1.0352 0 0.57422-0.46875 1.0391-1.0391 1.0391zm0-4.043h-23.441c-0.57031 0-1.0391-0.46484-1.0391-1.0352 0-0.57031 0.46484-1.0352 1.0391-1.0352h23.441c0.57422 0 1.0391 0.46484 1.0391 1.0352 0 0.57031-0.46875 1.0352-1.0391 1.0352zm0-4.043h-23.441c-0.57031 0-1.0391-0.46875-1.0391-1.0391 0-0.57031 0.46484-1.0391 1.0391-1.0391h23.441c0.57422 0 1.0391 0.46484 1.0391 1.0391 0 0.57031-0.46875 1.0391-1.0391 1.0391zm0-4.0469h-23.441c-0.57031 0-1.0391-0.46875-1.0391-1.0391 0-0.57031 0.46484-1.0391 1.0391-1.0391h23.441c0.57422 0 1.0391 0.46484 1.0391 1.0391 0 0.57422-0.46875 1.0391-1.0391 1.0391zm0-12.129h-23.441c-0.57031 0-1.0391-0.46875-1.0391-1.0391 0-0.57031 0.46484-1.0352 1.0391-1.0352h23.441c0.57422 0 1.0391 0.46484 1.0391 1.0352 0 0.57031-0.46875 1.0391-1.0391 1.0391zm-23.445-6.1211h23.441c0.57422 0 1.0391 0.46484 1.0391 1.0391 0 0.57031-0.46484 1.0391-1.0391 1.0391h-23.441c-0.57031 0-1.0391-0.46484-1.0391-1.0391 0.003906-0.57422 0.46875-1.0391 1.0391-1.0391zm23.445 42.516h-23.441c-0.57031 0-1.0391-0.46484-1.0391-1.0391 0-0.57031 0.46484-1.0391 1.0391-1.0391h23.441c0.57422 0 1.0391 0.46484 1.0391 1.0391 0 0.57422-0.46875 1.0391-1.0391 1.0391z"/>
  <path d="m88.391 31.609c-4.1562-4.8047-9.7852-8.0781-15.965-9.3203 1.1914-2.4609 3.3359-5.6719 6.5547-6.2109 1.8047-0.30078 3.0039-1.2539 3.2891-2.6172 0.29297-1.3906-0.45312-2.8633-1.9492-3.8477-2.5469-1.6758-7.4102-1.9375-13.539 2.1836-6.1289-4.1211-10.988-3.8555-13.539-2.1836-1.4961 0.98047-2.2422 2.457-1.9492 3.8477 0.28516 1.3633 1.4883 2.3164 3.2891 2.6172 3.2188 0.53516 5.3594 3.7461 6.5547 6.2109-6.1758 1.2383-11.805 4.5195-15.965 9.3203-4.4844 5.1836-6.957 11.816-6.957 18.684v36.668c0 2.5469 2.0742 4.6211 4.625 4.6211h47.875c2.5508 0 4.625-2.0742 4.625-4.6211v-36.668c0.007812-6.8633-2.4648-13.5-6.9492-18.684zm-33.477-17.473c-0.96484-0.16016-1.5781-0.55469-1.6875-1.082-0.12109-0.5625 0.32422-1.2852 1.1016-1.7969 2.082-1.3672 6.3008-1.4219 11.891 2.5352 0.007812 0.007812 0.015625 0.007812 0.023438 0.015625 0.03125 0.019531 0.0625 0.039062 0.097656 0.054687 0.023437 0.015625 0.050781 0.027344 0.078125 0.039063 0.03125 0.011718 0.0625 0.019531 0.09375 0.03125 0.03125 0.007812 0.058593 0.019531 0.089843 0.023437 0.03125 0.007813 0.0625 0.007813 0.09375 0.011719s0.0625 0.007812 0.09375 0.007812c0.035157 0 0.066407-0.003906 0.10156-0.007812 0.027344-0.003906 0.058594-0.003906 0.085937-0.011719 0.03125-0.007812 0.066407-0.015625 0.097657-0.027343 0.027343-0.007813 0.058593-0.015626 0.085937-0.027344 0.027344-0.011719 0.058594-0.027344 0.085938-0.039063 0.03125-0.015625 0.0625-0.03125 0.089844-0.050781 0.007812-0.007812 0.019531-0.007812 0.023437-0.015625 5.5898-3.957 9.8086-3.9062 11.891-2.5352 0.78125 0.51172 1.2227 1.2344 1.1055 1.7969-0.11328 0.52734-0.72656 0.92578-1.6914 1.0859-4.1484 0.69141-6.7422 4.4922-8.2539 7.8242-1.1992-0.15234-2.4141-0.23047-3.6211-0.23047-1.2031 0-2.418 0.082031-3.6172 0.23047-1.5156-3.3398-4.1094-7.1406-8.2578-7.832zm7.793 9.875c1.3477-0.20703 2.7188-0.30859 4.0781-0.30859s2.7305 0.10547 4.0742 0.30859c12.836 1.9727 22.52 13.273 22.52 26.285v30.984h-26.594l-26.594-0.003906v-30.984c0-13.012 9.6797-24.309 22.516-26.281zm28.016 65.602h-23.938-0.003906-23.938c-1.4648 0-2.6562-1.1914-2.6562-2.6523v-3.7148h53.188v3.7188c0.003906 1.4609-1.1875 2.6484-2.6523 2.6484z"/>
  <path d="m67.543 59.867h-0.75391-0.003906-0.003906-3.3828c-0.54297 0-0.98438 0.44141-0.98438 0.98437 0 0.54297 0.44141 0.98438 0.98438 0.98438h2.4023v1.9688c0 0.54687 0.44141 0.98437 0.98438 0.98437 0.54688 0 0.98438-0.4375 0.98438-0.98437v-1.9805c1.8867-0.11719 3.3867-1.6836 3.3867-3.6016 0-1.9922-1.6211-3.6133-3.6133-3.6133h-1.5195c-0.90625 0-1.6445-0.73828-1.6445-1.6445s0.73828-1.6445 1.6445-1.6445h4.1445c0.54297 0 0.98438-0.44141 0.98438-0.98437 0-0.54297-0.44141-0.98438-0.98438-0.98438h-2.4023v-1.9688c0-0.54297-0.4375-0.98437-0.98438-0.98437-0.54297 0-0.98438 0.44141-0.98438 0.98437v1.9805c-1.8867 0.11719-3.3867 1.6875-3.3867 3.6016 0 1.9922 1.6211 3.6133 3.6133 3.6133h1.5195c0.90625 0 1.6445 0.73828 1.6445 1.6445 0 0.91016-0.73828 1.6445-1.6445 1.6445z"/>
  <path d="m54.633 55.594c0 6.6992 5.4492 12.152 12.152 12.152 6.6992 0 12.148-5.4492 12.148-12.152 0-6.6992-5.4492-12.152-12.148-12.152-6.6992 0-12.152 5.4531-12.152 12.152zm12.152-10.184c5.6133 0 10.184 4.5664 10.184 10.184 0 5.6133-4.5664 10.184-10.184 10.184-5.6133 0-10.184-4.5703-10.184-10.184s4.5703-10.184 10.184-10.184z"/>
  <path d="m66.785 41.484c0.54297 0 0.98438-0.44141 0.98438-0.98438v-2.8906c0-0.54297-0.44141-0.98438-0.98438-0.98438-0.54297 0-0.98438 0.44141-0.98438 0.98438v2.8906c0 0.54688 0.44141 0.98438 0.98438 0.98438z"/>
  <path d="m58.387 43.016c0.18359 0.31641 0.51562 0.49219 0.85547 0.49219 0.16797 0 0.33594-0.042968 0.49219-0.13281 0.47266-0.27344 0.63281-0.875 0.35938-1.3438l-1.4453-2.5039c-0.26953-0.47266-0.87109-0.63281-1.3438-0.35938-0.47266 0.27344-0.63281 0.875-0.35938 1.3438z"/>
  <path d="m50.719 47.453 2.5039 1.4453c0.15625 0.089843 0.32422 0.13281 0.49219 0.13281 0.33984 0 0.67188-0.17578 0.85547-0.49219 0.27344-0.47266 0.10938-1.0742-0.35937-1.3438l-2.5039-1.4453c-0.47266-0.27344-1.0742-0.10938-1.3438 0.35938-0.27344 0.47266-0.11328 1.0742 0.35547 1.3438z"/>
  <path d="m48.801 56.578h2.8906c0.54297 0 0.98438-0.44141 0.98438-0.98438s-0.44141-0.98438-0.98438-0.98438h-2.8906c-0.54297 0-0.98438 0.44141-0.98438 0.98438s0.44141 0.98438 0.98438 0.98438z"/>
  <path d="m53.223 62.289-2.5039 1.4453c-0.47266 0.26953-0.63281 0.87109-0.35938 1.3438 0.18359 0.31641 0.51562 0.49219 0.85156 0.49219 0.16797 0 0.33594-0.042968 0.49219-0.13281l2.5039-1.4453c0.47266-0.26953 0.63281-0.875 0.35938-1.3438-0.26953-0.47266-0.87109-0.63281-1.3438-0.35938z"/>
  <path d="m59.73 67.812c-0.47266-0.26953-1.0703-0.10938-1.3438 0.35938l-1.4453 2.5039c-0.26953 0.47266-0.10938 1.0703 0.35938 1.3438 0.15625 0.089844 0.32422 0.13281 0.49219 0.13281 0.33984 0 0.67188-0.17578 0.85156-0.49219l1.4453-2.5039c0.27344-0.47266 0.11328-1.0703-0.35938-1.3438z"/>
  <path d="m66.785 69.703c-0.54297 0-0.98438 0.4375-0.98438 0.98047v2.8906c0 0.54297 0.44141 0.98438 0.98438 0.98438 0.54297 0 0.98438-0.44141 0.98438-0.98438v-2.8906c0-0.54297-0.44141-0.98047-0.98438-0.98047z"/>
  <path d="m75.184 68.172c-0.27344-0.47266-0.875-0.63281-1.3438-0.35938s-0.63281 0.875-0.35938 1.3438l1.4453 2.5039c0.18359 0.31641 0.51172 0.49219 0.85156 0.49219 0.16797 0 0.33594-0.042969 0.48828-0.13281 0.47266-0.26953 0.63281-0.87109 0.35938-1.3438z"/>
  <path d="m82.852 63.734-2.5039-1.4453c-0.47266-0.26953-1.0703-0.10937-1.3438 0.35938-0.26953 0.46875-0.10938 1.0703 0.35938 1.3438l2.5039 1.4453c0.15625 0.089844 0.32422 0.13281 0.49219 0.13281 0.33984 0 0.67188-0.17578 0.85547-0.49219 0.26953-0.46875 0.10547-1.0703-0.36328-1.3438z"/>
  <path d="m80.895 55.594c0 0.54297 0.44141 0.98438 0.98438 0.98438h2.8906c0.54297 0 0.98438-0.44141 0.98438-0.98438s-0.44141-0.98438-0.98438-0.98438h-2.8906c-0.54688 0-0.98438 0.44141-0.98438 0.98438z"/>
  <path d="m79.855 49.031c0.16797 0 0.33594-0.042969 0.49219-0.13281l2.5039-1.4453c0.47266-0.27344 0.63281-0.875 0.35938-1.3438-0.26953-0.46875-0.87109-0.63281-1.3438-0.35938l-2.5039 1.4453c-0.47266 0.26953-0.63281 0.875-0.35938 1.3438 0.18359 0.31641 0.51172 0.49219 0.85156 0.49219z"/>
  <path d="m73.84 43.379c0.15625 0.089844 0.32422 0.13281 0.49219 0.13281 0.33984 0 0.67188-0.17578 0.85547-0.49219l1.4453-2.5039c0.26953-0.47266 0.10938-1.0703-0.35937-1.3438-0.47266-0.26953-1.0703-0.10938-1.3438 0.35938l-1.4453 2.5039c-0.27734 0.46875-0.11719 1.0703 0.35547 1.3438z"/>
 </g>
</svg>
