<?xml version="1.0" encoding="UTF-8"?>
<svg width="100pt" height="100pt" version="1.1" viewBox="0 0 100 100" xmlns="http://www.w3.org/2000/svg">
 <g>
  <path d="m28.211 25.711v-7.2734l1.1953 1.1953c0.21094 0.21094 0.5 0.31641 0.78906 0.31641 0.28906 0 0.57422-0.10547 0.78906-0.31641 0.4375-0.4375 0.4375-1.1367 0-1.5742l-3.1055-3.1055c-0.4375-0.4375-1.1367-0.4375-1.5742 0l-3.0898 3.0898c-0.4375 0.4375-0.4375 1.1367 0 1.5742s1.1367 0.4375 1.5742 0l1.1953-1.1953v7.2734c0 0.60547 0.5 1.1055 1.1055 1.1055 0.62109 0.015625 1.1211-0.48438 1.1211-1.0898z"/>
  <path d="m76.789 28.605-3.0898-3.0898c-0.4375-0.4375-1.1367-0.4375-1.5742 0l-3.0898 3.0898c-0.4375 0.4375-0.4375 1.1367 0 1.5742s1.1367 0.4375 1.5742 0l1.1953-1.1953v7.2734c0 0.60547 0.5 1.1055 1.1055 1.1055 0.60547 0 1.1055-0.5 1.1055-1.1055v-7.2734l1.1953 1.1953c0.21094 0.21094 0.5 0.31641 0.78906 0.31641s0.57422-0.10547 0.78906-0.31641c0.42188-0.4375 0.42188-1.1328 0-1.5742z"/>
  <path d="m27.668 33.062c-0.4375 0.4375-0.4375 1.1367 0 1.5742s1.1367 0.4375 1.5742 0l1.1953-1.1953v7.2734c0 0.60547 0.5 1.1055 1.1055 1.1055s1.1055-0.5 1.1055-1.1055v-7.2734l1.1953 1.1953c0.21094 0.21094 0.5 0.31641 0.78906 0.31641 0.28906 0 0.57422-0.10547 0.78906-0.31641 0.4375-0.4375 0.4375-1.1367 0-1.5742l-3.0898-3.0898c-0.4375-0.4375-1.1367-0.4375-1.5742 0z"/>
  <path d="m72.062 60.832h-19.91v-1.3945c0.92578 0.19531 2.2109 0.39453 3.6836 0.39453 1.832 0 3.9258-0.31641 5.832-1.3633 4.7891-2.6055 6.3633-8.6523 6.4258-8.9102 0.13672-0.5625-0.16797-1.1367-0.72656-1.332-0.25781-0.089843-6.1836-2.0312-10.969 0.58984-1.8789 1.0312-3.2578 2.5742-4.2422 4.0898v-6.1953c0.83203 0.16797 1.9375 0.33203 3.1953 0.33203 1.668 0 3.5625-0.28906 5.3047-1.2266 4.332-2.3633 5.7734-7.8477 5.832-8.0742 0.13672-0.5625-0.16797-1.1367-0.72656-1.332-0.22656-0.074218-5.6055-1.832-9.9531 0.53125-1.5742 0.86328-2.7578 2.1211-3.6523 3.4102v-3.7734c9.1367-0.57422 16.395-8.168 16.395-17.438 0-9.6523-7.8477-17.5-17.5-17.5-9.6562-0.003906-17.52 7.8594-17.52 17.512 0 9.2734 7.2578 16.863 16.395 17.438v11.438c-0.87891-1.2734-2.0742-2.5469-3.6523-3.4102-4.332-2.3633-9.7266-0.60547-9.9531-0.53125-0.54687 0.18359-0.86328 0.75781-0.72656 1.332 0.0625 0.22656 1.5 5.7109 5.832 8.0742 1.7266 0.9375 3.6211 1.2266 5.3047 1.2266 1.2422 0 2.3633-0.16797 3.1836-0.33203v6.4258l-19.898 0.003906c-2 0-3.6211 1.6211-3.6211 3.6211v1.7422c0 2 1.6211 3.6211 3.6211 3.6211h0.57422l6.0898 25.316c0.5 1.8945 2.2109 3.2109 4.1836 3.2109h19.789c1.9102 0 3.6211-1.2734 4.168-3.1367l6.6367-25.395h0.58984c1.9844 0 3.6211-1.6211 3.6211-3.6211v-1.7422c0-1.9805-1.6211-3.6016-3.6055-3.6016zm-14.609-10.059c2.8477-1.5625 6.3945-1.0898 8.1367-0.69531-0.62109 1.668-2.1523 4.9102-5 6.4531-2.8477 1.5469-6.3945 1.0742-8.1367 0.69531 0.62109-1.6641 2.1523-4.8945 5-6.4531zm-0.60547-11.863c2.4688-1.3477 5.5156-0.98438 7.1055-0.65234-0.57422 1.5156-1.9258 4.2734-4.3945 5.6211s-5.5156 0.98438-7.1055 0.65234c0.59375-1.5156 1.9258-4.2734 4.3945-5.6211zm-14.348 12.652c-2.4688-1.3477-3.8164-4.1055-4.3945-5.6211 1.5898-0.33203 4.6367-0.69531 7.1055 0.65234s3.8047 4.1055 4.3945 5.6211c-1.5898 0.33203-4.6367 0.69531-7.1055-0.65234zm-6.7422-32.41c0-8.4258 6.8477-15.289 15.273-15.289s15.289 6.8477 15.289 15.289c0 8.4375-6.8477 15.273-15.289 15.273s-15.273-6.8516-15.273-15.273zm26.926 75.469c-0.25781 0.89453-1.0898 1.5156-2.0312 1.5156h-19.789c-0.95312 0-1.8047-0.63672-2.0312-1.5312l-5.9531-24.789h36.289zm10.77-28.426c0 0.77344-0.62109 1.3945-1.3945 1.3945h-1.4258-0.03125-39.148-0.03125-1.4102c-0.77344 0-1.3945-0.62109-1.3945-1.3945v-1.7422c0-0.77344 0.62109-1.3945 1.3945-1.3945h42.047c0.77344 0 1.3945 0.62109 1.3945 1.3945z"/>
  <path d="m64.41 19.152c0-7.3789-6-13.363-13.363-13.363s-13.363 6-13.363 13.363c0 7.3633 6 13.363 13.363 13.363s13.363-5.9844 13.363-13.363zm-24.531 0c0-6.1523 5-11.152 11.152-11.152s11.152 5 11.152 11.152-5 11.152-11.152 11.152-11.152-5-11.152-11.152z"/>
  <path d="m52.121 28.305v-0.60547c2.168-0.5 3.8047-2.4258 3.8047-4.7422 0-2.6836-2.1836-4.8789-4.8789-4.8789-1.5 0-2.7109-1.2109-2.7109-2.7109s1.2109-2.7109 2.7109-2.7109 2.7109 1.2109 2.7109 2.7109c0 0.58984 0.48438 1.0742 1.0742 1.0742 0.58984 0 1.0742-0.48438 1.0742-1.0742 0-2.3164-1.6211-4.2578-3.8047-4.7422l0.003907-0.625c0-0.58984-0.48438-1.0742-1.0742-1.0742s-1.0742 0.48438-1.0742 1.0742l-0.003906 0.60547c-2.168 0.5-3.8047 2.4258-3.8047 4.7422 0 2.6836 2.1836 4.8789 4.8789 4.8789 1.5 0 2.7109 1.2109 2.7109 2.7109s-1.2109 2.7109-2.7109 2.7109-2.7109-1.2109-2.7109-2.7109c0-0.58984-0.48438-1.0742-1.0742-1.0742-0.58984 0-1.0742 0.48438-1.0742 1.0742 0 2.3164 1.6211 4.2578 3.8047 4.7422v0.60547c0 0.58984 0.48438 1.0742 1.0742 1.0742 0.58984 0.003906 1.0742-0.46484 1.0742-1.0547z"/>
 </g>
</svg>
