<?xml version="1.0" encoding="UTF-8"?>
<svg width="100pt" height="100pt" version="1.1" viewBox="0 0 100 100" xmlns="http://www.w3.org/2000/svg">
 <path d="m74 34h-48c-0.55078 0-1 0.44922-1 1v30c0 0.55078 0.44922 1 1 1h48c0.55078 0 1-0.44922 1-1v-30c0-0.55078-0.44922-1-1-1zm-19 6.6445c1.2344 1.4883 2 3.8125 2 6.3555s-0.76562 4.8672-2 6.3555zm4 6.3555c0-3.2461-1.0586-6.1562-2.793-8h10.871c0.69922 1.2109 1.7109 2.2188 2.9219 2.9219v10.16c-1.2109 0.69922-2.2188 1.7109-2.9219 2.9219l-10.871-0.003906c1.7344-1.8438 2.793-4.7539 2.793-8zm-4 13h18v1h-18zm18-2h-18v-1h12.684c0.38672 0 0.73438-0.22266 0.90234-0.57031 0.59375-1.2422 1.6016-2.2539 2.8438-2.8438 0.34766-0.16406 0.57031-0.51953 0.57031-0.90234v-11.367c0-0.38672-0.22266-0.73828-0.57031-0.90234-1.2422-0.59375-2.2539-1.6016-2.8438-2.8438-0.16406-0.34766-0.51953-0.57031-0.90234-0.57031h-12.684v-1h18zm-46 2h18v1h-18zm18-6.6445c-1.2344-1.4883-2-3.8125-2-6.3555s0.76562-4.8672 2-6.3555zm-4-6.3555c0 3.2461 1.0586 6.1562 2.793 8h-10.871c-0.69922-1.2109-1.7109-2.2188-2.9219-2.9219v-10.156c1.2109-0.69922 2.2188-1.7109 2.9219-2.9219h10.875c-1.7383 1.8438-2.7969 4.7539-2.7969 8zm-14-11h18v1h-12.684c-0.38672 0-0.73828 0.22266-0.90234 0.57031-0.59375 1.2422-1.6016 2.2539-2.8438 2.8438-0.34766 0.16406-0.57031 0.51953-0.57031 0.90234v11.363c0 0.38672 0.22266 0.73828 0.57031 0.90234 1.2422 0.59375 2.2539 1.6016 2.8438 2.8438 0.16406 0.35156 0.51953 0.57422 0.90234 0.57422h12.684v1h-18zm0 27h18v1h-18zm20-27h6v28h-6zm8 28v-1h18v1zm-23-17c0 1.6523 1.3477 3 3 3s3-1.3477 3-3-1.3477-3-3-3-3 1.3477-3 3zm3-1c0.55078 0 1 0.44922 1 1s-0.44922 1-1 1-1-0.44922-1-1 0.44922-1 1-1zm33 1c0-1.6523-1.3477-3-3-3s-3 1.3477-3 3 1.3477 3 3 3 3-1.3477 3-3zm-3 1c-0.55078 0-1-0.44922-1-1s0.44922-1 1-1 1 0.44922 1 1-0.44922 1-1 1z"/>
</svg>
