<svg width="700pt" height="700pt" version="1.1" viewBox="0 0 700 700" xmlns="http://www.w3.org/2000/svg" xmlns:xlink="http://www.w3.org/1999/xlink">
 <defs>
  <symbol id="n" overflow="visible">
   <path d="m29.312-1.75c-1.5117 0.78125-3.0898 1.3711-4.7344 1.7656-1.6367 0.40625-3.3398 0.60938-5.1094 0.60938-5.3125 0-9.5273-1.4844-12.641-4.4531-3.1055-2.9688-4.6562-7-4.6562-12.094s1.5508-9.125 4.6562-12.094c3.1133-2.9688 7.3281-4.4531 12.641-4.4531 1.7695 0 3.4727 0.19922 5.1094 0.59375 1.6445 0.39844 3.2227 0.99219 4.7344 1.7812v6.5938c-1.5312-1.0391-3.0391-1.8008-4.5156-2.2812-1.4805-0.48828-3.0391-0.73438-4.6719-0.73438-2.9375 0-5.2461 0.94531-6.9219 2.8281-1.6797 1.875-2.5156 4.4648-2.5156 7.7656 0 3.293 0.83594 5.8828 2.5156 7.7656 1.6758 1.875 3.9844 2.8125 6.9219 2.8125 1.6328 0 3.1914-0.23828 4.6719-0.71875 1.4766-0.48828 2.9844-1.2539 4.5156-2.2969z"/>
  </symbol>
  <symbol id="c" overflow="visible">
   <path d="m21.453-17.406c-0.67969-0.3125-1.3516-0.53906-2.0156-0.6875-0.65625-0.15625-1.3203-0.23438-1.9844-0.23438-1.9688 0-3.4844 0.63281-4.5469 1.8906-1.0547 1.2617-1.5781 3.0703-1.5781 5.4219v11.016h-7.6562v-23.922h7.6562v3.9219c0.97656-1.5625 2.1016-2.7031 3.375-3.4219 1.2812-0.71875 2.8125-1.0781 4.5938-1.0781 0.25 0 0.52344 0.011719 0.82812 0.03125 0.30078 0.023438 0.73438 0.070312 1.2969 0.14062z"/>
  </symbol>
  <symbol id="b" overflow="visible">
   <path d="m27.562-12.031v2.1875h-17.891c0.1875 1.793 0.83203 3.1367 1.9375 4.0312 1.1133 0.89844 2.6719 1.3438 4.6719 1.3438 1.6016 0 3.25-0.23438 4.9375-0.70312 1.6875-0.47656 3.4219-1.2031 5.2031-2.1719v5.8906c-1.8047 0.6875-3.6094 1.2031-5.4219 1.5469-1.8125 0.35156-3.6211 0.53125-5.4219 0.53125-4.3359 0-7.7031-1.0977-10.109-3.2969-2.3984-2.207-3.5938-5.2969-3.5938-9.2656 0-3.9062 1.1758-6.9727 3.5312-9.2031 2.3633-2.2383 5.6094-3.3594 9.7344-3.3594 3.7578 0 6.7695 1.1367 9.0312 3.4062 2.2578 2.2617 3.3906 5.2812 3.3906 9.0625zm-7.8594-2.5312c0-1.457-0.42969-2.6289-1.2812-3.5156-0.84375-0.89453-1.9492-1.3438-3.3125-1.3438-1.4922 0-2.6992 0.41797-3.625 1.25-0.91797 0.83594-1.4922 2.0391-1.7188 3.6094z"/>
  </symbol>
  <symbol id="a" overflow="visible">
   <path d="m14.391-10.766c-1.5938 0-2.793 0.27344-3.5938 0.8125-0.80469 0.54297-1.2031 1.3398-1.2031 2.3906 0 0.96875 0.32031 1.7305 0.96875 2.2812 0.64453 0.54297 1.5469 0.8125 2.7031 0.8125 1.4375 0 2.6445-0.51562 3.625-1.5469 0.98828-1.0312 1.4844-2.3203 1.4844-3.875v-0.875zm11.688-2.8906v13.656h-7.7031v-3.5469c-1.0312 1.4492-2.1875 2.5078-3.4688 3.1719s-2.8398 1-4.6719 1c-2.4805 0-4.4961-0.72266-6.0469-2.1719-1.543-1.4453-2.3125-3.3203-2.3125-5.625 0-2.8125 0.96094-4.8672 2.8906-6.1719 1.9375-1.3125 4.9688-1.9688 9.0938-1.9688h4.5156v-0.60938c0-1.207-0.48047-2.0938-1.4375-2.6562-0.94922-0.5625-2.4375-0.84375-4.4688-0.84375-1.6367 0-3.1562 0.16797-4.5625 0.5-1.4062 0.32422-2.7188 0.8125-3.9375 1.4688v-5.8281c1.6445-0.40625 3.2891-0.70703 4.9375-0.90625 1.6562-0.20703 3.3047-0.3125 4.9531-0.3125 4.3203 0 7.4375 0.85547 9.3438 2.5625 1.9141 1.6992 2.875 4.4609 2.875 8.2812z"/>
  </symbol>
  <symbol id="j" overflow="visible">
   <path d="m12.031-30.719v6.7969h7.875v5.4688h-7.875v10.141c0 1.1172 0.21875 1.8711 0.65625 2.2656 0.4375 0.38672 1.3125 0.57812 2.625 0.57812h3.9375v5.4688h-6.5625c-3.0234 0-5.1641-0.62891-6.4219-1.8906-1.2617-1.2578-1.8906-3.3984-1.8906-6.4219v-10.141h-3.7969v-5.4688h3.7969v-6.7969z"/>
  </symbol>
  <symbol id="i" overflow="visible">
   <path d="m19.953-20.422v-12.812h7.6875v33.234h-7.6875v-3.4531c-1.0547 1.4062-2.2148 2.4375-3.4844 3.0938-1.2734 0.65625-2.7422 0.98438-4.4062 0.98438-2.9492 0-5.3711-1.1719-7.2656-3.5156-1.8867-2.3438-2.8281-5.3594-2.8281-9.0469s0.94141-6.7031 2.8281-9.0469c1.8945-2.3438 4.3164-3.5156 7.2656-3.5156 1.6562 0 3.1172 0.33594 4.3906 1 1.2812 0.65625 2.4453 1.6836 3.5 3.0781zm-5.0469 15.484c1.6445 0 2.8945-0.59766 3.75-1.7969 0.86328-1.1953 1.2969-2.9297 1.2969-5.2031 0-2.2812-0.43359-4.0195-1.2969-5.2188-0.85547-1.1953-2.1055-1.7969-3.75-1.7969-1.625 0-2.8711 0.60156-3.7344 1.7969-0.85547 1.1992-1.2812 2.9375-1.2812 5.2188 0 2.2734 0.42578 4.0078 1.2812 5.2031 0.86328 1.1992 2.1094 1.7969 3.7344 1.7969z"/>
  </symbol>
  <symbol id="h" overflow="visible">
   <path d="m16.406-4.9375c1.6328 0 2.8828-0.59766 3.75-1.7969 0.86328-1.1953 1.2969-2.9297 1.2969-5.2031 0-2.2812-0.43359-4.0195-1.2969-5.2188-0.86719-1.1953-2.1172-1.7969-3.75-1.7969-1.6367 0-2.8906 0.60547-3.7656 1.8125-0.875 1.1992-1.3125 2.9336-1.3125 5.2031 0 2.2617 0.4375 3.9961 1.3125 5.2031 0.875 1.1992 2.1289 1.7969 3.7656 1.7969zm-5.0781-15.484c1.0508-1.3945 2.2188-2.4219 3.5-3.0781 1.2812-0.66406 2.7539-1 4.4219-1 2.9453 0 5.3672 1.1719 7.2656 3.5156 1.8945 2.3438 2.8438 5.3594 2.8438 9.0469s-0.94922 6.7031-2.8438 9.0469c-1.8984 2.3438-4.3203 3.5156-7.2656 3.5156-1.668 0-3.1406-0.33594-4.4219-1s-2.4492-1.6914-3.5-3.0781v3.4531h-7.6562v-33.234h7.6562z"/>
  </symbol>
  <symbol id="g" overflow="visible">
   <path d="m0.53125-23.922h7.6562l6.4219 16.234 5.4688-16.234h7.6562l-10.062 26.188c-1.0117 2.6641-2.1953 4.5234-3.5469 5.5781-1.3438 1.0625-3.1211 1.5938-5.3281 1.5938h-4.4219v-5.0156h2.3906c1.3008 0 2.2422-0.21094 2.8281-0.625 0.59375-0.40625 1.0547-1.1484 1.3906-2.2188l0.20312-0.65625z"/>
  </symbol>
  <symbol id="f" overflow="visible">
   <path d="m22.359-23.172v5.7969c-1.6367-0.67578-3.2148-1.1875-4.7344-1.5312-1.5234-0.34375-2.9609-0.51562-4.3125-0.51562-1.4609 0-2.543 0.18359-3.25 0.54688-0.69922 0.36719-1.0469 0.92188-1.0469 1.6719 0 0.61719 0.26562 1.0898 0.79688 1.4219 0.53125 0.32422 1.4883 0.5625 2.875 0.71875l1.3438 0.1875c3.9141 0.5 6.5508 1.3242 7.9062 2.4688 1.3516 1.1367 2.0312 2.9219 2.0312 5.3594 0 2.5547-0.94531 4.4688-2.8281 5.75-1.875 1.2812-4.6797 1.9219-8.4062 1.9219-1.5859 0-3.2188-0.125-4.9062-0.375s-3.4219-0.625-5.2031-1.125v-5.8125c1.5195 0.74219 3.082 1.2969 4.6875 1.6719 1.6016 0.36719 3.2344 0.54688 4.8906 0.54688 1.4883 0 2.6094-0.20312 3.3594-0.60938 0.75781-0.41406 1.1406-1.0312 1.1406-1.8438 0-0.6875-0.26172-1.1953-0.78125-1.5312-0.52344-0.33203-1.5586-0.59375-3.1094-0.78125l-1.3438-0.17188c-3.4062-0.42578-5.793-1.2109-7.1562-2.3594-1.3672-1.1562-2.0469-2.9102-2.0469-5.2656 0-2.5312 0.86719-4.4062 2.6094-5.625 1.7383-1.2266 4.3984-1.8438 7.9844-1.8438 1.4062 0 2.8828 0.10938 4.4375 0.32812 1.5508 0.21094 3.2383 0.54297 5.0625 1z"/>
  </symbol>
  <symbol id="m" overflow="visible">
   <path d="m3.4219-9.3125v-14.609h7.6875v2.3906c0 1.293-0.011719 2.918-0.03125 4.875-0.011719 1.9609-0.015625 3.2656-0.015625 3.9219 0 1.9297 0.046875 3.3125 0.14062 4.1562 0.10156 0.84375 0.28125 1.4609 0.53125 1.8438 0.3125 0.5 0.71875 0.88672 1.2188 1.1562 0.50781 0.27344 1.0938 0.40625 1.75 0.40625 1.5938 0 2.8438-0.60938 3.75-1.8281 0.91406-1.2266 1.375-2.9297 1.375-5.1094v-11.812h7.6406v23.922h-7.6406v-3.4531c-1.1562 1.3867-2.3828 2.4141-3.6719 3.0781-1.2812 0.66406-2.6992 1-4.25 1-2.7734 0-4.8828-0.84766-6.3281-2.5469-1.4375-1.6953-2.1562-4.1602-2.1562-7.3906z"/>
  </symbol>
  <symbol id="e" overflow="visible">
   <path d="m11.328-3.4531v12.547h-7.6562v-33.016h7.6562v3.5c1.0508-1.3945 2.2188-2.4219 3.5-3.0781 1.2812-0.66406 2.7539-1 4.4219-1 2.9453 0 5.3672 1.1719 7.2656 3.5156 1.8945 2.3438 2.8438 5.3594 2.8438 9.0469s-0.94922 6.7031-2.8438 9.0469c-1.8984 2.3438-4.3203 3.5156-7.2656 3.5156-1.668 0-3.1406-0.33594-4.4219-1s-2.4492-1.6914-3.5-3.0781zm5.0781-15.5c-1.6367 0-2.8906 0.60547-3.7656 1.8125-0.875 1.1992-1.3125 2.9336-1.3125 5.2031 0 2.2617 0.4375 3.9961 1.3125 5.2031 0.875 1.1992 2.1289 1.7969 3.7656 1.7969 1.6328 0 2.8828-0.59766 3.75-1.7969 0.86328-1.1953 1.2969-2.9297 1.2969-5.2031 0-2.2812-0.43359-4.0195-1.2969-5.2188-0.86719-1.1953-2.1172-1.7969-3.75-1.7969z"/>
  </symbol>
  <symbol id="d" overflow="visible">
   <path d="m3.6719-33.234h7.6562v33.234h-7.6562z"/>
  </symbol>
  <symbol id="l" overflow="visible">
   <path d="m3.6719-33.234h7.6562v18.094l8.7969-8.7812h8.8906l-11.688 10.969 12.594 12.953h-9.2656l-9.3281-9.9688v9.9688h-7.6562z"/>
  </symbol>
  <symbol id="k" overflow="visible">
   <path d="m3.6719-23.922h7.6562v23.922h-7.6562zm0-9.3125h7.6562v6.2344h-7.6562z"/>
  </symbol>
 </defs>
 <g>
  <path d="m603.75 60.461h-162.14c-0.03125-10.117-3.5703-19.918-10.012-27.723-6.4414-7.8047-15.391-13.133-25.324-15.082-4.7383-0.91797-9.3281 2.1758-10.254 6.9141l-7 35.875h-69.781l-7-35.875c-0.92578-4.7383-5.5156-7.832-10.254-6.9141-9.9531 1.9219-18.934 7.2422-25.398 15.051-6.4688 7.8086-10.023 17.617-10.059 27.754h-170.27c-4.832 0-8.75 3.918-8.75 8.75v262.5c0 2.3203 0.92188 4.5469 2.5625 6.1875 1.6406 1.6406 3.8672 2.5625 6.1875 2.5625h219.31c-1.957 5.3516-2.4023 11.137-1.293 16.723l-18.883 67.762c-2.668-1.1797-5.418-2.168-8.2266-2.9609-15.648-4.3555-32.387-2.3164-46.535 5.668-14.145 7.9844-24.539 21.262-28.898 36.91-4.3555 15.652-2.3164 32.391 5.668 46.535 7.9844 14.148 21.262 24.543 36.91 28.898 15.648 4.3594 32.391 2.3203 46.535-5.6641 14.148-7.9844 24.543-21.262 28.898-36.91l19.992-72.047 20.012 72.031v-0.003906c4.4609 16.223 15.375 29.906 30.199 37.863 14.828 7.9531 32.266 9.4805 48.246 4.2227 15.984-5.2578 29.109-16.84 36.32-32.039 7.207-15.203 7.8672-32.695 1.8242-48.398-6.043-15.699-18.258-28.238-33.801-34.684-15.539-6.4453-33.043-6.2383-48.426 0.57812l-19.102-68.953 3.0195-15.531h215.73c2.3203 0 4.5469-0.92188 6.1875-2.5625 1.6406-1.6406 2.5625-3.8672 2.5625-6.1875v-262.5c0-2.3203-0.92188-4.543-2.5625-6.1875-1.6406-1.6406-3.8672-2.5625-6.1875-2.5625zm-192.5-22.477c4.6641 2.793 8.3555 6.9531 10.574 11.914 2.2227 4.9609 2.8633 10.484 1.8438 15.824l-33.418 171.46c-0.085938 0.31641-0.15625 0.62891-0.21875 0.94531l-17.105 88.039c-1.8203-1.7266-3.8242-3.2578-5.9688-4.5664-0.37891-0.24609-0.77734-0.46094-1.1914-0.64844-2.8086-1.6172-5.832-2.832-8.9844-3.6016zm-62.578 330.82c-4.6445 0-9.0938-1.8438-12.375-5.125-3.2812-3.2852-5.125-7.7344-5.125-12.375 0-4.6406 1.8438-9.0938 5.125-12.375s7.7305-5.125 12.375-5.125c4.6406 0 9.0898 1.8438 12.371 5.125 3.2852 3.2812 5.1289 7.7344 5.1289 12.375v0.16797-0.003906c-0.046875 4.6133-1.9102 9.0234-5.1875 12.27-3.2773 3.2461-7.7031 5.0664-12.312 5.0664zm-157.11-80.844c-5.1719-11.324-12.297-21.656-21.051-30.508-8.8359-8.7852-19.168-15.918-30.512-21.062v-71.848c22.91-10.32 41.258-28.668 51.574-51.582h187.25l-4.6797 24.02h-0.003906c-20.793-7.6836-44-5.043-62.539 7.1133-18.539 12.156-30.207 32.391-31.449 54.523-1.2383 22.137 8.0977 43.543 25.16 57.695 0.25391 0.26562 0.51953 0.51562 0.80469 0.74609 11.801 9.5742 26.426 14.992 41.617 15.406l-3.0273 15.496zm159.53-32.945h-1.0938v0.003906c-11.648 0.046875-22.973-3.8281-32.148-11.008l-0.0625-0.0625-0.050781-0.042969c-0.22266-0.23047-0.46484-0.44141-0.71875-0.64062-12.402-9.8555-19.598-24.859-19.52-40.703 0.015625-13.918 5.5508-27.266 15.391-37.109 9.8438-9.8398 23.191-15.375 37.109-15.391 7.1289 0 14.18 1.4727 20.711 4.3242zm-54.094-217.06 4.375 22.504h-17.352c0.027343-9.2695 4.9648-17.836 12.977-22.504zm-192 285v-245h280.61l-3.4023 17.5h-196.38c-0.73828 0.050781-1.4688 0.19922-2.1719 0.4375-0.39453 0.0625-0.78516 0.14844-1.1719 0.26562-0.42188 0.23047-0.82031 0.5-1.1992 0.80469-0.55469 0.30469-1.082 0.66406-1.5664 1.0742-0.20703 0.28125-0.39844 0.57422-0.57422 0.875-0.51953 0.60156-0.95312 1.2734-1.2891 1.9961l-0.0625 0.085938h0.003907c-8.8945 22.805-26.934 40.844-49.738 49.734l-0.097657 0.0625h0.003907c-0.67969 0.32031-1.3125 0.73047-1.8828 1.2188-0.33984 0.19531-0.66797 0.41406-0.98047 0.65625-0.35156 0.42188-0.66406 0.875-0.93359 1.3555-0.35547 0.4375-0.66797 0.90234-0.9375 1.3984-0.11328 0.37109-0.19531 0.74609-0.25391 1.1289-0.25781 0.71875-0.41797 1.4688-0.47266 2.2305v83.355c0.046875 0.75391 0.19922 1.4961 0.44531 2.2109 0.058594 0.38281 0.14453 0.76172 0.25391 1.1289 0.26562 0.49609 0.58203 0.96484 0.9375 1.4023 0.26953 0.47656 0.58594 0.92969 0.9375 1.3555 0.3125 0.23828 0.63672 0.45703 0.97656 0.65625 0.57422 0.48438 1.207 0.89453 1.8828 1.2148l0.097656 0.0625c11.281 4.3945 21.523 11.086 30.082 19.652 8.5391 8.5781 15.227 18.816 19.652 30.082l0.0625 0.11328c0.078125 0.18359 0.21875 0.33203 0.30469 0.51562 0.35938 0.75391 0.82813 1.4492 1.3906 2.0664 0.21094 0.22266 0.44141 0.42969 0.68359 0.62109 0.55078 0.48828 1.1602 0.90234 1.8203 1.2344 0.28516 0.14453 0.57422 0.27734 0.875 0.39453 0.97266 0.39063 2.0039 0.59766 3.0508 0.62109h155.3l-2.4219 12.426v-0.003907c-3.7773 1.082-7.3438 2.7969-10.547 5.0781h-223.28zm207.86 169.75c-3.1172 11.176-10.543 20.652-20.648 26.348-10.102 5.6992-22.055 7.1523-33.23 4.0391-11.172-3.1133-20.652-10.535-26.355-20.637-5.7031-10.102-7.1602-22.051-4.0547-33.227s10.523-20.66 20.621-26.371c10.102-5.707 22.051-7.168 33.227-4.0664 4.7852 1.3477 9.3047 3.4922 13.371 6.3516 2.3242 1.6328 5.2969 2.0352 7.9727 1.082 2.6758-0.95703 4.7227-3.1523 5.4844-5.8867l17.316-62.125c3.4922 2.875 7.5117 5.0391 11.832 6.3711l2.25 8.0938zm82.84-46.461c2.6719 0.97266 5.6562 0.57031 7.9766-1.0781 4.0547-2.8477 8.5586-4.9922 13.328-6.3438 11.176-3.1133 23.133-1.6602 33.238 4.0391 10.109 5.7031 17.535 15.184 20.652 26.359 3.1133 11.18 1.6602 23.137-4.0391 33.242s-15.184 17.531-26.359 20.648c-11.176 3.1172-23.133 1.6641-33.238-4.0352-10.109-5.7031-17.535-15.184-20.652-26.359l-28.551-102.71c0-0.10547-0.042969-0.21094-0.078125-0.31641l-1.2344-4.4258v-0.003907c5.9258-1.4102 11.379-4.3516 15.812-8.5312l17.691 63.633c0.75781 2.7266 2.7891 4.9141 5.4531 5.8789zm199.3-123.29h-203.62l15.566-80.098c8.5117-11.711 13.086-25.824 13.055-40.301-0.042969-5.4492-0.72266-10.875-2.0195-16.172l10.77-55.281v0.14062h17.5v-17.5h-14.113l3.4023-17.5h10.711v-18.289h148.75z"/>
  <path d="m403.45 488.03c1.543 5.5273 4.8516 10.395 9.418 13.867 4.5703 3.4727 10.148 5.3516 15.887 5.3555 8.1953-0.003906 15.922-3.8359 20.883-10.359 4.9609-6.5234 6.5898-14.988 4.4062-22.891-1.8711-6.6992-6.3164-12.383-12.367-15.809-6.0547-3.4297-13.215-4.3203-19.922-2.4766-6.707 1.8633-12.402 6.3125-15.828 12.371-3.4258 6.0625-4.3047 13.234-2.4414 19.941zm17.676-11.375c1.1289-2.0195 3.0195-3.5078 5.25-4.1289 2.2383-0.62109 4.6328-0.32422 6.6562 0.82812 2.0195 1.1484 3.5 3.0547 4.1133 5.2969 0.78125 2.8164 0.10547 5.8359-1.8008 8.0508-1.9062 2.2109-4.7969 3.3281-7.6953 2.9727-2.9023-0.35547-5.4336-2.1367-6.7461-4.7461-1.3164-2.6094-1.2422-5.7031 0.19531-8.2461z"/>
  <path d="m277.76 455.72c-7.3047-2.0273-15.129-0.79297-21.457 3.3789-6.332 4.168-10.547 10.871-11.566 18.383s1.2539 15.098 6.2422 20.805c4.9883 5.707 12.199 8.9805 19.781 8.9805 8.5352-0.003906 16.535-4.1602 21.449-11.141 4.9141-6.9805 6.1289-15.914 3.2539-23.953-2.875-8.0352-9.4766-14.176-17.703-16.453zm1.3984 27.633c-0.61328 2.2383-2.0938 4.1445-4.1133 5.293-2.0156 1.1484-4.4102 1.4453-6.6484 0.83203-4.2266-1.168-6.9375-5.2773-6.3438-9.6211 0.59375-4.3398 4.3047-7.5742 8.6875-7.5664 0.78906 0.003907 1.5742 0.10938 2.3359 0.31641 2.2461 0.61328 4.1523 2.0938 5.3008 4.1172 1.1523 2.0234 1.4453 4.4219 0.82422 6.6641z"/>
  <path d="m490 185.05c6.9609 0 13.641-2.7656 18.562-7.6875 4.9219-4.9258 7.6875-11.602 7.6875-18.562 0-6.9609-2.7656-13.641-7.6875-18.562-4.9219-4.9219-11.602-7.6875-18.562-7.6875s-13.641 2.7656-18.562 7.6875c-4.9219 4.9219-7.6875 11.602-7.6875 18.562 0 6.9609 2.7656 13.637 7.6875 18.562 4.9219 4.9219 11.602 7.6875 18.562 7.6875zm0-35c3.5391 0 6.7305 2.1328 8.082 5.4023 1.3555 3.2695 0.60938 7.0312-1.8945 9.5352-2.5039 2.5-6.2656 3.25-9.5352 1.8945-3.2695-1.3516-5.4023-4.543-5.4023-8.082 0-4.832 3.918-8.75 8.75-8.75z"/>
  <path d="m525 246.3c0 6.9609 2.7656 13.637 7.6875 18.562 4.9219 4.9219 11.602 7.6875 18.562 7.6875s13.641-2.7656 18.562-7.6875c4.9219-4.9258 7.6875-11.602 7.6875-18.562 0-6.9609-2.7656-13.641-7.6875-18.562-4.9219-4.9219-11.602-7.6875-18.562-7.6875s-13.641 2.7656-18.562 7.6875c-4.9219 4.9219-7.6875 11.602-7.6875 18.562zm35 0c0 3.5391-2.1328 6.7305-5.4023 8.082-3.2695 1.3555-7.0312 0.60547-9.5352-1.8945-2.5039-2.5039-3.25-6.2656-1.8945-9.5352 1.3516-3.2695 4.543-5.4023 8.082-5.4023 2.3203 0 4.5469 0.92187 6.1875 2.5625 1.6406 1.6406 2.5625 3.8672 2.5625 6.1875z"/>
  <path d="m476.52 271.17c4.0664 2.6133 9.4805 1.4375 12.094-2.625l78.75-122.5c1.3203-1.9531 1.8008-4.3555 1.3281-6.6641-0.47656-2.3086-1.8594-4.3281-3.8438-5.6055-1.9805-1.2734-4.3945-1.6914-6.6914-1.1641-2.2969 0.52734-4.2852 1.9609-5.5117 3.9727l-78.75 122.5c-2.6094 4.0625-1.4336 9.4727 2.625 12.086z"/>
  <path d="m428.75 288.75h17.5v17.5h-17.5z"/>
  <path d="m428.75 253.75h17.5v17.5h-17.5z"/>
  <path d="m428.75 218.75h17.5v17.5h-17.5z"/>
  <path d="m428.75 183.75h17.5v17.5h-17.5z"/>
  <path d="m428.75 148.75h17.5v17.5h-17.5z"/>
 </g>
</svg>
