<?xml version="1.0" standalone="no"?>
<!DOCTYPE svg PUBLIC "-//W3C//DTD SVG 20010904//EN"
 "http://www.w3.org/TR/2001/REC-SVG-20010904/DTD/svg10.dtd">
<svg version="1.0" xmlns="http://www.w3.org/2000/svg"
 width="470.000000pt" height="470.000000pt" viewBox="0 0 470.000000 470.000000"
 preserveAspectRatio="xMidYMid meet">
<metadata>
Created by potrace 1.14, written by Peter Selinger 2001-2017
</metadata>
<g transform="translate(0.000000,470.000000) scale(0.100000,-0.100000)"
fill="#000000" stroke="none">
<path d="M2266 4083 c-47 -76 -90 -145 -96 -153 -30 -45 -426 -674 -444 -704
-6 -11 -15 -25 -19 -30 -5 -6 -65 -101 -134 -211 -68 -110 -139 -222 -157
-250 -18 -27 -57 -88 -86 -135 -29 -47 -63 -101 -75 -120 -41 -63 -357 -565
-369 -585 -6 -11 -13 -22 -16 -25 -3 -3 -26 -39 -50 -80 -24 -41 -47 -77 -50
-80 -3 -3 -35 -52 -70 -110 -36 -58 -68 -109 -73 -115 -12 -16 -327 -517 -327
-522 0 -2 -5 -9 -10 -16 -20 -23 -90 -138 -90 -147 0 -4 -3 -10 -8 -12 -12 -5
-132 -202 -129 -213 2 -10 4597 -16 4597 -6 0 3 -59 97 -210 335 -8 13 -30 48
-48 77 -18 30 -62 99 -97 154 -36 55 -74 116 -85 135 -20 34 -219 350 -240
380 -6 8 -50 79 -99 157 -49 78 -91 140 -93 138 -3 -3 -5 1 -5 8 0 15 -33 67
-42 67 -4 0 -8 6 -8 13 0 10 -108 184 -211 342 -15 22 -33 52 -42 66 -13 23
-50 82 -221 352 -25 39 -151 239 -279 442 -128 204 -237 373 -242 376 -5 3
-10 10 -10 15 -1 5 -12 27 -26 49 -288 459 -343 545 -347 545 -2 0 -41 -62
-89 -137z m49 -735 l0 -653 -54 -50 c-30 -27 -64 -59 -76 -70 -13 -11 -79 -74
-149 -139 -70 -66 -136 -126 -147 -134 -11 -7 -17 -18 -13 -23 3 -5 1 -8 -3
-7 -5 2 -45 -30 -89 -69 -43 -40 -83 -73 -89 -73 -5 0 -106 47 -223 106 -139
69 -210 110 -205 117 9 15 455 725 499 795 19 28 50 78 71 110 20 31 49 76 65
100 15 24 28 45 28 47 0 1 52 85 115 184 63 100 115 186 115 191 0 6 4 10 8
10 5 0 15 12 23 28 8 15 16 29 19 32 15 14 75 124 72 132 -1 5 2 7 8 3 5 -3
10 -1 10 4 0 6 3 11 8 11 4 0 7 -294 7 -652z m148 557 c18 -28 121 -193 231
-367 l198 -317 -25 -23 c-25 -23 -108 -99 -327 -298 -63 -58 -116 -108 -118
-112 -18 -41 -22 61 -22 600 1 672 -5 624 63 517z m673 -1070 c107 -171 212
-337 233 -370 96 -150 322 -515 327 -528 5 -14 -5 -18 -521 -197 -60 -21 -177
-61 -259 -90 -81 -28 -156 -52 -165 -52 -9 -1 -81 34 -161 76 -80 42 -155 82
-167 88 l-23 11 0 432 0 432 226 219 c125 120 243 236 263 256 20 20 40 36 44
34 5 -1 96 -141 203 -311z m-822 -642 c-1 -208 -2 -379 -3 -380 0 -1 -27 12
-58 29 -32 16 -114 59 -183 95 -146 77 -273 144 -279 149 -4 4 29 36 185 179
53 50 127 118 163 151 129 121 166 154 171 154 3 0 5 -170 4 -377z m-893 -24
c109 -56 199 -105 199 -109 0 -5 -136 -134 -211 -201 -10 -9 -15 -19 -11 -23
4 -4 2 -6 -4 -4 -10 2 -68 -49 -278 -245 -26 -25 -160 -148 -242 -223 -12 -12
-20 -25 -16 -29 4 -4 2 -5 -4 -3 -6 2 -47 -31 -91 -72 -44 -41 -106 -100 -139
-130 -32 -30 -58 -58 -57 -62 2 -4 -1 -7 -5 -5 -4 1 -47 -34 -96 -78 -94 -86
-114 -99 -102 -69 7 18 227 372 343 551 29 46 53 85 53 88 0 3 13 24 30 46 16
23 27 46 23 52 -3 5 -1 7 4 4 6 -4 13 0 17 8 3 8 51 86 106 174 56 88 101 163
100 167 -1 4 3 10 8 13 5 3 33 44 62 91 94 151 100 160 106 160 3 0 95 -46
205 -101z m589 -296 c162 -81 297 -149 299 -151 6 -3 9 -283 3 -299 -2 -7 -8
-11 -13 -8 -4 3 -16 1 -26 -4 -10 -6 -72 -29 -138 -52 -236 -80 -270 -93 -275
-98 -3 -3 -12 -7 -20 -8 -14 -1 -88 -27 -370 -126 -52 -19 -131 -46 -175 -62
-44 -15 -143 -50 -220 -77 -77 -28 -205 -72 -285 -99 -80 -28 -154 -54 -165
-59 -11 -6 -69 -26 -130 -46 -60 -21 -112 -41 -113 -46 -2 -4 -8 -6 -13 -3 -5
3 -18 1 -30 -5 -52 -28 -13 19 91 110 14 12 24 26 22 31 -1 5 2 8 6 7 8 -3 56
40 268 237 17 17 72 67 121 112 50 46 108 100 130 120 36 34 179 166 267 246
17 16 54 50 81 75 28 26 108 101 180 167 71 66 145 135 164 153 19 17 38 32
41 32 3 0 138 -66 300 -147z m1777 -69 c43 -71 27 -45 482 -754 30 -47 74
-116 99 -155 25 -38 58 -89 73 -113 27 -40 35 -62 24 -62 -4 0 -164 81 -490
250 -82 42 -226 117 -320 165 -93 48 -176 92 -182 98 -7 5 -13 6 -13 2 0 -4
-6 -3 -12 3 -7 5 -80 45 -163 87 -287 148 -400 207 -404 211 -2 2 7 8 20 13
38 15 192 72 209 76 8 2 60 20 115 40 55 20 114 41 130 47 17 6 73 26 125 45
52 19 100 35 105 37 19 6 24 8 87 32 35 12 68 23 75 23 6 1 24 -20 40 -45z
m-1185 -262 c-2 -4 -17 -12 -35 -19 -18 -6 -62 -23 -99 -37 l-68 -26 0 105 0
104 103 -59 c56 -33 101 -63 99 -68z m496 -228 c550 -280 736 -376 750 -387 6
-5 12 -7 12 -4 0 3 40 -16 88 -42 48 -25 172 -89 274 -141 110 -56 180 -97
172 -100 -11 -4 -1859 -5 -1977 -1 -16 1 -17 23 -15 367 l3 367 95 34 c52 19
102 36 110 38 8 2 38 12 65 23 28 11 56 20 63 21 8 1 170 -78 360 -175z m-788
-314 c1 -184 1 -341 1 -348 -1 -9 -197 -12 -956 -11 -525 1 -955 4 -955 8 0 3
69 30 153 59 83 29 168 60 187 67 19 8 157 58 305 111 149 52 324 115 390 139
66 23 217 77 335 120 118 42 287 103 375 135 88 31 161 57 162 56 1 -1 2 -152
3 -336z"/>
</g>
</svg>
